<?xml version="1.0" encoding="utf-8" standalone="no"?>
<!DOCTYPE svg PUBLIC "-//W3C//DTD SVG 1.1//EN"
  "http://www.w3.org/Graphics/SVG/1.1/DTD/svg11.dtd">
<svg xmlns:xlink="http://www.w3.org/1999/xlink" width="146.232pt" height="243.792pt" viewBox="0 0 146.232 243.792" xmlns="http://www.w3.org/2000/svg" version="1.1">
 <metadata>
  <rdf:RDF xmlns:dc="http://purl.org/dc/elements/1.1/" xmlns:cc="http://creativecommons.org/ns#" xmlns:rdf="http://www.w3.org/1999/02/22-rdf-syntax-ns#">
   <cc:Work>
    <dc:type rdf:resource="http://purl.org/dc/dcmitype/StillImage"/>
    <dc:date>2024-03-10T16:12:31.355921</dc:date>
    <dc:format>image/svg+xml</dc:format>
    <dc:creator>
     <cc:Agent>
      <dc:title>Matplotlib v3.6.3, https://matplotlib.org/</dc:title>
     </cc:Agent>
    </dc:creator>
   </cc:Work>
  </rdf:RDF>
 </metadata>
 <defs>
  <style type="text/css">*{stroke-linejoin: round; stroke-linecap: butt}</style>
 </defs>
 <g id="figure_1">
  <g id="patch_1">
   <path d="M 0 243.792 
L 146.232 243.792 
L 146.232 0 
L 0 0 
z
" style="fill: #ffffff"/>
  </g>
  <g id="axes_1">
   <g id="patch_2">
    <path d="M 33.2 56.914068 
L 139.752 56.914068 
L 139.752 6.48 
L 33.2 6.48 
z
" style="fill: #ffffff"/>
   </g>
   <g id="matplotlib.axis_1">
    <g id="xtick_1">
     <g id="line2d_1">
      <defs>
       <path id="m44568f2e14" d="M 0 0 
L 0 3.5 
" style="stroke: #000000; stroke-width: 0.8"/>
      </defs>
      <g>
       <use xlink:href="#m44568f2e14" x="43.8552" y="56.914068" style="stroke: #000000; stroke-width: 0.8"/>
      </g>
     </g>
     <g id="text_1">
      <!-- 200 -->
      <g transform="translate(38.850356 68.208756) scale(0.06 -0.06)">
       <defs>
        <path id="ArialMT-32" d="M 3222 541 
L 3222 0 
L 194 0 
Q 188 203 259 391 
Q 375 700 629 1000 
Q 884 1300 1366 1694 
Q 2113 2306 2375 2664 
Q 2638 3022 2638 3341 
Q 2638 3675 2398 3904 
Q 2159 4134 1775 4134 
Q 1369 4134 1125 3890 
Q 881 3647 878 3216 
L 300 3275 
Q 359 3922 746 4261 
Q 1134 4600 1788 4600 
Q 2447 4600 2831 4234 
Q 3216 3869 3216 3328 
Q 3216 3053 3103 2787 
Q 2991 2522 2730 2228 
Q 2469 1934 1863 1422 
Q 1356 997 1212 845 
Q 1069 694 975 541 
L 3222 541 
z
" transform="scale(0.015625)"/>
        <path id="ArialMT-30" d="M 266 2259 
Q 266 3072 433 3567 
Q 600 4063 929 4331 
Q 1259 4600 1759 4600 
Q 2128 4600 2406 4451 
Q 2684 4303 2865 4023 
Q 3047 3744 3150 3342 
Q 3253 2941 3253 2259 
Q 3253 1453 3087 958 
Q 2922 463 2592 192 
Q 2263 -78 1759 -78 
Q 1097 -78 719 397 
Q 266 969 266 2259 
z
M 844 2259 
Q 844 1131 1108 757 
Q 1372 384 1759 384 
Q 2147 384 2411 759 
Q 2675 1134 2675 2259 
Q 2675 3391 2411 3762 
Q 2147 4134 1753 4134 
Q 1366 4134 1134 3806 
Q 844 3388 844 2259 
z
" transform="scale(0.015625)"/>
       </defs>
       <use xlink:href="#ArialMT-32"/>
       <use xlink:href="#ArialMT-30" x="55.615234"/>
       <use xlink:href="#ArialMT-30" x="111.230469"/>
      </g>
     </g>
    </g>
    <g id="xtick_2">
     <g id="line2d_2">
      <g>
       <use xlink:href="#m44568f2e14" x="65.1656" y="56.914068" style="stroke: #000000; stroke-width: 0.8"/>
      </g>
     </g>
     <g id="text_2">
      <!-- 220 -->
      <g transform="translate(60.160756 68.208756) scale(0.06 -0.06)">
       <use xlink:href="#ArialMT-32"/>
       <use xlink:href="#ArialMT-32" x="55.615234"/>
       <use xlink:href="#ArialMT-30" x="111.230469"/>
      </g>
     </g>
    </g>
    <g id="xtick_3">
     <g id="line2d_3">
      <g>
       <use xlink:href="#m44568f2e14" x="86.476" y="56.914068" style="stroke: #000000; stroke-width: 0.8"/>
      </g>
     </g>
     <g id="text_3">
      <!-- 240 -->
      <g transform="translate(81.471156 68.208756) scale(0.06 -0.06)">
       <defs>
        <path id="ArialMT-34" d="M 2069 0 
L 2069 1097 
L 81 1097 
L 81 1613 
L 2172 4581 
L 2631 4581 
L 2631 1613 
L 3250 1613 
L 3250 1097 
L 2631 1097 
L 2631 0 
L 2069 0 
z
M 2069 1613 
L 2069 3678 
L 634 1613 
L 2069 1613 
z
" transform="scale(0.015625)"/>
       </defs>
       <use xlink:href="#ArialMT-32"/>
       <use xlink:href="#ArialMT-34" x="55.615234"/>
       <use xlink:href="#ArialMT-30" x="111.230469"/>
      </g>
     </g>
    </g>
    <g id="xtick_4">
     <g id="line2d_4">
      <g>
       <use xlink:href="#m44568f2e14" x="107.7864" y="56.914068" style="stroke: #000000; stroke-width: 0.8"/>
      </g>
     </g>
     <g id="text_4">
      <!-- 260 -->
      <g transform="translate(102.781556 68.208756) scale(0.06 -0.06)">
       <defs>
        <path id="ArialMT-36" d="M 3184 3459 
L 2625 3416 
Q 2550 3747 2413 3897 
Q 2184 4138 1850 4138 
Q 1581 4138 1378 3988 
Q 1113 3794 959 3422 
Q 806 3050 800 2363 
Q 1003 2672 1297 2822 
Q 1591 2972 1913 2972 
Q 2475 2972 2870 2558 
Q 3266 2144 3266 1488 
Q 3266 1056 3080 686 
Q 2894 316 2569 119 
Q 2244 -78 1831 -78 
Q 1128 -78 684 439 
Q 241 956 241 2144 
Q 241 3472 731 4075 
Q 1159 4600 1884 4600 
Q 2425 4600 2770 4297 
Q 3116 3994 3184 3459 
z
M 888 1484 
Q 888 1194 1011 928 
Q 1134 663 1356 523 
Q 1578 384 1822 384 
Q 2178 384 2434 671 
Q 2691 959 2691 1453 
Q 2691 1928 2437 2201 
Q 2184 2475 1800 2475 
Q 1419 2475 1153 2201 
Q 888 1928 888 1484 
z
" transform="scale(0.015625)"/>
       </defs>
       <use xlink:href="#ArialMT-32"/>
       <use xlink:href="#ArialMT-36" x="55.615234"/>
       <use xlink:href="#ArialMT-30" x="111.230469"/>
      </g>
     </g>
    </g>
    <g id="xtick_5">
     <g id="line2d_5">
      <g>
       <use xlink:href="#m44568f2e14" x="129.0968" y="56.914068" style="stroke: #000000; stroke-width: 0.8"/>
      </g>
     </g>
     <g id="text_5">
      <!-- 280 -->
      <g transform="translate(124.091956 68.208756) scale(0.06 -0.06)">
       <defs>
        <path id="ArialMT-38" d="M 1131 2484 
Q 781 2613 612 2850 
Q 444 3088 444 3419 
Q 444 3919 803 4259 
Q 1163 4600 1759 4600 
Q 2359 4600 2725 4251 
Q 3091 3903 3091 3403 
Q 3091 3084 2923 2848 
Q 2756 2613 2416 2484 
Q 2838 2347 3058 2040 
Q 3278 1734 3278 1309 
Q 3278 722 2862 322 
Q 2447 -78 1769 -78 
Q 1091 -78 675 323 
Q 259 725 259 1325 
Q 259 1772 486 2073 
Q 713 2375 1131 2484 
z
M 1019 3438 
Q 1019 3113 1228 2906 
Q 1438 2700 1772 2700 
Q 2097 2700 2305 2904 
Q 2513 3109 2513 3406 
Q 2513 3716 2298 3927 
Q 2084 4138 1766 4138 
Q 1444 4138 1231 3931 
Q 1019 3725 1019 3438 
z
M 838 1322 
Q 838 1081 952 856 
Q 1066 631 1291 507 
Q 1516 384 1775 384 
Q 2178 384 2440 643 
Q 2703 903 2703 1303 
Q 2703 1709 2433 1975 
Q 2163 2241 1756 2241 
Q 1359 2241 1098 1978 
Q 838 1716 838 1322 
z
" transform="scale(0.015625)"/>
       </defs>
       <use xlink:href="#ArialMT-32"/>
       <use xlink:href="#ArialMT-38" x="55.615234"/>
       <use xlink:href="#ArialMT-30" x="111.230469"/>
      </g>
     </g>
    </g>
    <g id="text_6">
     <!-- Time (ms) -->
     <g transform="translate(73.09225 77.769068) scale(0.06 -0.06)">
      <defs>
       <path id="ArialMT-54" d="M 1659 0 
L 1659 4041 
L 150 4041 
L 150 4581 
L 3781 4581 
L 3781 4041 
L 2266 4041 
L 2266 0 
L 1659 0 
z
" transform="scale(0.015625)"/>
       <path id="ArialMT-69" d="M 425 3934 
L 425 4581 
L 988 4581 
L 988 3934 
L 425 3934 
z
M 425 0 
L 425 3319 
L 988 3319 
L 988 0 
L 425 0 
z
" transform="scale(0.015625)"/>
       <path id="ArialMT-6d" d="M 422 0 
L 422 3319 
L 925 3319 
L 925 2853 
Q 1081 3097 1340 3245 
Q 1600 3394 1931 3394 
Q 2300 3394 2536 3241 
Q 2772 3088 2869 2813 
Q 3263 3394 3894 3394 
Q 4388 3394 4653 3120 
Q 4919 2847 4919 2278 
L 4919 0 
L 4359 0 
L 4359 2091 
Q 4359 2428 4304 2576 
Q 4250 2725 4106 2815 
Q 3963 2906 3769 2906 
Q 3419 2906 3187 2673 
Q 2956 2441 2956 1928 
L 2956 0 
L 2394 0 
L 2394 2156 
Q 2394 2531 2256 2718 
Q 2119 2906 1806 2906 
Q 1569 2906 1367 2781 
Q 1166 2656 1075 2415 
Q 984 2175 984 1722 
L 984 0 
L 422 0 
z
" transform="scale(0.015625)"/>
       <path id="ArialMT-65" d="M 2694 1069 
L 3275 997 
Q 3138 488 2766 206 
Q 2394 -75 1816 -75 
Q 1088 -75 661 373 
Q 234 822 234 1631 
Q 234 2469 665 2931 
Q 1097 3394 1784 3394 
Q 2450 3394 2872 2941 
Q 3294 2488 3294 1666 
Q 3294 1616 3291 1516 
L 816 1516 
Q 847 969 1125 678 
Q 1403 388 1819 388 
Q 2128 388 2347 550 
Q 2566 713 2694 1069 
z
M 847 1978 
L 2700 1978 
Q 2663 2397 2488 2606 
Q 2219 2931 1791 2931 
Q 1403 2931 1139 2672 
Q 875 2413 847 1978 
z
" transform="scale(0.015625)"/>
       <path id="ArialMT-20" transform="scale(0.015625)"/>
       <path id="ArialMT-28" d="M 1497 -1347 
Q 1031 -759 709 28 
Q 388 816 388 1659 
Q 388 2403 628 3084 
Q 909 3875 1497 4659 
L 1900 4659 
Q 1522 4009 1400 3731 
Q 1209 3300 1100 2831 
Q 966 2247 966 1656 
Q 966 153 1900 -1347 
L 1497 -1347 
z
" transform="scale(0.015625)"/>
       <path id="ArialMT-73" d="M 197 991 
L 753 1078 
Q 800 744 1014 566 
Q 1228 388 1613 388 
Q 2000 388 2187 545 
Q 2375 703 2375 916 
Q 2375 1106 2209 1216 
Q 2094 1291 1634 1406 
Q 1016 1563 777 1677 
Q 538 1791 414 1992 
Q 291 2194 291 2438 
Q 291 2659 392 2848 
Q 494 3038 669 3163 
Q 800 3259 1026 3326 
Q 1253 3394 1513 3394 
Q 1903 3394 2198 3281 
Q 2494 3169 2634 2976 
Q 2775 2784 2828 2463 
L 2278 2388 
Q 2241 2644 2061 2787 
Q 1881 2931 1553 2931 
Q 1166 2931 1000 2803 
Q 834 2675 834 2503 
Q 834 2394 903 2306 
Q 972 2216 1119 2156 
Q 1203 2125 1616 2013 
Q 2213 1853 2448 1751 
Q 2684 1650 2818 1456 
Q 2953 1263 2953 975 
Q 2953 694 2789 445 
Q 2625 197 2315 61 
Q 2006 -75 1616 -75 
Q 969 -75 630 194 
Q 291 463 197 991 
z
" transform="scale(0.015625)"/>
       <path id="ArialMT-29" d="M 791 -1347 
L 388 -1347 
Q 1322 153 1322 1656 
Q 1322 2244 1188 2822 
Q 1081 3291 891 3722 
Q 769 4003 388 4659 
L 791 4659 
Q 1378 3875 1659 3084 
Q 1900 2403 1900 1659 
Q 1900 816 1576 28 
Q 1253 -759 791 -1347 
z
" transform="scale(0.015625)"/>
      </defs>
      <use xlink:href="#ArialMT-54"/>
      <use xlink:href="#ArialMT-69" x="57.333984"/>
      <use xlink:href="#ArialMT-6d" x="79.550781"/>
      <use xlink:href="#ArialMT-65" x="162.851562"/>
      <use xlink:href="#ArialMT-20" x="218.466797"/>
      <use xlink:href="#ArialMT-28" x="246.25"/>
      <use xlink:href="#ArialMT-6d" x="279.550781"/>
      <use xlink:href="#ArialMT-73" x="362.851562"/>
      <use xlink:href="#ArialMT-29" x="412.851562"/>
     </g>
    </g>
   </g>
   <g id="matplotlib.axis_2">
    <g id="ytick_1">
     <g id="line2d_6">
      <defs>
       <path id="m04568e45a8" d="M 0 0 
L -3.5 0 
" style="stroke: #000000; stroke-width: 0.8"/>
      </defs>
      <g>
       <use xlink:href="#m04568e45a8" x="33.2" y="54.621611" style="stroke: #000000; stroke-width: 0.8"/>
      </g>
     </g>
     <g id="text_7">
      <!-- 0 -->
      <g transform="translate(22.863437 56.768955) scale(0.06 -0.06)">
       <use xlink:href="#ArialMT-30"/>
      </g>
     </g>
    </g>
    <g id="ytick_2">
     <g id="line2d_7">
      <g>
       <use xlink:href="#m04568e45a8" x="33.2" y="31.697034" style="stroke: #000000; stroke-width: 0.8"/>
      </g>
     </g>
     <g id="text_8">
      <!-- 1 -->
      <g transform="translate(22.863437 33.844378) scale(0.06 -0.06)">
       <defs>
        <path id="ArialMT-31" d="M 2384 0 
L 1822 0 
L 1822 3584 
Q 1619 3391 1289 3197 
Q 959 3003 697 2906 
L 697 3450 
Q 1169 3672 1522 3987 
Q 1875 4303 2022 4600 
L 2384 4600 
L 2384 0 
z
" transform="scale(0.015625)"/>
       </defs>
       <use xlink:href="#ArialMT-31"/>
      </g>
     </g>
    </g>
    <g id="ytick_3">
     <g id="line2d_8">
      <g>
       <use xlink:href="#m04568e45a8" x="33.2" y="8.772458" style="stroke: #000000; stroke-width: 0.8"/>
      </g>
     </g>
     <g id="text_9">
      <!-- 2 -->
      <g transform="translate(22.863437 10.919801) scale(0.06 -0.06)">
       <use xlink:href="#ArialMT-32"/>
      </g>
     </g>
    </g>
    <g id="text_10">
     <!-- Input spikes -->
     <g transform="translate(17.670937 47.705315) rotate(-90) scale(0.06 -0.06)">
      <defs>
       <path id="ArialMT-49" d="M 597 0 
L 597 4581 
L 1203 4581 
L 1203 0 
L 597 0 
z
" transform="scale(0.015625)"/>
       <path id="ArialMT-6e" d="M 422 0 
L 422 3319 
L 928 3319 
L 928 2847 
Q 1294 3394 1984 3394 
Q 2284 3394 2536 3286 
Q 2788 3178 2913 3003 
Q 3038 2828 3088 2588 
Q 3119 2431 3119 2041 
L 3119 0 
L 2556 0 
L 2556 2019 
Q 2556 2363 2490 2533 
Q 2425 2703 2258 2804 
Q 2091 2906 1866 2906 
Q 1506 2906 1245 2678 
Q 984 2450 984 1813 
L 984 0 
L 422 0 
z
" transform="scale(0.015625)"/>
       <path id="ArialMT-70" d="M 422 -1272 
L 422 3319 
L 934 3319 
L 934 2888 
Q 1116 3141 1344 3267 
Q 1572 3394 1897 3394 
Q 2322 3394 2647 3175 
Q 2972 2956 3137 2557 
Q 3303 2159 3303 1684 
Q 3303 1175 3120 767 
Q 2938 359 2589 142 
Q 2241 -75 1856 -75 
Q 1575 -75 1351 44 
Q 1128 163 984 344 
L 984 -1272 
L 422 -1272 
z
M 931 1641 
Q 931 1000 1190 694 
Q 1450 388 1819 388 
Q 2194 388 2461 705 
Q 2728 1022 2728 1688 
Q 2728 2322 2467 2637 
Q 2206 2953 1844 2953 
Q 1484 2953 1207 2617 
Q 931 2281 931 1641 
z
" transform="scale(0.015625)"/>
       <path id="ArialMT-75" d="M 2597 0 
L 2597 488 
Q 2209 -75 1544 -75 
Q 1250 -75 995 37 
Q 741 150 617 320 
Q 494 491 444 738 
Q 409 903 409 1263 
L 409 3319 
L 972 3319 
L 972 1478 
Q 972 1038 1006 884 
Q 1059 663 1231 536 
Q 1403 409 1656 409 
Q 1909 409 2131 539 
Q 2353 669 2445 892 
Q 2538 1116 2538 1541 
L 2538 3319 
L 3100 3319 
L 3100 0 
L 2597 0 
z
" transform="scale(0.015625)"/>
       <path id="ArialMT-74" d="M 1650 503 
L 1731 6 
Q 1494 -44 1306 -44 
Q 1000 -44 831 53 
Q 663 150 594 308 
Q 525 466 525 972 
L 525 2881 
L 113 2881 
L 113 3319 
L 525 3319 
L 525 4141 
L 1084 4478 
L 1084 3319 
L 1650 3319 
L 1650 2881 
L 1084 2881 
L 1084 941 
Q 1084 700 1114 631 
Q 1144 563 1211 522 
Q 1278 481 1403 481 
Q 1497 481 1650 503 
z
" transform="scale(0.015625)"/>
       <path id="ArialMT-6b" d="M 425 0 
L 425 4581 
L 988 4581 
L 988 1969 
L 2319 3319 
L 3047 3319 
L 1778 2088 
L 3175 0 
L 2481 0 
L 1384 1697 
L 988 1316 
L 988 0 
L 425 0 
z
" transform="scale(0.015625)"/>
      </defs>
      <use xlink:href="#ArialMT-49"/>
      <use xlink:href="#ArialMT-6e" x="27.783203"/>
      <use xlink:href="#ArialMT-70" x="83.398438"/>
      <use xlink:href="#ArialMT-75" x="139.013672"/>
      <use xlink:href="#ArialMT-74" x="194.628906"/>
      <use xlink:href="#ArialMT-20" x="222.412109"/>
      <use xlink:href="#ArialMT-73" x="250.195312"/>
      <use xlink:href="#ArialMT-70" x="300.195312"/>
      <use xlink:href="#ArialMT-69" x="355.810547"/>
      <use xlink:href="#ArialMT-6b" x="378.027344"/>
      <use xlink:href="#ArialMT-65" x="428.027344"/>
      <use xlink:href="#ArialMT-73" x="483.642578"/>
     </g>
    </g>
   </g>
   <g id="EventCollection_1">
    <path d="M 43.8552 20.234746 
L 43.8552 43.159323 
" clip-path="url(#pf10b687dd5)" style="fill: none; stroke: #0173b2; stroke-width: 1.5"/>
    <path d="M 54.5104 20.234746 
L 54.5104 43.159323 
" clip-path="url(#pf10b687dd5)" style="fill: none; stroke: #0173b2; stroke-width: 1.5"/>
    <path d="M 65.1656 20.234746 
L 65.1656 43.159323 
" clip-path="url(#pf10b687dd5)" style="fill: none; stroke: #0173b2; stroke-width: 1.5"/>
    <path d="M 75.8208 20.234746 
L 75.8208 43.159323 
" clip-path="url(#pf10b687dd5)" style="fill: none; stroke: #0173b2; stroke-width: 1.5"/>
    <path d="M 86.476 20.234746 
L 86.476 43.159323 
" clip-path="url(#pf10b687dd5)" style="fill: none; stroke: #0173b2; stroke-width: 1.5"/>
   </g>
   <g id="patch_3">
    <path d="M 33.2 56.914068 
L 33.2 6.48 
" style="fill: none; stroke: #000000; stroke-width: 0.5; stroke-linejoin: miter; stroke-linecap: square"/>
   </g>
   <g id="patch_4">
    <path d="M 33.2 56.914068 
L 139.752 56.914068 
" style="fill: none; stroke: #000000; stroke-width: 0.5; stroke-linejoin: miter; stroke-linecap: square"/>
   </g>
  </g>
  <g id="axes_2">
   <g id="patch_5">
    <path d="M 33.2 136.093034 
L 139.752 136.093034 
L 139.752 85.658966 
L 33.2 85.658966 
z
" style="fill: #ffffff"/>
   </g>
   <g id="matplotlib.axis_3">
    <g id="xtick_6">
     <g id="line2d_9">
      <g>
       <use xlink:href="#m44568f2e14" x="43.8552" y="136.093034" style="stroke: #000000; stroke-width: 0.8"/>
      </g>
     </g>
     <g id="text_11">
      <!-- 200 -->
      <g transform="translate(38.850356 147.387722) scale(0.06 -0.06)">
       <use xlink:href="#ArialMT-32"/>
       <use xlink:href="#ArialMT-30" x="55.615234"/>
       <use xlink:href="#ArialMT-30" x="111.230469"/>
      </g>
     </g>
    </g>
    <g id="xtick_7">
     <g id="line2d_10">
      <g>
       <use xlink:href="#m44568f2e14" x="65.1656" y="136.093034" style="stroke: #000000; stroke-width: 0.8"/>
      </g>
     </g>
     <g id="text_12">
      <!-- 220 -->
      <g transform="translate(60.160756 147.387722) scale(0.06 -0.06)">
       <use xlink:href="#ArialMT-32"/>
       <use xlink:href="#ArialMT-32" x="55.615234"/>
       <use xlink:href="#ArialMT-30" x="111.230469"/>
      </g>
     </g>
    </g>
    <g id="xtick_8">
     <g id="line2d_11">
      <g>
       <use xlink:href="#m44568f2e14" x="86.476" y="136.093034" style="stroke: #000000; stroke-width: 0.8"/>
      </g>
     </g>
     <g id="text_13">
      <!-- 240 -->
      <g transform="translate(81.471156 147.387722) scale(0.06 -0.06)">
       <use xlink:href="#ArialMT-32"/>
       <use xlink:href="#ArialMT-34" x="55.615234"/>
       <use xlink:href="#ArialMT-30" x="111.230469"/>
      </g>
     </g>
    </g>
    <g id="xtick_9">
     <g id="line2d_12">
      <g>
       <use xlink:href="#m44568f2e14" x="107.7864" y="136.093034" style="stroke: #000000; stroke-width: 0.8"/>
      </g>
     </g>
     <g id="text_14">
      <!-- 260 -->
      <g transform="translate(102.781556 147.387722) scale(0.06 -0.06)">
       <use xlink:href="#ArialMT-32"/>
       <use xlink:href="#ArialMT-36" x="55.615234"/>
       <use xlink:href="#ArialMT-30" x="111.230469"/>
      </g>
     </g>
    </g>
    <g id="xtick_10">
     <g id="line2d_13">
      <g>
       <use xlink:href="#m44568f2e14" x="129.0968" y="136.093034" style="stroke: #000000; stroke-width: 0.8"/>
      </g>
     </g>
     <g id="text_15">
      <!-- 280 -->
      <g transform="translate(124.091956 147.387722) scale(0.06 -0.06)">
       <use xlink:href="#ArialMT-32"/>
       <use xlink:href="#ArialMT-38" x="55.615234"/>
       <use xlink:href="#ArialMT-30" x="111.230469"/>
      </g>
     </g>
    </g>
    <g id="text_16">
     <!-- Time (ms) -->
     <g transform="translate(73.09225 156.948034) scale(0.06 -0.06)">
      <use xlink:href="#ArialMT-54"/>
      <use xlink:href="#ArialMT-69" x="57.333984"/>
      <use xlink:href="#ArialMT-6d" x="79.550781"/>
      <use xlink:href="#ArialMT-65" x="162.851562"/>
      <use xlink:href="#ArialMT-20" x="218.466797"/>
      <use xlink:href="#ArialMT-28" x="246.25"/>
      <use xlink:href="#ArialMT-6d" x="279.550781"/>
      <use xlink:href="#ArialMT-73" x="362.851562"/>
      <use xlink:href="#ArialMT-29" x="412.851562"/>
     </g>
    </g>
   </g>
   <g id="matplotlib.axis_4">
    <g id="ytick_4">
     <g id="line2d_14">
      <g>
       <use xlink:href="#m04568e45a8" x="33.2" y="124.454403" style="stroke: #000000; stroke-width: 0.8"/>
      </g>
     </g>
     <g id="text_17">
      <!-- −60 -->
      <g transform="translate(16.0225 126.601747) scale(0.06 -0.06)">
       <defs>
        <path id="ArialMT-2212" d="M 3381 1997 
L 356 1997 
L 356 2522 
L 3381 2522 
L 3381 1997 
z
" transform="scale(0.015625)"/>
       </defs>
       <use xlink:href="#ArialMT-2212"/>
       <use xlink:href="#ArialMT-36" x="58.398438"/>
       <use xlink:href="#ArialMT-30" x="114.013672"/>
      </g>
     </g>
    </g>
    <g id="ytick_5">
     <g id="line2d_15">
      <g>
       <use xlink:href="#m04568e45a8" x="33.2" y="108.936228" style="stroke: #000000; stroke-width: 0.8"/>
      </g>
     </g>
     <g id="text_18">
      <!-- −40 -->
      <g transform="translate(16.0225 111.083572) scale(0.06 -0.06)">
       <use xlink:href="#ArialMT-2212"/>
       <use xlink:href="#ArialMT-34" x="58.398438"/>
       <use xlink:href="#ArialMT-30" x="114.013672"/>
      </g>
     </g>
    </g>
    <g id="ytick_6">
     <g id="line2d_16">
      <g>
       <use xlink:href="#m04568e45a8" x="33.2" y="93.418053" style="stroke: #000000; stroke-width: 0.8"/>
      </g>
     </g>
     <g id="text_19">
      <!-- −20 -->
      <g transform="translate(16.0225 95.565397) scale(0.06 -0.06)">
       <use xlink:href="#ArialMT-2212"/>
       <use xlink:href="#ArialMT-32" x="58.398438"/>
       <use xlink:href="#ArialMT-30" x="114.013672"/>
      </g>
     </g>
    </g>
    <g id="text_20">
     <!-- Voltage (mV) -->
     <g transform="translate(10.759687 128.216469) rotate(-90) scale(0.06 -0.06)">
      <defs>
       <path id="ArialMT-56" d="M 1803 0 
L 28 4581 
L 684 4581 
L 1875 1253 
Q 2019 853 2116 503 
Q 2222 878 2363 1253 
L 3600 4581 
L 4219 4581 
L 2425 0 
L 1803 0 
z
" transform="scale(0.015625)"/>
       <path id="ArialMT-6f" d="M 213 1659 
Q 213 2581 725 3025 
Q 1153 3394 1769 3394 
Q 2453 3394 2887 2945 
Q 3322 2497 3322 1706 
Q 3322 1066 3130 698 
Q 2938 331 2570 128 
Q 2203 -75 1769 -75 
Q 1072 -75 642 372 
Q 213 819 213 1659 
z
M 791 1659 
Q 791 1022 1069 705 
Q 1347 388 1769 388 
Q 2188 388 2466 706 
Q 2744 1025 2744 1678 
Q 2744 2294 2464 2611 
Q 2184 2928 1769 2928 
Q 1347 2928 1069 2612 
Q 791 2297 791 1659 
z
" transform="scale(0.015625)"/>
       <path id="ArialMT-6c" d="M 409 0 
L 409 4581 
L 972 4581 
L 972 0 
L 409 0 
z
" transform="scale(0.015625)"/>
       <path id="ArialMT-61" d="M 2588 409 
Q 2275 144 1986 34 
Q 1697 -75 1366 -75 
Q 819 -75 525 192 
Q 231 459 231 875 
Q 231 1119 342 1320 
Q 453 1522 633 1644 
Q 813 1766 1038 1828 
Q 1203 1872 1538 1913 
Q 2219 1994 2541 2106 
Q 2544 2222 2544 2253 
Q 2544 2597 2384 2738 
Q 2169 2928 1744 2928 
Q 1347 2928 1158 2789 
Q 969 2650 878 2297 
L 328 2372 
Q 403 2725 575 2942 
Q 747 3159 1072 3276 
Q 1397 3394 1825 3394 
Q 2250 3394 2515 3294 
Q 2781 3194 2906 3042 
Q 3031 2891 3081 2659 
Q 3109 2516 3109 2141 
L 3109 1391 
Q 3109 606 3145 398 
Q 3181 191 3288 0 
L 2700 0 
Q 2613 175 2588 409 
z
M 2541 1666 
Q 2234 1541 1622 1453 
Q 1275 1403 1131 1340 
Q 988 1278 909 1158 
Q 831 1038 831 891 
Q 831 666 1001 516 
Q 1172 366 1500 366 
Q 1825 366 2078 508 
Q 2331 650 2450 897 
Q 2541 1088 2541 1459 
L 2541 1666 
z
" transform="scale(0.015625)"/>
       <path id="ArialMT-67" d="M 319 -275 
L 866 -356 
Q 900 -609 1056 -725 
Q 1266 -881 1628 -881 
Q 2019 -881 2231 -725 
Q 2444 -569 2519 -288 
Q 2563 -116 2559 434 
Q 2191 0 1641 0 
Q 956 0 581 494 
Q 206 988 206 1678 
Q 206 2153 378 2554 
Q 550 2956 876 3175 
Q 1203 3394 1644 3394 
Q 2231 3394 2613 2919 
L 2613 3319 
L 3131 3319 
L 3131 450 
Q 3131 -325 2973 -648 
Q 2816 -972 2473 -1159 
Q 2131 -1347 1631 -1347 
Q 1038 -1347 672 -1080 
Q 306 -813 319 -275 
z
M 784 1719 
Q 784 1066 1043 766 
Q 1303 466 1694 466 
Q 2081 466 2343 764 
Q 2606 1063 2606 1700 
Q 2606 2309 2336 2618 
Q 2066 2928 1684 2928 
Q 1309 2928 1046 2623 
Q 784 2319 784 1719 
z
" transform="scale(0.015625)"/>
      </defs>
      <use xlink:href="#ArialMT-56"/>
      <use xlink:href="#ArialMT-6f" x="61.199219"/>
      <use xlink:href="#ArialMT-6c" x="116.814453"/>
      <use xlink:href="#ArialMT-74" x="139.03125"/>
      <use xlink:href="#ArialMT-61" x="166.814453"/>
      <use xlink:href="#ArialMT-67" x="222.429688"/>
      <use xlink:href="#ArialMT-65" x="278.044922"/>
      <use xlink:href="#ArialMT-20" x="333.660156"/>
      <use xlink:href="#ArialMT-28" x="361.443359"/>
      <use xlink:href="#ArialMT-6d" x="394.744141"/>
      <use xlink:href="#ArialMT-56" x="478.044922"/>
      <use xlink:href="#ArialMT-29" x="544.744141"/>
     </g>
    </g>
   </g>
   <g id="line2d_17">
    <path d="M 33.2 133.557118 
L 44.148218 133.461314 
L 44.361322 133.097976 
L 44.601064 132.204865 
L 44.92072 130.177663 
L 45.613308 125.566715 
L 46.092792 123.810992 
L 46.545638 122.890262 
L 46.998484 122.432137 
L 47.45133 122.271509 
L 48.064004 122.317645 
L 48.943058 122.363223 
L 49.475818 122.455793 
L 50.035216 122.832034 
L 52.059704 124.403535 
L 53.764536 124.947936 
L 54.936608 125.678723 
L 55.123074 125.413839 
L 55.416092 124.429355 
L 56.561526 119.310359 
L 57.120924 118.245857 
L 57.97334 116.74928 
L 58.23972 115.723643 
L 58.479462 113.832311 
L 58.719204 109.934342 
L 59.012222 100.463329 
L 59.30524 93.642732 
L 59.358516 93.463206 
L 59.411792 93.536553 
L 59.544982 94.460129 
L 60.424036 104.138864 
L 60.930158 109.79762 
L 61.276452 111.42006 
L 61.622746 112.053161 
L 62.10223 112.421336 
L 62.581714 112.882622 
L 63.087836 113.753444 
L 64.046804 115.983178 
L 65.538532 119.324443 
L 66.737242 121.452126 
L 67.96259 123.176101 
L 69.267852 124.627902 
L 70.679666 125.865878 
L 72.251308 126.948436 
L 74.062692 127.921574 
L 76.193732 128.805758 
L 78.724342 129.608658 
L 81.81435 130.349197 
L 85.650222 131.031288 
L 90.445062 131.649049 
L 96.518526 132.197489 
L 104.296822 132.66669 
L 114.525814 133.049819 
L 128.56404 133.339052 
L 139.778638 133.463458 
L 139.778638 133.463458 
" clip-path="url(#p3f70d58bfa)" style="fill: none; stroke: #d55e00; stroke-width: 1.5; stroke-linecap: square"/>
   </g>
   <g id="line2d_18">
    <path d="M 33.2 133.557118 
L 44.068304 133.465573 
L 44.25477 133.099482 
L 44.574426 131.831402 
L 45.000634 129.034672 
L 45.666584 124.905668 
L 46.146068 123.246792 
L 46.598914 122.398761 
L 47.05176 121.996113 
L 47.504606 121.877041 
L 48.064004 121.969842 
L 49.31599 122.2907 
L 49.58237 122.056484 
L 49.928664 121.390728 
L 50.541338 120.234287 
L 50.78108 120.200023 
L 51.04746 120.453613 
L 51.660134 121.49123 
L 52.539188 122.804599 
L 53.764536 124.129631 
L 54.750142 125.004896 
L 54.936608 124.828993 
L 55.202988 124.176207 
L 55.549282 122.641304 
L 56.401698 118.886293 
L 56.934458 117.670717 
L 57.760236 115.923543 
L 58.026616 114.573455 
L 58.292996 111.864731 
L 58.532738 106.957822 
L 59.092136 90.414309 
L 59.17205 90.851387 
L 59.385154 94.191957 
L 60.131018 106.575765 
L 60.530588 110.047159 
L 60.876882 111.38684 
L 61.196538 111.816064 
L 62.155506 112.529688 
L 62.794818 113.724517 
L 65.56517 119.308811 
L 65.778274 119.109668 
L 66.044654 118.453836 
L 67.216726 114.759631 
L 67.722848 114.138133 
L 68.308884 113.770688 
L 69.02811 113.585158 
L 69.587508 113.647519 
L 70.066992 113.920592 
L 70.62639 114.525598 
L 71.42553 115.771513 
L 74.88847 121.546023 
L 76.007266 122.905855 
L 76.193732 122.856381 
L 76.433474 122.436569 
L 76.726492 121.40935 
L 77.792012 117.063661 
L 78.35141 115.982297 
L 79.736586 113.662611 
L 80.162794 112.18813 
L 80.589002 109.821301 
L 81.54797 103.98682 
L 81.707798 103.931029 
L 81.894264 104.18805 
L 82.400386 104.991694 
L 82.533576 104.895619 
L 82.720042 104.359525 
L 82.986422 102.665161 
L 83.465906 99.332954 
L 83.492544 99.339824 
L 83.599096 99.678837 
L 83.8122 101.536317 
L 84.47815 107.865798 
L 84.824444 109.032381 
L 85.730136 110.906748 
L 86.928846 112.764114 
L 87.115312 112.694595 
L 87.355054 112.322598 
L 88.500488 109.864654 
L 88.846782 109.714655 
L 89.193076 109.79375 
L 89.619284 110.13514 
L 90.20532 110.917015 
L 91.111012 112.540668 
L 95.319816 120.568118 
L 96.758268 122.607629 
L 98.223358 124.305774 
L 99.741724 125.729857 
L 101.366642 126.95227 
L 103.178026 128.032571 
L 105.202514 128.977834 
L 107.546658 129.823084 
L 110.31701 130.580779 
L 113.673398 131.261813 
L 117.828926 131.869928 
L 123.076612 132.404011 
L 129.869302 132.861605 
L 138.926222 133.237015 
L 139.778638 133.263205 
L 139.778638 133.263205 
" clip-path="url(#p3f70d58bfa)" style="fill: none; stroke: #cc78bc; stroke-width: 1.5; stroke-linecap: square"/>
   </g>
   <g id="line2d_19">
    <path d="M 33.2 133.557118 
L 44.041666 133.47975 
L 44.25477 132.978794 
L 44.601064 131.381868 
L 45.293652 126.573955 
L 45.799774 123.911014 
L 46.25262 122.581644 
L 46.705466 121.886729 
L 47.131674 121.601024 
L 47.611158 121.550553 
L 48.197194 121.727002 
L 49.822112 122.368446 
L 50.088492 122.124848 
L 50.434786 121.444605 
L 51.074098 120.209343 
L 51.340478 120.130162 
L 51.660134 120.314631 
L 52.24617 120.660367 
L 52.485912 120.517241 
L 52.91212 119.867335 
L 53.31169 119.435265 
L 53.524794 119.477842 
L 53.817812 119.829525 
L 54.483762 120.671958 
L 54.670228 120.662672 
L 54.830056 120.331324 
L 55.069798 119.137854 
L 55.336178 116.644281 
L 55.629196 111.715621 
L 55.8423 103.563862 
L 56.215232 84.765517 
L 56.24187 84.918272 
L 56.37506 87.832234 
L 57.147562 109.848398 
L 57.413942 111.279292 
L 57.733598 111.824253 
L 59.065498 113.500233 
L 60.264208 115.5181 
L 62.981284 120.162497 
L 64.526288 122.316607 
L 65.378704 123.238891 
L 65.538532 123.106598 
L 65.804912 122.484937 
L 66.23112 120.714766 
L 67.190088 116.829096 
L 67.722848 115.873725 
L 68.921558 113.999252 
L 69.267852 112.785445 
L 69.587508 110.815102 
L 69.96044 106.933331 
L 70.546476 100.874933 
L 70.706304 100.582063 
L 70.732942 100.591788 
L 70.866132 100.818121 
L 71.372254 101.894472 
L 71.532082 101.699198 
L 71.8251 101.288023 
L 71.851738 101.302273 
L 71.984928 101.60595 
L 72.198032 102.902292 
L 73.077086 109.190008 
L 73.42338 109.850309 
L 74.142606 111.007619 
L 74.808556 111.960594 
L 75.28804 112.769507 
L 76.22037 114.445049 
L 76.433474 114.300693 
L 76.699854 113.764197 
L 77.925202 110.898544 
L 78.298134 110.741603 
L 78.671066 110.824048 
L 79.123912 111.168598 
L 79.736586 111.952377 
L 80.642278 113.533711 
L 84.398236 120.50862 
L 85.863326 122.574602 
L 86.689104 123.471941 
L 86.848932 123.33788 
L 87.115312 122.709138 
L 87.54152 120.919934 
L 88.500488 117.008654 
L 89.00661 116.108161 
L 90.391786 114.024582 
L 90.73808 112.775826 
L 91.084374 110.657454 
L 91.590496 105.812964 
L 91.963428 103.106379 
L 92.149894 102.84492 
L 92.283084 103.05852 
L 93.00231 104.934725 
L 93.055586 104.897707 
L 93.215414 104.543539 
L 93.481794 103.210585 
L 93.961278 100.806696 
L 94.041192 100.914952 
L 94.20102 101.730838 
L 94.627228 105.756239 
L 95.026798 108.431262 
L 95.373092 109.400462 
L 97.637322 114.12674 
L 99.049136 117.174882 
L 100.59414 120.003873 
L 102.05923 122.238862 
L 103.497682 124.039159 
L 104.98941 125.551559 
L 106.561052 126.829355 
L 108.292522 127.947328 
L 110.237096 128.932144 
L 112.474688 129.808192 
L 115.085212 130.584962 
L 118.228496 131.280618 
L 122.091006 131.898719 
L 126.939122 132.440187 
L 133.199052 132.905378 
L 139.778638 133.224406 
L 139.778638 133.224406 
" clip-path="url(#p3f70d58bfa)" style="fill: none; stroke: #ca9161; stroke-width: 1.5; stroke-linecap: square"/>
   </g>
   <g id="line2d_20">
    <path d="M 33.2 133.32033 
L 44.094942 133.228075 
L 44.281408 132.912777 
L 44.601064 131.931925 
L 44.894082 130.464038 
L 45.799774 124.114593 
L 46.279258 122.467346 
L 46.732104 121.622382 
L 47.18495 121.213357 
L 47.664434 121.07422 
L 48.25047 121.144818 
L 49.662284 121.438415 
L 49.902026 121.134863 
L 50.168406 120.326315 
L 50.567976 118.195593 
L 51.233926 113.533613 
L 51.473668 109.861306 
L 51.793324 100.462955 
L 52.059704 95.326694 
L 52.11298 95.257598 
L 52.139618 95.326688 
L 52.272808 96.465694 
L 53.125224 106.378173 
L 53.231776 106.412268 
L 53.258414 106.385548 
L 53.418242 105.991721 
L 53.684622 104.615972 
L 54.057554 102.870547 
L 54.137468 103.007266 
L 54.297296 103.937061 
L 55.123074 109.897189 
L 55.30954 110.011017 
L 55.469368 109.857928 
L 55.655834 109.319804 
L 56.10868 108.102279 
L 56.428336 107.829153 
L 56.721354 107.85459 
L 57.094286 108.134068 
L 57.600408 108.825328 
L 58.426186 110.388331 
L 60.157656 114.242804 
L 62.075592 118.330083 
L 63.514044 120.864411 
L 64.925858 122.907094 
L 65.458618 123.448255 
L 65.671722 123.322427 
L 65.991378 122.785752 
L 66.23112 121.911008 
L 67.003622 118.004434 
L 67.483106 116.79611 
L 68.122418 115.822009 
L 68.815006 114.72914 
L 69.241214 113.562847 
L 69.640784 111.741362 
L 70.066992 108.660257 
L 70.679666 104.218384 
L 70.812856 104.049493 
L 70.839494 104.063138 
L 70.972684 104.344627 
L 71.239064 105.655565 
L 71.984928 109.467359 
L 72.544326 111.038745 
L 73.55657 113.647563 
L 75.474506 119.256516 
L 76.140456 120.587648 
L 76.380198 120.614762 
L 76.646578 120.3767 
L 76.859682 119.831242 
L 77.792012 116.015013 
L 78.271496 115.174706 
L 78.830894 114.642731 
L 79.496844 114.322687 
L 80.056242 114.273633 
L 80.535726 114.457018 
L 81.041848 114.918966 
L 81.68116 115.848243 
L 82.826594 118.001192 
L 84.558064 121.139716 
L 85.916602 123.13155 
L 86.74238 124.053275 
L 86.928846 123.970665 
L 87.221864 123.516891 
L 87.461606 122.833493 
L 87.727986 121.245122 
L 88.260746 118.585351 
L 88.766868 117.17518 
L 89.459456 115.987547 
L 90.045492 114.846798 
L 90.418424 113.558286 
L 90.764718 111.42092 
L 91.084374 107.81929 
L 91.830238 96.837838 
L 91.883514 96.915447 
L 92.043342 97.791684 
L 92.576102 101.190559 
L 93.00231 102.139421 
L 93.26869 104.325 
L 93.881364 109.52257 
L 94.20102 110.486748 
L 96.46525 114.009655 
L 96.784906 114.104063 
L 97.424218 114.12701 
L 97.770512 114.50042 
L 98.756118 116.059059 
L 103.25794 123.165285 
L 104.72303 124.864646 
L 106.241396 126.286254 
L 107.866314 127.50335 
L 109.677698 128.578502 
L 111.728824 129.531597 
L 114.099606 130.381023 
L 116.869958 131.131094 
L 120.17307 131.788196 
L 124.16877 132.349237 
L 129.123438 132.812375 
L 135.516558 133.175357 
L 139.778638 133.325715 
L 139.778638 133.325715 
" clip-path="url(#p3f70d58bfa)" style="fill: none; stroke: #fbafe4; stroke-width: 1.5; stroke-linecap: square"/>
   </g>
   <g id="patch_6">
    <path d="M 33.2 136.093034 
L 33.2 85.658966 
" style="fill: none; stroke: #000000; stroke-width: 0.5; stroke-linejoin: miter; stroke-linecap: square"/>
   </g>
   <g id="patch_7">
    <path d="M 33.2 136.093034 
L 139.752 136.093034 
" style="fill: none; stroke: #000000; stroke-width: 0.5; stroke-linejoin: miter; stroke-linecap: square"/>
   </g>
  </g>
  <g id="axes_3">
   <g id="patch_8">
    <path d="M 33.2 215.272 
L 139.752 215.272 
L 139.752 164.837932 
L 33.2 164.837932 
z
" style="fill: #ffffff"/>
   </g>
   <g id="matplotlib.axis_5">
    <g id="xtick_11">
     <g id="line2d_21">
      <g>
       <use xlink:href="#m44568f2e14" x="43.8552" y="215.272" style="stroke: #000000; stroke-width: 0.8"/>
      </g>
     </g>
     <g id="text_21">
      <!-- 200 -->
      <g transform="translate(38.850356 226.566688) scale(0.06 -0.06)">
       <use xlink:href="#ArialMT-32"/>
       <use xlink:href="#ArialMT-30" x="55.615234"/>
       <use xlink:href="#ArialMT-30" x="111.230469"/>
      </g>
     </g>
    </g>
    <g id="xtick_12">
     <g id="line2d_22">
      <g>
       <use xlink:href="#m44568f2e14" x="65.1656" y="215.272" style="stroke: #000000; stroke-width: 0.8"/>
      </g>
     </g>
     <g id="text_22">
      <!-- 220 -->
      <g transform="translate(60.160756 226.566688) scale(0.06 -0.06)">
       <use xlink:href="#ArialMT-32"/>
       <use xlink:href="#ArialMT-32" x="55.615234"/>
       <use xlink:href="#ArialMT-30" x="111.230469"/>
      </g>
     </g>
    </g>
    <g id="xtick_13">
     <g id="line2d_23">
      <g>
       <use xlink:href="#m44568f2e14" x="86.476" y="215.272" style="stroke: #000000; stroke-width: 0.8"/>
      </g>
     </g>
     <g id="text_23">
      <!-- 240 -->
      <g transform="translate(81.471156 226.566688) scale(0.06 -0.06)">
       <use xlink:href="#ArialMT-32"/>
       <use xlink:href="#ArialMT-34" x="55.615234"/>
       <use xlink:href="#ArialMT-30" x="111.230469"/>
      </g>
     </g>
    </g>
    <g id="xtick_14">
     <g id="line2d_24">
      <g>
       <use xlink:href="#m44568f2e14" x="107.7864" y="215.272" style="stroke: #000000; stroke-width: 0.8"/>
      </g>
     </g>
     <g id="text_24">
      <!-- 260 -->
      <g transform="translate(102.781556 226.566688) scale(0.06 -0.06)">
       <use xlink:href="#ArialMT-32"/>
       <use xlink:href="#ArialMT-36" x="55.615234"/>
       <use xlink:href="#ArialMT-30" x="111.230469"/>
      </g>
     </g>
    </g>
    <g id="xtick_15">
     <g id="line2d_25">
      <g>
       <use xlink:href="#m44568f2e14" x="129.0968" y="215.272" style="stroke: #000000; stroke-width: 0.8"/>
      </g>
     </g>
     <g id="text_25">
      <!-- 280 -->
      <g transform="translate(124.091956 226.566688) scale(0.06 -0.06)">
       <use xlink:href="#ArialMT-32"/>
       <use xlink:href="#ArialMT-38" x="55.615234"/>
       <use xlink:href="#ArialMT-30" x="111.230469"/>
      </g>
     </g>
    </g>
    <g id="text_26">
     <!-- Time (ms) -->
     <g transform="translate(73.09225 236.127) scale(0.06 -0.06)">
      <use xlink:href="#ArialMT-54"/>
      <use xlink:href="#ArialMT-69" x="57.333984"/>
      <use xlink:href="#ArialMT-6d" x="79.550781"/>
      <use xlink:href="#ArialMT-65" x="162.851562"/>
      <use xlink:href="#ArialMT-20" x="218.466797"/>
      <use xlink:href="#ArialMT-28" x="246.25"/>
      <use xlink:href="#ArialMT-6d" x="279.550781"/>
      <use xlink:href="#ArialMT-73" x="362.851562"/>
      <use xlink:href="#ArialMT-29" x="412.851562"/>
     </g>
    </g>
   </g>
   <g id="matplotlib.axis_6">
    <g id="ytick_7">
     <g id="line2d_26">
      <g>
       <use xlink:href="#m04568e45a8" x="33.2" y="211.309774" style="stroke: #000000; stroke-width: 0.8"/>
      </g>
     </g>
     <g id="text_27">
      <!-- 0.1 -->
      <g transform="translate(17.86 213.457118) scale(0.06 -0.06)">
       <defs>
        <path id="ArialMT-2e" d="M 581 0 
L 581 641 
L 1222 641 
L 1222 0 
L 581 0 
z
" transform="scale(0.015625)"/>
       </defs>
       <use xlink:href="#ArialMT-30"/>
       <use xlink:href="#ArialMT-2e" x="55.615234"/>
       <use xlink:href="#ArialMT-31" x="83.398438"/>
      </g>
     </g>
    </g>
    <g id="ytick_8">
     <g id="line2d_27">
      <g>
       <use xlink:href="#m04568e45a8" x="33.2" y="196.408377" style="stroke: #000000; stroke-width: 0.8"/>
      </g>
     </g>
     <g id="text_28">
      <!-- 0.2 -->
      <g transform="translate(17.86 198.555721) scale(0.06 -0.06)">
       <use xlink:href="#ArialMT-30"/>
       <use xlink:href="#ArialMT-2e" x="55.615234"/>
       <use xlink:href="#ArialMT-32" x="83.398438"/>
      </g>
     </g>
    </g>
    <g id="ytick_9">
     <g id="line2d_28">
      <g>
       <use xlink:href="#m04568e45a8" x="33.2" y="181.50698" style="stroke: #000000; stroke-width: 0.8"/>
      </g>
     </g>
     <g id="text_29">
      <!-- 0.3 -->
      <g transform="translate(17.86 183.654324) scale(0.06 -0.06)">
       <defs>
        <path id="ArialMT-33" d="M 269 1209 
L 831 1284 
Q 928 806 1161 595 
Q 1394 384 1728 384 
Q 2125 384 2398 659 
Q 2672 934 2672 1341 
Q 2672 1728 2419 1979 
Q 2166 2231 1775 2231 
Q 1616 2231 1378 2169 
L 1441 2663 
Q 1497 2656 1531 2656 
Q 1891 2656 2178 2843 
Q 2466 3031 2466 3422 
Q 2466 3731 2256 3934 
Q 2047 4138 1716 4138 
Q 1388 4138 1169 3931 
Q 950 3725 888 3313 
L 325 3413 
Q 428 3978 793 4289 
Q 1159 4600 1703 4600 
Q 2078 4600 2393 4439 
Q 2709 4278 2876 4000 
Q 3044 3722 3044 3409 
Q 3044 3113 2884 2869 
Q 2725 2625 2413 2481 
Q 2819 2388 3044 2092 
Q 3269 1797 3269 1353 
Q 3269 753 2831 336 
Q 2394 -81 1725 -81 
Q 1122 -81 723 278 
Q 325 638 269 1209 
z
" transform="scale(0.015625)"/>
       </defs>
       <use xlink:href="#ArialMT-30"/>
       <use xlink:href="#ArialMT-2e" x="55.615234"/>
       <use xlink:href="#ArialMT-33" x="83.398438"/>
      </g>
     </g>
    </g>
    <g id="ytick_10">
     <g id="line2d_29">
      <g>
       <use xlink:href="#m04568e45a8" x="33.2" y="166.605584" style="stroke: #000000; stroke-width: 0.8"/>
      </g>
     </g>
     <g id="text_30">
      <!-- 0.4 -->
      <g transform="translate(17.86 168.752927) scale(0.06 -0.06)">
       <use xlink:href="#ArialMT-30"/>
       <use xlink:href="#ArialMT-2e" x="55.615234"/>
       <use xlink:href="#ArialMT-34" x="83.398438"/>
      </g>
     </g>
    </g>
    <g id="text_31">
     <!-- Synaptic weight (nS) -->
     <g transform="translate(12.597187 217.566372) rotate(-90) scale(0.06 -0.06)">
      <defs>
       <path id="ArialMT-53" d="M 288 1472 
L 859 1522 
Q 900 1178 1048 958 
Q 1197 738 1509 602 
Q 1822 466 2213 466 
Q 2559 466 2825 569 
Q 3091 672 3220 851 
Q 3350 1031 3350 1244 
Q 3350 1459 3225 1620 
Q 3100 1781 2813 1891 
Q 2628 1963 1997 2114 
Q 1366 2266 1113 2400 
Q 784 2572 623 2826 
Q 463 3081 463 3397 
Q 463 3744 659 4045 
Q 856 4347 1234 4503 
Q 1613 4659 2075 4659 
Q 2584 4659 2973 4495 
Q 3363 4331 3572 4012 
Q 3781 3694 3797 3291 
L 3216 3247 
Q 3169 3681 2898 3903 
Q 2628 4125 2100 4125 
Q 1550 4125 1298 3923 
Q 1047 3722 1047 3438 
Q 1047 3191 1225 3031 
Q 1400 2872 2139 2705 
Q 2878 2538 3153 2413 
Q 3553 2228 3743 1945 
Q 3934 1663 3934 1294 
Q 3934 928 3725 604 
Q 3516 281 3123 101 
Q 2731 -78 2241 -78 
Q 1619 -78 1198 103 
Q 778 284 539 648 
Q 300 1013 288 1472 
z
" transform="scale(0.015625)"/>
       <path id="ArialMT-79" d="M 397 -1278 
L 334 -750 
Q 519 -800 656 -800 
Q 844 -800 956 -737 
Q 1069 -675 1141 -563 
Q 1194 -478 1313 -144 
Q 1328 -97 1363 -6 
L 103 3319 
L 709 3319 
L 1400 1397 
Q 1534 1031 1641 628 
Q 1738 1016 1872 1384 
L 2581 3319 
L 3144 3319 
L 1881 -56 
Q 1678 -603 1566 -809 
Q 1416 -1088 1222 -1217 
Q 1028 -1347 759 -1347 
Q 597 -1347 397 -1278 
z
" transform="scale(0.015625)"/>
       <path id="ArialMT-63" d="M 2588 1216 
L 3141 1144 
Q 3050 572 2676 248 
Q 2303 -75 1759 -75 
Q 1078 -75 664 370 
Q 250 816 250 1647 
Q 250 2184 428 2587 
Q 606 2991 970 3192 
Q 1334 3394 1763 3394 
Q 2303 3394 2647 3120 
Q 2991 2847 3088 2344 
L 2541 2259 
Q 2463 2594 2264 2762 
Q 2066 2931 1784 2931 
Q 1359 2931 1093 2626 
Q 828 2322 828 1663 
Q 828 994 1084 691 
Q 1341 388 1753 388 
Q 2084 388 2306 591 
Q 2528 794 2588 1216 
z
" transform="scale(0.015625)"/>
       <path id="ArialMT-77" d="M 1034 0 
L 19 3319 
L 600 3319 
L 1128 1403 
L 1325 691 
Q 1338 744 1497 1375 
L 2025 3319 
L 2603 3319 
L 3100 1394 
L 3266 759 
L 3456 1400 
L 4025 3319 
L 4572 3319 
L 3534 0 
L 2950 0 
L 2422 1988 
L 2294 2553 
L 1622 0 
L 1034 0 
z
" transform="scale(0.015625)"/>
       <path id="ArialMT-68" d="M 422 0 
L 422 4581 
L 984 4581 
L 984 2938 
Q 1378 3394 1978 3394 
Q 2347 3394 2619 3248 
Q 2891 3103 3008 2847 
Q 3125 2591 3125 2103 
L 3125 0 
L 2563 0 
L 2563 2103 
Q 2563 2525 2380 2717 
Q 2197 2909 1863 2909 
Q 1613 2909 1392 2779 
Q 1172 2650 1078 2428 
Q 984 2206 984 1816 
L 984 0 
L 422 0 
z
" transform="scale(0.015625)"/>
      </defs>
      <use xlink:href="#ArialMT-53"/>
      <use xlink:href="#ArialMT-79" x="66.699219"/>
      <use xlink:href="#ArialMT-6e" x="116.699219"/>
      <use xlink:href="#ArialMT-61" x="172.314453"/>
      <use xlink:href="#ArialMT-70" x="227.929688"/>
      <use xlink:href="#ArialMT-74" x="283.544922"/>
      <use xlink:href="#ArialMT-69" x="311.328125"/>
      <use xlink:href="#ArialMT-63" x="333.544922"/>
      <use xlink:href="#ArialMT-20" x="383.544922"/>
      <use xlink:href="#ArialMT-77" x="411.328125"/>
      <use xlink:href="#ArialMT-65" x="483.544922"/>
      <use xlink:href="#ArialMT-69" x="539.160156"/>
      <use xlink:href="#ArialMT-67" x="561.376953"/>
      <use xlink:href="#ArialMT-68" x="616.992188"/>
      <use xlink:href="#ArialMT-74" x="672.607422"/>
      <use xlink:href="#ArialMT-20" x="700.390625"/>
      <use xlink:href="#ArialMT-28" x="728.173828"/>
      <use xlink:href="#ArialMT-6e" x="761.474609"/>
      <use xlink:href="#ArialMT-53" x="817.089844"/>
      <use xlink:href="#ArialMT-29" x="883.789062"/>
     </g>
    </g>
   </g>
   <g id="line2d_30">
    <path d="M 32.13448 195.609728 
L 33.2 195.609728 
L 34.26552 195.609728 
L 35.33104 195.609728 
L 36.39656 195.609728 
L 37.46208 195.609728 
L 38.5276 195.609728 
L 39.59312 195.609728 
L 40.65864 195.609728 
L 41.72416 195.609728 
L 42.78968 195.609728 
L 43.8552 195.609728 
L 44.92072 195.609728 
L 45.98624 195.609728 
L 47.05176 195.609728 
L 48.11728 195.609728 
L 49.1828 195.609728 
L 50.24832 195.609728 
L 51.31384 195.609728 
L 52.37936 195.609728 
L 53.44488 195.609728 
L 54.5104 195.609728 
L 55.57592 195.609728 
L 56.64144 195.609728 
L 57.70696 195.609728 
L 58.77248 195.609728 
L 59.838 195.272165 
L 60.90352 195.272165 
L 61.96904 195.272165 
L 63.03456 195.272165 
L 64.10008 195.272165 
L 65.1656 195.272165 
L 66.23112 195.272165 
L 67.29664 195.272165 
L 68.36216 195.272165 
L 69.42768 195.272165 
L 70.4932 195.272165 
L 71.55872 195.272165 
L 72.62424 195.272165 
L 73.68976 195.272165 
L 74.75528 195.272165 
L 75.8208 195.272165 
L 76.88632 195.272165 
L 77.95184 195.272165 
L 79.01736 195.272165 
L 80.08288 195.272165 
L 81.1484 195.272165 
L 82.21392 195.272165 
L 83.27944 195.272165 
L 84.34496 195.272165 
L 85.41048 195.272165 
L 86.476 195.272165 
L 87.54152 195.272165 
L 88.60704 195.272165 
L 89.67256 195.272165 
L 90.73808 195.272165 
L 91.8036 195.272165 
L 92.86912 195.272165 
L 93.93464 195.272165 
L 95.00016 195.272165 
L 96.06568 195.272165 
L 97.1312 195.272165 
L 98.19672 195.272165 
L 99.26224 195.272165 
L 100.32776 195.272165 
L 101.39328 195.272165 
L 102.4588 195.272165 
L 103.52432 195.272165 
L 104.58984 195.272165 
L 105.65536 195.272165 
L 106.72088 195.272165 
L 107.7864 195.272165 
L 108.85192 195.272165 
L 109.91744 195.272165 
L 110.98296 195.272165 
L 112.04848 195.272165 
L 113.114 195.272165 
L 114.17952 195.272165 
L 115.24504 195.272165 
L 116.31056 195.272165 
L 117.37608 195.272165 
L 118.4416 195.272165 
L 119.50712 195.272165 
L 120.57264 195.272165 
L 121.63816 195.272165 
L 122.70368 195.272165 
L 123.7692 195.272165 
L 124.83472 195.272165 
L 125.90024 195.272165 
L 126.96576 195.272165 
L 128.03128 195.272165 
L 129.0968 195.272165 
L 130.16232 195.272165 
L 131.22784 195.272165 
L 132.29336 195.272165 
L 133.35888 195.272165 
L 134.4244 195.272165 
L 135.48992 195.272165 
L 136.55544 195.272165 
L 137.62096 195.272165 
L 138.68648 195.272165 
L 139.752 195.272165 
L 140.81752 195.272165 
" clip-path="url(#p3c865e79a9)" style="fill: none; stroke: #d55e00; stroke-width: 1.5; stroke-linecap: square"/>
   </g>
   <g id="line2d_31">
    <path d="M 32.13448 212.979542 
L 33.2 212.979542 
L 34.26552 212.979542 
L 35.33104 212.979542 
L 36.39656 212.979542 
L 37.46208 212.979542 
L 38.5276 212.979542 
L 39.59312 212.979542 
L 40.65864 212.979542 
L 41.72416 212.979542 
L 42.78968 212.979542 
L 43.8552 212.979542 
L 44.92072 212.979542 
L 45.98624 212.979542 
L 47.05176 212.979542 
L 48.11728 212.979542 
L 49.1828 212.979542 
L 50.24832 212.979542 
L 51.31384 212.979542 
L 52.37936 212.979542 
L 53.44488 212.979542 
L 54.5104 212.979542 
L 55.57592 212.979542 
L 56.64144 212.979542 
L 57.70696 212.979542 
L 58.77248 212.834797 
L 59.838 212.834797 
L 60.90352 212.834797 
L 61.96904 212.834797 
L 63.03456 212.834797 
L 64.10008 212.834797 
L 65.1656 212.834797 
L 66.23112 212.845084 
L 67.29664 212.845084 
L 68.36216 212.845084 
L 69.42768 212.845084 
L 70.4932 212.845084 
L 71.55872 212.845084 
L 72.62424 212.845084 
L 73.68976 212.845084 
L 74.75528 212.845084 
L 75.8208 212.845084 
L 76.88632 212.850361 
L 77.95184 212.850361 
L 79.01736 212.850361 
L 80.08288 212.850361 
L 81.1484 212.714107 
L 82.21392 212.714107 
L 83.27944 212.714107 
L 84.34496 212.714107 
L 85.41048 212.714107 
L 86.476 212.714107 
L 87.54152 212.725238 
L 88.60704 212.725238 
L 89.67256 212.725238 
L 90.73808 212.725238 
L 91.8036 212.725238 
L 92.86912 212.725238 
L 93.93464 212.725238 
L 95.00016 212.725238 
L 96.06568 212.725238 
L 97.1312 212.725238 
L 98.19672 212.725238 
L 99.26224 212.725238 
L 100.32776 212.725238 
L 101.39328 212.725238 
L 102.4588 212.725238 
L 103.52432 212.725238 
L 104.58984 212.725238 
L 105.65536 212.725238 
L 106.72088 212.725238 
L 107.7864 212.725238 
L 108.85192 212.725238 
L 109.91744 212.725238 
L 110.98296 212.725238 
L 112.04848 212.725238 
L 113.114 212.725238 
L 114.17952 212.725238 
L 115.24504 212.725238 
L 116.31056 212.725238 
L 117.37608 212.725238 
L 118.4416 212.725238 
L 119.50712 212.725238 
L 120.57264 212.725238 
L 121.63816 212.725238 
L 122.70368 212.725238 
L 123.7692 212.725238 
L 124.83472 212.725238 
L 125.90024 212.725238 
L 126.96576 212.725238 
L 128.03128 212.725238 
L 129.0968 212.725238 
L 130.16232 212.725238 
L 131.22784 212.725238 
L 132.29336 212.725238 
L 133.35888 212.725238 
L 134.4244 212.725238 
L 135.48992 212.725238 
L 136.55544 212.725238 
L 137.62096 212.725238 
L 138.68648 212.725238 
L 139.752 212.725238 
L 140.81752 212.725238 
" clip-path="url(#p3c865e79a9)" style="fill: none; stroke: #cc78bc; stroke-width: 1.5; stroke-linecap: square"/>
   </g>
   <g id="line2d_32">
    <path d="M 32.13448 187.397897 
L 33.2 187.397897 
L 34.26552 187.397897 
L 35.33104 187.397897 
L 36.39656 187.397897 
L 37.46208 187.397897 
L 38.5276 187.397897 
L 39.59312 187.397897 
L 40.65864 187.397897 
L 41.72416 187.397897 
L 42.78968 187.397897 
L 43.8552 187.397897 
L 44.92072 187.397897 
L 45.98624 187.397897 
L 47.05176 187.397897 
L 48.11728 187.397897 
L 49.1828 187.397897 
L 50.24832 187.397897 
L 51.31384 187.397897 
L 52.37936 187.397897 
L 53.44488 187.397897 
L 54.5104 187.397897 
L 55.57592 187.397897 
L 56.64144 186.901316 
L 57.70696 186.901316 
L 58.77248 186.901316 
L 59.838 186.901316 
L 60.90352 186.901316 
L 61.96904 186.901316 
L 63.03456 186.901316 
L 64.10008 186.901316 
L 65.1656 186.901316 
L 66.23112 186.927174 
L 67.29664 186.927174 
L 68.36216 186.927174 
L 69.42768 186.927174 
L 70.4932 186.660531 
L 71.55872 186.660531 
L 72.62424 186.660531 
L 73.68976 186.660531 
L 74.75528 186.660531 
L 75.8208 186.660531 
L 76.88632 186.692841 
L 77.95184 186.692841 
L 79.01736 186.692841 
L 80.08288 186.692841 
L 81.1484 186.692841 
L 82.21392 186.692841 
L 83.27944 186.692841 
L 84.34496 186.692841 
L 85.41048 186.692841 
L 86.476 186.692841 
L 87.54152 186.709415 
L 88.60704 186.709415 
L 89.67256 186.709415 
L 90.73808 186.709415 
L 91.8036 186.307431 
L 92.86912 186.307431 
L 93.93464 186.307431 
L 95.00016 186.307431 
L 96.06568 186.307431 
L 97.1312 186.307431 
L 98.19672 186.307431 
L 99.26224 186.307431 
L 100.32776 186.307431 
L 101.39328 186.307431 
L 102.4588 186.307431 
L 103.52432 186.307431 
L 104.58984 186.307431 
L 105.65536 186.307431 
L 106.72088 186.307431 
L 107.7864 186.307431 
L 108.85192 186.307431 
L 109.91744 186.307431 
L 110.98296 186.307431 
L 112.04848 186.307431 
L 113.114 186.307431 
L 114.17952 186.307431 
L 115.24504 186.307431 
L 116.31056 186.307431 
L 117.37608 186.307431 
L 118.4416 186.307431 
L 119.50712 186.307431 
L 120.57264 186.307431 
L 121.63816 186.307431 
L 122.70368 186.307431 
L 123.7692 186.307431 
L 124.83472 186.307431 
L 125.90024 186.307431 
L 126.96576 186.307431 
L 128.03128 186.307431 
L 129.0968 186.307431 
L 130.16232 186.307431 
L 131.22784 186.307431 
L 132.29336 186.307431 
L 133.35888 186.307431 
L 134.4244 186.307431 
L 135.48992 186.307431 
L 136.55544 186.307431 
L 137.62096 186.307431 
L 138.68648 186.307431 
L 139.752 186.307431 
L 140.81752 186.307431 
" clip-path="url(#p3c865e79a9)" style="fill: none; stroke: #ca9161; stroke-width: 1.5; stroke-linecap: square"/>
   </g>
   <g id="line2d_33">
    <path d="M 32.13448 205.086018 
L 33.2 205.086018 
L 34.26552 205.086018 
L 35.33104 205.086018 
L 36.39656 205.086018 
L 37.46208 205.086018 
L 38.5276 205.086018 
L 39.59312 205.086018 
L 40.65864 205.086018 
L 41.72416 205.086018 
L 42.78968 205.086018 
L 43.8552 205.086018 
L 44.92072 205.086018 
L 45.98624 205.086018 
L 47.05176 205.086018 
L 48.11728 205.086018 
L 49.1828 205.086018 
L 50.24832 205.086018 
L 51.31384 205.086018 
L 52.37936 204.965362 
L 53.44488 204.965362 
L 54.5104 204.965362 
L 55.57592 204.98854 
L 56.64144 204.98854 
L 57.70696 204.98854 
L 58.77248 204.98854 
L 59.838 204.98854 
L 60.90352 204.98854 
L 61.96904 204.98854 
L 63.03456 204.98854 
L 64.10008 204.98854 
L 65.1656 204.98854 
L 66.23112 205.000427 
L 67.29664 205.000427 
L 68.36216 205.000427 
L 69.42768 205.000427 
L 70.4932 204.7837 
L 71.55872 204.7837 
L 72.62424 204.7837 
L 73.68976 204.7837 
L 74.75528 204.7837 
L 75.8208 204.7837 
L 76.88632 204.801338 
L 77.95184 204.801338 
L 79.01736 204.801338 
L 80.08288 204.801338 
L 81.1484 204.801338 
L 82.21392 204.801338 
L 83.27944 204.801338 
L 84.34496 204.801338 
L 85.41048 204.801338 
L 86.476 204.801338 
L 87.54152 204.810387 
L 88.60704 204.810387 
L 89.67256 204.810387 
L 90.73808 204.810387 
L 91.8036 204.585794 
L 92.86912 204.585794 
L 93.93464 204.585794 
L 95.00016 204.585794 
L 96.06568 204.585794 
L 97.1312 204.585794 
L 98.19672 204.585794 
L 99.26224 204.585794 
L 100.32776 204.585794 
L 101.39328 204.585794 
L 102.4588 204.585794 
L 103.52432 204.585794 
L 104.58984 204.585794 
L 105.65536 204.585794 
L 106.72088 204.585794 
L 107.7864 204.585794 
L 108.85192 204.585794 
L 109.91744 204.585794 
L 110.98296 204.585794 
L 112.04848 204.585794 
L 113.114 204.585794 
L 114.17952 204.585794 
L 115.24504 204.585794 
L 116.31056 204.585794 
L 117.37608 204.585794 
L 118.4416 204.585794 
L 119.50712 204.585794 
L 120.57264 204.585794 
L 121.63816 204.585794 
L 122.70368 204.585794 
L 123.7692 204.585794 
L 124.83472 204.585794 
L 125.90024 204.585794 
L 126.96576 204.585794 
L 128.03128 204.585794 
L 129.0968 204.585794 
L 130.16232 204.585794 
L 131.22784 204.585794 
L 132.29336 204.585794 
L 133.35888 204.585794 
L 134.4244 204.585794 
L 135.48992 204.585794 
L 136.55544 204.585794 
L 137.62096 204.585794 
L 138.68648 204.585794 
L 139.752 204.585794 
L 140.81752 204.585794 
" clip-path="url(#p3c865e79a9)" style="fill: none; stroke: #fbafe4; stroke-width: 1.5; stroke-linecap: square"/>
   </g>
   <g id="patch_9">
    <path d="M 33.2 215.272 
L 33.2 164.837932 
" style="fill: none; stroke: #000000; stroke-width: 0.5; stroke-linejoin: miter; stroke-linecap: square"/>
   </g>
   <g id="patch_10">
    <path d="M 33.2 215.272 
L 139.752 215.272 
" style="fill: none; stroke: #000000; stroke-width: 0.5; stroke-linejoin: miter; stroke-linecap: square"/>
   </g>
   <g id="legend_1">
    <g id="patch_11">
     <path d="M 83.917 190.865432 
L 136.952 190.865432 
Q 137.752 190.865432 137.752 190.065432 
L 137.752 167.637932 
Q 137.752 166.837932 136.952 166.837932 
L 83.917 166.837932 
Q 83.117 166.837932 83.117 167.637932 
L 83.117 190.065432 
Q 83.117 190.865432 83.917 190.865432 
z
" style="fill: #ffffff; opacity: 0.8; stroke: #cccccc; stroke-linejoin: miter"/>
    </g>
    <g id="line2d_34">
     <path d="M 84.717 169.949807 
L 88.717 169.949807 
L 92.717 169.949807 
" style="fill: none; stroke: #d55e00; stroke-width: 1.5; stroke-linecap: square"/>
    </g>
    <g id="text_32">
     <!-- 2stim_3xTBS -->
     <g transform="translate(95.917 171.349807) scale(0.04 -0.04)">
      <defs>
       <path id="ArialMT-5f" d="M -97 -1272 
L -97 -866 
L 3631 -866 
L 3631 -1272 
L -97 -1272 
z
" transform="scale(0.015625)"/>
       <path id="ArialMT-78" d="M 47 0 
L 1259 1725 
L 138 3319 
L 841 3319 
L 1350 2541 
Q 1494 2319 1581 2169 
Q 1719 2375 1834 2534 
L 2394 3319 
L 3066 3319 
L 1919 1756 
L 3153 0 
L 2463 0 
L 1781 1031 
L 1600 1309 
L 728 0 
L 47 0 
z
" transform="scale(0.015625)"/>
       <path id="ArialMT-42" d="M 469 0 
L 469 4581 
L 2188 4581 
Q 2713 4581 3030 4442 
Q 3347 4303 3526 4014 
Q 3706 3725 3706 3409 
Q 3706 3116 3547 2856 
Q 3388 2597 3066 2438 
Q 3481 2316 3704 2022 
Q 3928 1728 3928 1328 
Q 3928 1006 3792 729 
Q 3656 453 3456 303 
Q 3256 153 2954 76 
Q 2653 0 2216 0 
L 469 0 
z
M 1075 2656 
L 2066 2656 
Q 2469 2656 2644 2709 
Q 2875 2778 2992 2937 
Q 3109 3097 3109 3338 
Q 3109 3566 3000 3739 
Q 2891 3913 2687 3977 
Q 2484 4041 1991 4041 
L 1075 4041 
L 1075 2656 
z
M 1075 541 
L 2216 541 
Q 2509 541 2628 563 
Q 2838 600 2978 687 
Q 3119 775 3209 942 
Q 3300 1109 3300 1328 
Q 3300 1584 3169 1773 
Q 3038 1963 2805 2039 
Q 2572 2116 2134 2116 
L 1075 2116 
L 1075 541 
z
" transform="scale(0.015625)"/>
      </defs>
      <use xlink:href="#ArialMT-32"/>
      <use xlink:href="#ArialMT-73" x="55.615234"/>
      <use xlink:href="#ArialMT-74" x="105.615234"/>
      <use xlink:href="#ArialMT-69" x="133.398438"/>
      <use xlink:href="#ArialMT-6d" x="155.615234"/>
      <use xlink:href="#ArialMT-5f" x="238.916016"/>
      <use xlink:href="#ArialMT-33" x="294.53125"/>
      <use xlink:href="#ArialMT-78" x="350.146484"/>
      <use xlink:href="#ArialMT-54" x="400.146484"/>
      <use xlink:href="#ArialMT-42" x="461.230469"/>
      <use xlink:href="#ArialMT-53" x="527.929688"/>
     </g>
    </g>
    <g id="line2d_35">
     <path d="M 84.717 175.656682 
L 88.717 175.656682 
L 92.717 175.656682 
" style="fill: none; stroke: #cc78bc; stroke-width: 1.5; stroke-linecap: square"/>
    </g>
    <g id="text_33">
     <!-- 5stim_3xTBS -->
     <g transform="translate(95.917 177.056682) scale(0.04 -0.04)">
      <defs>
       <path id="ArialMT-35" d="M 266 1200 
L 856 1250 
Q 922 819 1161 601 
Q 1400 384 1738 384 
Q 2144 384 2425 690 
Q 2706 997 2706 1503 
Q 2706 1984 2436 2262 
Q 2166 2541 1728 2541 
Q 1456 2541 1237 2417 
Q 1019 2294 894 2097 
L 366 2166 
L 809 4519 
L 3088 4519 
L 3088 3981 
L 1259 3981 
L 1013 2750 
Q 1425 3038 1878 3038 
Q 2478 3038 2890 2622 
Q 3303 2206 3303 1553 
Q 3303 931 2941 478 
Q 2500 -78 1738 -78 
Q 1113 -78 717 272 
Q 322 622 266 1200 
z
" transform="scale(0.015625)"/>
      </defs>
      <use xlink:href="#ArialMT-35"/>
      <use xlink:href="#ArialMT-73" x="55.615234"/>
      <use xlink:href="#ArialMT-74" x="105.615234"/>
      <use xlink:href="#ArialMT-69" x="133.398438"/>
      <use xlink:href="#ArialMT-6d" x="155.615234"/>
      <use xlink:href="#ArialMT-5f" x="238.916016"/>
      <use xlink:href="#ArialMT-33" x="294.53125"/>
      <use xlink:href="#ArialMT-78" x="350.146484"/>
      <use xlink:href="#ArialMT-54" x="400.146484"/>
      <use xlink:href="#ArialMT-42" x="461.230469"/>
      <use xlink:href="#ArialMT-53" x="527.929688"/>
     </g>
    </g>
    <g id="line2d_36">
     <path d="M 84.717 181.363557 
L 88.717 181.363557 
L 92.717 181.363557 
" style="fill: none; stroke: #ca9161; stroke-width: 1.5; stroke-linecap: square"/>
    </g>
    <g id="text_34">
     <!-- 5stim_3xTBS_IClamp -->
     <g transform="translate(95.917 182.763557) scale(0.04 -0.04)">
      <defs>
       <path id="ArialMT-43" d="M 3763 1606 
L 4369 1453 
Q 4178 706 3683 314 
Q 3188 -78 2472 -78 
Q 1731 -78 1267 223 
Q 803 525 561 1097 
Q 319 1669 319 2325 
Q 319 3041 592 3573 
Q 866 4106 1370 4382 
Q 1875 4659 2481 4659 
Q 3169 4659 3637 4309 
Q 4106 3959 4291 3325 
L 3694 3184 
Q 3534 3684 3231 3912 
Q 2928 4141 2469 4141 
Q 1941 4141 1586 3887 
Q 1231 3634 1087 3207 
Q 944 2781 944 2328 
Q 944 1744 1114 1308 
Q 1284 872 1643 656 
Q 2003 441 2422 441 
Q 2931 441 3284 734 
Q 3638 1028 3763 1606 
z
" transform="scale(0.015625)"/>
      </defs>
      <use xlink:href="#ArialMT-35"/>
      <use xlink:href="#ArialMT-73" x="55.615234"/>
      <use xlink:href="#ArialMT-74" x="105.615234"/>
      <use xlink:href="#ArialMT-69" x="133.398438"/>
      <use xlink:href="#ArialMT-6d" x="155.615234"/>
      <use xlink:href="#ArialMT-5f" x="238.916016"/>
      <use xlink:href="#ArialMT-33" x="294.53125"/>
      <use xlink:href="#ArialMT-78" x="350.146484"/>
      <use xlink:href="#ArialMT-54" x="400.146484"/>
      <use xlink:href="#ArialMT-42" x="461.230469"/>
      <use xlink:href="#ArialMT-53" x="527.929688"/>
      <use xlink:href="#ArialMT-5f" x="594.628906"/>
      <use xlink:href="#ArialMT-49" x="650.244141"/>
      <use xlink:href="#ArialMT-43" x="678.027344"/>
      <use xlink:href="#ArialMT-6c" x="750.244141"/>
      <use xlink:href="#ArialMT-61" x="772.460938"/>
      <use xlink:href="#ArialMT-6d" x="828.076172"/>
      <use xlink:href="#ArialMT-70" x="911.376953"/>
     </g>
    </g>
    <g id="line2d_37">
     <path d="M 84.717 187.070432 
L 88.717 187.070432 
L 92.717 187.070432 
" style="fill: none; stroke: #fbafe4; stroke-width: 1.5; stroke-linecap: square"/>
    </g>
    <g id="text_35">
     <!-- 5stim_3xTBS_VClamp -->
     <g transform="translate(95.917 188.470432) scale(0.04 -0.04)">
      <use xlink:href="#ArialMT-35"/>
      <use xlink:href="#ArialMT-73" x="55.615234"/>
      <use xlink:href="#ArialMT-74" x="105.615234"/>
      <use xlink:href="#ArialMT-69" x="133.398438"/>
      <use xlink:href="#ArialMT-6d" x="155.615234"/>
      <use xlink:href="#ArialMT-5f" x="238.916016"/>
      <use xlink:href="#ArialMT-33" x="294.53125"/>
      <use xlink:href="#ArialMT-78" x="350.146484"/>
      <use xlink:href="#ArialMT-54" x="400.146484"/>
      <use xlink:href="#ArialMT-42" x="461.230469"/>
      <use xlink:href="#ArialMT-53" x="527.929688"/>
      <use xlink:href="#ArialMT-5f" x="594.628906"/>
      <use xlink:href="#ArialMT-56" x="650.244141"/>
      <use xlink:href="#ArialMT-43" x="716.943359"/>
      <use xlink:href="#ArialMT-6c" x="789.160156"/>
      <use xlink:href="#ArialMT-61" x="811.376953"/>
      <use xlink:href="#ArialMT-6d" x="866.992188"/>
      <use xlink:href="#ArialMT-70" x="950.292969"/>
     </g>
    </g>
   </g>
  </g>
 </g>
 <defs>
  <clipPath id="pf10b687dd5">
   <rect x="33.2" y="6.48" width="106.552" height="50.434068"/>
  </clipPath>
  <clipPath id="p3f70d58bfa">
   <rect x="33.2" y="85.658966" width="106.552" height="50.434068"/>
  </clipPath>
  <clipPath id="p3c865e79a9">
   <rect x="33.2" y="164.837932" width="106.552" height="50.434068"/>
  </clipPath>
 </defs>
</svg>
