<?xml version="1.0" encoding="utf-8" standalone="no"?>
<!DOCTYPE svg PUBLIC "-//W3C//DTD SVG 1.1//EN"
  "http://www.w3.org/Graphics/SVG/1.1/DTD/svg11.dtd">
<svg xmlns:xlink="http://www.w3.org/1999/xlink" width="300.24pt" height="126pt" viewBox="0 0 300.24 126" xmlns="http://www.w3.org/2000/svg" version="1.1">
 <metadata>
  <rdf:RDF xmlns:dc="http://purl.org/dc/elements/1.1/" xmlns:cc="http://creativecommons.org/ns#" xmlns:rdf="http://www.w3.org/1999/02/22-rdf-syntax-ns#">
   <cc:Work>
    <dc:type rdf:resource="http://purl.org/dc/dcmitype/StillImage"/>
    <dc:date>2023-08-08T15:09:37.518216</dc:date>
    <dc:format>image/svg+xml</dc:format>
    <dc:creator>
     <cc:Agent>
      <dc:title>Matplotlib v3.5.3, https://matplotlib.org/</dc:title>
     </cc:Agent>
    </dc:creator>
   </cc:Work>
  </rdf:RDF>
 </metadata>
 <defs>
  <style type="text/css">*{stroke-linejoin: round; stroke-linecap: butt}</style>
 </defs>
 <g id="figure_1">
  <g id="patch_1">
   <path d="M 0 126 
L 300.24 126 
L 300.24 0 
L 0 0 
z
" style="fill: #ffffff"/>
  </g>
  <g id="axes_1">
   <g id="patch_2">
    <path d="M 34.67 42.48 
L 293.76 42.48 
L 293.76 6.48 
L 34.67 6.48 
z
" style="fill: #ffffff"/>
   </g>
   <g id="matplotlib.axis_1">
    <g id="xtick_1">
     <g id="line2d_1">
      <defs>
       <path id="m5eb870fdc1" d="M 0 0 
L 0 3.5 
" style="stroke: #000000; stroke-width: 0.8"/>
      </defs>
      <g>
       <use xlink:href="#m5eb870fdc1" x="42.072571" y="42.48" style="stroke: #000000; stroke-width: 0.8"/>
      </g>
     </g>
     <g id="text_1">
      <!-- 12000 -->
      <g transform="translate(33.731165 53.774687)scale(0.06 -0.06)">
       <defs>
        <path id="ArialMT-31" d="M 2384 0 
L 1822 0 
L 1822 3584 
Q 1619 3391 1289 3197 
Q 959 3003 697 2906 
L 697 3450 
Q 1169 3672 1522 3987 
Q 1875 4303 2022 4600 
L 2384 4600 
L 2384 0 
z
" transform="scale(0.015625)"/>
        <path id="ArialMT-32" d="M 3222 541 
L 3222 0 
L 194 0 
Q 188 203 259 391 
Q 375 700 629 1000 
Q 884 1300 1366 1694 
Q 2113 2306 2375 2664 
Q 2638 3022 2638 3341 
Q 2638 3675 2398 3904 
Q 2159 4134 1775 4134 
Q 1369 4134 1125 3890 
Q 881 3647 878 3216 
L 300 3275 
Q 359 3922 746 4261 
Q 1134 4600 1788 4600 
Q 2447 4600 2831 4234 
Q 3216 3869 3216 3328 
Q 3216 3053 3103 2787 
Q 2991 2522 2730 2228 
Q 2469 1934 1863 1422 
Q 1356 997 1212 845 
Q 1069 694 975 541 
L 3222 541 
z
" transform="scale(0.015625)"/>
        <path id="ArialMT-30" d="M 266 2259 
Q 266 3072 433 3567 
Q 600 4063 929 4331 
Q 1259 4600 1759 4600 
Q 2128 4600 2406 4451 
Q 2684 4303 2865 4023 
Q 3047 3744 3150 3342 
Q 3253 2941 3253 2259 
Q 3253 1453 3087 958 
Q 2922 463 2592 192 
Q 2263 -78 1759 -78 
Q 1097 -78 719 397 
Q 266 969 266 2259 
z
M 844 2259 
Q 844 1131 1108 757 
Q 1372 384 1759 384 
Q 2147 384 2411 759 
Q 2675 1134 2675 2259 
Q 2675 3391 2411 3762 
Q 2147 4134 1753 4134 
Q 1366 4134 1134 3806 
Q 844 3388 844 2259 
z
" transform="scale(0.015625)"/>
       </defs>
       <use xlink:href="#ArialMT-31"/>
       <use xlink:href="#ArialMT-32" x="55.615234"/>
       <use xlink:href="#ArialMT-30" x="111.230469"/>
       <use xlink:href="#ArialMT-30" x="166.845703"/>
       <use xlink:href="#ArialMT-30" x="222.460938"/>
      </g>
     </g>
    </g>
    <g id="xtick_2">
     <g id="line2d_2">
      <g>
       <use xlink:href="#m5eb870fdc1" x="71.682857" y="42.48" style="stroke: #000000; stroke-width: 0.8"/>
      </g>
     </g>
     <g id="text_2">
      <!-- 14000 -->
      <g transform="translate(63.341451 53.774687)scale(0.06 -0.06)">
       <defs>
        <path id="ArialMT-34" d="M 2069 0 
L 2069 1097 
L 81 1097 
L 81 1613 
L 2172 4581 
L 2631 4581 
L 2631 1613 
L 3250 1613 
L 3250 1097 
L 2631 1097 
L 2631 0 
L 2069 0 
z
M 2069 1613 
L 2069 3678 
L 634 1613 
L 2069 1613 
z
" transform="scale(0.015625)"/>
       </defs>
       <use xlink:href="#ArialMT-31"/>
       <use xlink:href="#ArialMT-34" x="55.615234"/>
       <use xlink:href="#ArialMT-30" x="111.230469"/>
       <use xlink:href="#ArialMT-30" x="166.845703"/>
       <use xlink:href="#ArialMT-30" x="222.460938"/>
      </g>
     </g>
    </g>
    <g id="xtick_3">
     <g id="line2d_3">
      <g>
       <use xlink:href="#m5eb870fdc1" x="101.293143" y="42.48" style="stroke: #000000; stroke-width: 0.8"/>
      </g>
     </g>
     <g id="text_3">
      <!-- 16000 -->
      <g transform="translate(92.951737 53.774687)scale(0.06 -0.06)">
       <defs>
        <path id="ArialMT-36" d="M 3184 3459 
L 2625 3416 
Q 2550 3747 2413 3897 
Q 2184 4138 1850 4138 
Q 1581 4138 1378 3988 
Q 1113 3794 959 3422 
Q 806 3050 800 2363 
Q 1003 2672 1297 2822 
Q 1591 2972 1913 2972 
Q 2475 2972 2870 2558 
Q 3266 2144 3266 1488 
Q 3266 1056 3080 686 
Q 2894 316 2569 119 
Q 2244 -78 1831 -78 
Q 1128 -78 684 439 
Q 241 956 241 2144 
Q 241 3472 731 4075 
Q 1159 4600 1884 4600 
Q 2425 4600 2770 4297 
Q 3116 3994 3184 3459 
z
M 888 1484 
Q 888 1194 1011 928 
Q 1134 663 1356 523 
Q 1578 384 1822 384 
Q 2178 384 2434 671 
Q 2691 959 2691 1453 
Q 2691 1928 2437 2201 
Q 2184 2475 1800 2475 
Q 1419 2475 1153 2201 
Q 888 1928 888 1484 
z
" transform="scale(0.015625)"/>
       </defs>
       <use xlink:href="#ArialMT-31"/>
       <use xlink:href="#ArialMT-36" x="55.615234"/>
       <use xlink:href="#ArialMT-30" x="111.230469"/>
       <use xlink:href="#ArialMT-30" x="166.845703"/>
       <use xlink:href="#ArialMT-30" x="222.460938"/>
      </g>
     </g>
    </g>
    <g id="xtick_4">
     <g id="line2d_4">
      <g>
       <use xlink:href="#m5eb870fdc1" x="130.903429" y="42.48" style="stroke: #000000; stroke-width: 0.8"/>
      </g>
     </g>
     <g id="text_4">
      <!-- 18000 -->
      <g transform="translate(122.562022 53.774687)scale(0.06 -0.06)">
       <defs>
        <path id="ArialMT-38" d="M 1131 2484 
Q 781 2613 612 2850 
Q 444 3088 444 3419 
Q 444 3919 803 4259 
Q 1163 4600 1759 4600 
Q 2359 4600 2725 4251 
Q 3091 3903 3091 3403 
Q 3091 3084 2923 2848 
Q 2756 2613 2416 2484 
Q 2838 2347 3058 2040 
Q 3278 1734 3278 1309 
Q 3278 722 2862 322 
Q 2447 -78 1769 -78 
Q 1091 -78 675 323 
Q 259 725 259 1325 
Q 259 1772 486 2073 
Q 713 2375 1131 2484 
z
M 1019 3438 
Q 1019 3113 1228 2906 
Q 1438 2700 1772 2700 
Q 2097 2700 2305 2904 
Q 2513 3109 2513 3406 
Q 2513 3716 2298 3927 
Q 2084 4138 1766 4138 
Q 1444 4138 1231 3931 
Q 1019 3725 1019 3438 
z
M 838 1322 
Q 838 1081 952 856 
Q 1066 631 1291 507 
Q 1516 384 1775 384 
Q 2178 384 2440 643 
Q 2703 903 2703 1303 
Q 2703 1709 2433 1975 
Q 2163 2241 1756 2241 
Q 1359 2241 1098 1978 
Q 838 1716 838 1322 
z
" transform="scale(0.015625)"/>
       </defs>
       <use xlink:href="#ArialMT-31"/>
       <use xlink:href="#ArialMT-38" x="55.615234"/>
       <use xlink:href="#ArialMT-30" x="111.230469"/>
       <use xlink:href="#ArialMT-30" x="166.845703"/>
       <use xlink:href="#ArialMT-30" x="222.460938"/>
      </g>
     </g>
    </g>
    <g id="xtick_5">
     <g id="line2d_5">
      <g>
       <use xlink:href="#m5eb870fdc1" x="160.513714" y="42.48" style="stroke: #000000; stroke-width: 0.8"/>
      </g>
     </g>
     <g id="text_5">
      <!-- 20000 -->
      <g transform="translate(152.172308 53.774687)scale(0.06 -0.06)">
       <use xlink:href="#ArialMT-32"/>
       <use xlink:href="#ArialMT-30" x="55.615234"/>
       <use xlink:href="#ArialMT-30" x="111.230469"/>
       <use xlink:href="#ArialMT-30" x="166.845703"/>
       <use xlink:href="#ArialMT-30" x="222.460938"/>
      </g>
     </g>
    </g>
    <g id="xtick_6">
     <g id="line2d_6">
      <g>
       <use xlink:href="#m5eb870fdc1" x="190.124" y="42.48" style="stroke: #000000; stroke-width: 0.8"/>
      </g>
     </g>
     <g id="text_6">
      <!-- 22000 -->
      <g transform="translate(181.782594 53.774687)scale(0.06 -0.06)">
       <use xlink:href="#ArialMT-32"/>
       <use xlink:href="#ArialMT-32" x="55.615234"/>
       <use xlink:href="#ArialMT-30" x="111.230469"/>
       <use xlink:href="#ArialMT-30" x="166.845703"/>
       <use xlink:href="#ArialMT-30" x="222.460938"/>
      </g>
     </g>
    </g>
    <g id="xtick_7">
     <g id="line2d_7">
      <g>
       <use xlink:href="#m5eb870fdc1" x="219.734286" y="42.48" style="stroke: #000000; stroke-width: 0.8"/>
      </g>
     </g>
     <g id="text_7">
      <!-- 24000 -->
      <g transform="translate(211.392879 53.774687)scale(0.06 -0.06)">
       <use xlink:href="#ArialMT-32"/>
       <use xlink:href="#ArialMT-34" x="55.615234"/>
       <use xlink:href="#ArialMT-30" x="111.230469"/>
       <use xlink:href="#ArialMT-30" x="166.845703"/>
       <use xlink:href="#ArialMT-30" x="222.460938"/>
      </g>
     </g>
    </g>
    <g id="xtick_8">
     <g id="line2d_8">
      <g>
       <use xlink:href="#m5eb870fdc1" x="249.344571" y="42.48" style="stroke: #000000; stroke-width: 0.8"/>
      </g>
     </g>
     <g id="text_8">
      <!-- 26000 -->
      <g transform="translate(241.003165 53.774687)scale(0.06 -0.06)">
       <use xlink:href="#ArialMT-32"/>
       <use xlink:href="#ArialMT-36" x="55.615234"/>
       <use xlink:href="#ArialMT-30" x="111.230469"/>
       <use xlink:href="#ArialMT-30" x="166.845703"/>
       <use xlink:href="#ArialMT-30" x="222.460938"/>
      </g>
     </g>
    </g>
    <g id="xtick_9">
     <g id="line2d_9">
      <g>
       <use xlink:href="#m5eb870fdc1" x="278.954857" y="42.48" style="stroke: #000000; stroke-width: 0.8"/>
      </g>
     </g>
     <g id="text_9">
      <!-- 28000 -->
      <g transform="translate(270.613451 53.774687)scale(0.06 -0.06)">
       <use xlink:href="#ArialMT-32"/>
       <use xlink:href="#ArialMT-38" x="55.615234"/>
       <use xlink:href="#ArialMT-30" x="111.230469"/>
       <use xlink:href="#ArialMT-30" x="166.845703"/>
       <use xlink:href="#ArialMT-30" x="222.460938"/>
      </g>
     </g>
    </g>
   </g>
   <g id="matplotlib.axis_2">
    <g id="ytick_1">
     <g id="line2d_10">
      <defs>
       <path id="m43f5a67091" d="M 0 0 
L -3.5 0 
" style="stroke: #000000; stroke-width: 0.8"/>
      </defs>
      <g>
       <use xlink:href="#m43f5a67091" x="34.67" y="35.712596" style="stroke: #000000; stroke-width: 0.8"/>
      </g>
     </g>
     <g id="text_10">
      <!-- −60 -->
      <g transform="translate(17.4925 37.85994)scale(0.06 -0.06)">
       <defs>
        <path id="ArialMT-2212" d="M 3381 1997 
L 356 1997 
L 356 2522 
L 3381 2522 
L 3381 1997 
z
" transform="scale(0.015625)"/>
       </defs>
       <use xlink:href="#ArialMT-2212"/>
       <use xlink:href="#ArialMT-36" x="58.398438"/>
       <use xlink:href="#ArialMT-30" x="114.013672"/>
      </g>
     </g>
    </g>
    <g id="ytick_2">
     <g id="line2d_11">
      <g>
       <use xlink:href="#m43f5a67091" x="34.67" y="23.436876" style="stroke: #000000; stroke-width: 0.8"/>
      </g>
     </g>
     <g id="text_11">
      <!-- −40 -->
      <g transform="translate(17.4925 25.58422)scale(0.06 -0.06)">
       <use xlink:href="#ArialMT-2212"/>
       <use xlink:href="#ArialMT-34" x="58.398438"/>
       <use xlink:href="#ArialMT-30" x="114.013672"/>
      </g>
     </g>
    </g>
    <g id="ytick_3">
     <g id="line2d_12">
      <g>
       <use xlink:href="#m43f5a67091" x="34.67" y="11.161156" style="stroke: #000000; stroke-width: 0.8"/>
      </g>
     </g>
     <g id="text_12">
      <!-- −20 -->
      <g transform="translate(17.4925 13.3085)scale(0.06 -0.06)">
       <use xlink:href="#ArialMT-2212"/>
       <use xlink:href="#ArialMT-32" x="58.398438"/>
       <use xlink:href="#ArialMT-30" x="114.013672"/>
      </g>
     </g>
    </g>
    <g id="text_13">
     <!-- Voltage (mV) -->
     <g transform="translate(12.229688 41.820469)rotate(-90)scale(0.06 -0.06)">
      <defs>
       <path id="ArialMT-56" d="M 1803 0 
L 28 4581 
L 684 4581 
L 1875 1253 
Q 2019 853 2116 503 
Q 2222 878 2363 1253 
L 3600 4581 
L 4219 4581 
L 2425 0 
L 1803 0 
z
" transform="scale(0.015625)"/>
       <path id="ArialMT-6f" d="M 213 1659 
Q 213 2581 725 3025 
Q 1153 3394 1769 3394 
Q 2453 3394 2887 2945 
Q 3322 2497 3322 1706 
Q 3322 1066 3130 698 
Q 2938 331 2570 128 
Q 2203 -75 1769 -75 
Q 1072 -75 642 372 
Q 213 819 213 1659 
z
M 791 1659 
Q 791 1022 1069 705 
Q 1347 388 1769 388 
Q 2188 388 2466 706 
Q 2744 1025 2744 1678 
Q 2744 2294 2464 2611 
Q 2184 2928 1769 2928 
Q 1347 2928 1069 2612 
Q 791 2297 791 1659 
z
" transform="scale(0.015625)"/>
       <path id="ArialMT-6c" d="M 409 0 
L 409 4581 
L 972 4581 
L 972 0 
L 409 0 
z
" transform="scale(0.015625)"/>
       <path id="ArialMT-74" d="M 1650 503 
L 1731 6 
Q 1494 -44 1306 -44 
Q 1000 -44 831 53 
Q 663 150 594 308 
Q 525 466 525 972 
L 525 2881 
L 113 2881 
L 113 3319 
L 525 3319 
L 525 4141 
L 1084 4478 
L 1084 3319 
L 1650 3319 
L 1650 2881 
L 1084 2881 
L 1084 941 
Q 1084 700 1114 631 
Q 1144 563 1211 522 
Q 1278 481 1403 481 
Q 1497 481 1650 503 
z
" transform="scale(0.015625)"/>
       <path id="ArialMT-61" d="M 2588 409 
Q 2275 144 1986 34 
Q 1697 -75 1366 -75 
Q 819 -75 525 192 
Q 231 459 231 875 
Q 231 1119 342 1320 
Q 453 1522 633 1644 
Q 813 1766 1038 1828 
Q 1203 1872 1538 1913 
Q 2219 1994 2541 2106 
Q 2544 2222 2544 2253 
Q 2544 2597 2384 2738 
Q 2169 2928 1744 2928 
Q 1347 2928 1158 2789 
Q 969 2650 878 2297 
L 328 2372 
Q 403 2725 575 2942 
Q 747 3159 1072 3276 
Q 1397 3394 1825 3394 
Q 2250 3394 2515 3294 
Q 2781 3194 2906 3042 
Q 3031 2891 3081 2659 
Q 3109 2516 3109 2141 
L 3109 1391 
Q 3109 606 3145 398 
Q 3181 191 3288 0 
L 2700 0 
Q 2613 175 2588 409 
z
M 2541 1666 
Q 2234 1541 1622 1453 
Q 1275 1403 1131 1340 
Q 988 1278 909 1158 
Q 831 1038 831 891 
Q 831 666 1001 516 
Q 1172 366 1500 366 
Q 1825 366 2078 508 
Q 2331 650 2450 897 
Q 2541 1088 2541 1459 
L 2541 1666 
z
" transform="scale(0.015625)"/>
       <path id="ArialMT-67" d="M 319 -275 
L 866 -356 
Q 900 -609 1056 -725 
Q 1266 -881 1628 -881 
Q 2019 -881 2231 -725 
Q 2444 -569 2519 -288 
Q 2563 -116 2559 434 
Q 2191 0 1641 0 
Q 956 0 581 494 
Q 206 988 206 1678 
Q 206 2153 378 2554 
Q 550 2956 876 3175 
Q 1203 3394 1644 3394 
Q 2231 3394 2613 2919 
L 2613 3319 
L 3131 3319 
L 3131 450 
Q 3131 -325 2973 -648 
Q 2816 -972 2473 -1159 
Q 2131 -1347 1631 -1347 
Q 1038 -1347 672 -1080 
Q 306 -813 319 -275 
z
M 784 1719 
Q 784 1066 1043 766 
Q 1303 466 1694 466 
Q 2081 466 2343 764 
Q 2606 1063 2606 1700 
Q 2606 2309 2336 2618 
Q 2066 2928 1684 2928 
Q 1309 2928 1046 2623 
Q 784 2319 784 1719 
z
" transform="scale(0.015625)"/>
       <path id="ArialMT-65" d="M 2694 1069 
L 3275 997 
Q 3138 488 2766 206 
Q 2394 -75 1816 -75 
Q 1088 -75 661 373 
Q 234 822 234 1631 
Q 234 2469 665 2931 
Q 1097 3394 1784 3394 
Q 2450 3394 2872 2941 
Q 3294 2488 3294 1666 
Q 3294 1616 3291 1516 
L 816 1516 
Q 847 969 1125 678 
Q 1403 388 1819 388 
Q 2128 388 2347 550 
Q 2566 713 2694 1069 
z
M 847 1978 
L 2700 1978 
Q 2663 2397 2488 2606 
Q 2219 2931 1791 2931 
Q 1403 2931 1139 2672 
Q 875 2413 847 1978 
z
" transform="scale(0.015625)"/>
       <path id="ArialMT-20" transform="scale(0.015625)"/>
       <path id="ArialMT-28" d="M 1497 -1347 
Q 1031 -759 709 28 
Q 388 816 388 1659 
Q 388 2403 628 3084 
Q 909 3875 1497 4659 
L 1900 4659 
Q 1522 4009 1400 3731 
Q 1209 3300 1100 2831 
Q 966 2247 966 1656 
Q 966 153 1900 -1347 
L 1497 -1347 
z
" transform="scale(0.015625)"/>
       <path id="ArialMT-6d" d="M 422 0 
L 422 3319 
L 925 3319 
L 925 2853 
Q 1081 3097 1340 3245 
Q 1600 3394 1931 3394 
Q 2300 3394 2536 3241 
Q 2772 3088 2869 2813 
Q 3263 3394 3894 3394 
Q 4388 3394 4653 3120 
Q 4919 2847 4919 2278 
L 4919 0 
L 4359 0 
L 4359 2091 
Q 4359 2428 4304 2576 
Q 4250 2725 4106 2815 
Q 3963 2906 3769 2906 
Q 3419 2906 3187 2673 
Q 2956 2441 2956 1928 
L 2956 0 
L 2394 0 
L 2394 2156 
Q 2394 2531 2256 2718 
Q 2119 2906 1806 2906 
Q 1569 2906 1367 2781 
Q 1166 2656 1075 2415 
Q 984 2175 984 1722 
L 984 0 
L 422 0 
z
" transform="scale(0.015625)"/>
       <path id="ArialMT-29" d="M 791 -1347 
L 388 -1347 
Q 1322 153 1322 1656 
Q 1322 2244 1188 2822 
Q 1081 3291 891 3722 
Q 769 4003 388 4659 
L 791 4659 
Q 1378 3875 1659 3084 
Q 1900 2403 1900 1659 
Q 1900 816 1576 28 
Q 1253 -759 791 -1347 
z
" transform="scale(0.015625)"/>
      </defs>
      <use xlink:href="#ArialMT-56"/>
      <use xlink:href="#ArialMT-6f" x="61.199219"/>
      <use xlink:href="#ArialMT-6c" x="116.814453"/>
      <use xlink:href="#ArialMT-74" x="139.03125"/>
      <use xlink:href="#ArialMT-61" x="166.814453"/>
      <use xlink:href="#ArialMT-67" x="222.429688"/>
      <use xlink:href="#ArialMT-65" x="278.044922"/>
      <use xlink:href="#ArialMT-20" x="333.660156"/>
      <use xlink:href="#ArialMT-28" x="361.443359"/>
      <use xlink:href="#ArialMT-6d" x="394.744141"/>
      <use xlink:href="#ArialMT-56" x="478.044922"/>
      <use xlink:href="#ArialMT-29" x="544.744141"/>
     </g>
    </g>
   </g>
   <g id="line2d_13">
    <path d="M 34.66963 40.840656 
L 42.072942 40.840984 
L 42.187681 8.141653 
L 42.189532 8.116364 
L 42.209889 10.299095 
L 42.353869 14.838267 
L 42.505992 24.879702 
L 42.725108 35.030468 
L 43.008997 37.753276 
L 43.359879 39.164871 
L 43.76554 39.942099 
L 44.239304 40.386632 
L 44.850756 40.646882 
L 45.812721 40.788757 
L 47.007866 40.830632 
L 47.122606 8.164374 
L 47.124086 8.146582 
L 47.142222 9.967567 
L 47.286202 14.70039 
L 47.437585 24.480807 
L 47.661513 35.038726 
L 47.945772 37.75861 
L 48.296653 39.167323 
L 48.702685 39.943796 
L 49.176449 40.387451 
L 49.788642 40.64742 
L 50.752086 40.789005 
L 51.94279 40.830619 
L 52.05753 8.200475 
L 52.059381 8.18105 
L 52.077887 10.065487 
L 52.222237 14.74097 
L 52.37399 24.61916 
L 52.596067 35.032861 
L 52.879956 37.754219 
L 53.230837 39.165318 
L 53.636498 39.942321 
L 54.110263 40.386739 
L 54.722085 40.647025 
L 55.68442 40.788822 
L 56.878084 40.830624 
L 56.992454 8.246755 
L 56.994675 8.215283 
L 57.016883 10.54451 
L 57.164564 15.011366 
L 57.318908 25.521709 
L 57.531361 35.032854 
L 57.81525 37.75422 
L 58.166132 39.165319 
L 58.571793 39.942322 
L 59.045557 40.386739 
L 59.65738 40.647025 
L 60.619714 40.788822 
L 61.813009 40.830619 
L 61.927378 8.283555 
L 61.929599 8.249692 
L 61.952547 10.621177 
L 62.101709 15.099089 
L 62.256793 25.797931 
L 62.467026 35.044486 
L 62.751285 37.760785 
L 63.102166 39.168318 
L 63.508198 39.944285 
L 63.981962 40.387688 
L 64.594155 40.647518 
L 65.55797 40.789057 
L 66.747933 40.830619 
L 66.862303 8.320508 
L 66.864523 8.284314 
L 66.888582 10.735421 
L 67.040705 15.264378 
L 67.198009 26.379804 
L 67.403801 35.073425 
L 67.6888 37.776039 
L 68.040052 39.176288 
L 68.446453 39.948687 
L 68.920958 40.390285 
L 69.535001 40.649088 
L 70.503257 40.789782 
L 71.682857 40.830619 
L 71.797227 8.357602 
L 71.799818 8.319042 
L 71.824246 10.802443 
L 71.97859 15.387443 
L 72.137745 26.817344 
L 72.340576 35.102113 
L 72.625945 37.789032 
L 72.977567 39.183222 
L 73.384708 39.953066 
L 73.859953 40.392867 
L 74.475477 40.650548 
L 75.448175 40.790472 
L 76.617781 40.830619 
L 76.732151 8.394816 
L 76.734742 8.353544 
L 76.759911 10.865734 
L 76.917215 15.545147 
L 77.078962 27.37648 
L 77.278831 35.1531 
L 77.565681 37.816938 
L 77.918043 39.197963 
L 78.325925 39.961273 
L 78.80228 40.397521 
L 79.421135 40.653339 
L 80.402346 40.791775 
L 81.553076 40.830624 
L 81.667445 8.432177 
L 81.670036 8.388243 
L 81.696316 10.961184 
L 81.858432 15.8065 
L 82.02684 28.43617 
L 82.223008 35.285191 
L 82.513189 37.88618 
L 82.868143 39.236517 
L 83.277875 39.982605 
L 83.757562 40.409836 
L 84.384559 40.660458 
L 85.388718 40.79507 
L 86.488 40.830619 
L 86.60237 8.469574 
L 86.604961 8.423071 
L 86.63198 11.015838 
L 86.798538 16.043968 
L 86.97768 29.635211 
L 87.172738 35.49373 
L 87.46736 37.990967 
L 87.825645 39.293268 
L 88.238708 40.014665 
L 88.724687 40.428928 
L 89.36538 40.671485 
L 90.408402 40.800056 
L 91.422924 40.830619 
L 91.537294 8.507151 
L 91.540255 8.457854 
L 91.568015 11.099154 
L 91.743085 16.508446 
L 92.266447 37.120026 
L 92.598823 38.825671 
L 92.988568 39.753009 
L 93.437904 40.277006 
L 93.995318 40.582929 
L 94.812192 40.756769 
L 96.357848 40.830619 
L 96.472218 8.544831 
L 96.475179 8.49259 
L 96.503679 11.145954 
L 96.686893 16.965008 
L 97.173242 36.892576 
L 97.499695 38.706081 
L 97.884259 39.686403 
L 98.326932 40.238746 
L 98.869541 40.560282 
L 99.649772 40.744826 
L 101.14139 40.828264 
L 101.292773 40.830619 
L 101.407142 8.582618 
L 101.410103 8.527508 
L 101.439714 11.218319 
L 101.645135 18.305561 
L 102.044504 36.293566 
L 102.356892 38.397453 
L 102.729612 39.516318 
L 103.157851 40.141468 
L 103.671219 40.50311 
L 104.378165 40.713508 
L 105.621797 40.817456 
L 106.228067 40.830624 
L 106.342437 8.620497 
L 106.345768 8.56253 
L 106.375748 11.258182 
L 106.792143 33.136772 
L 107.023103 36.714772 
L 107.345115 38.613331 
L 107.725607 39.634461 
L 108.163469 40.208922 
L 108.696455 40.542887 
L 109.451517 40.735414 
L 110.854674 40.825256 
L 111.162991 40.830619 
L 111.277361 8.658367 
L 111.280692 8.597224 
L 111.311783 11.320873 
L 111.76334 34.058273 
L 112.020209 37.223827 
L 112.355546 38.881124 
L 112.747512 39.783505 
L 113.200179 40.294582 
L 113.764995 40.593288 
L 114.600746 40.762148 
L 116.097916 40.830619 
L 116.212285 8.696327 
L 116.215616 8.632077 
L 116.247818 11.378309 
L 116.734907 34.764543 
L 117.012133 37.613893 
L 117.358574 39.089236 
L 117.760533 39.899969 
L 118.228006 40.362092 
L 118.825393 40.63268 
L 119.748124 40.781927 
L 121.03284 40.830619 
L 121.14721 8.734366 
L 121.150541 8.667099 
L 121.183482 11.408928 
L 121.69463 35.164208 
L 121.981849 37.823314 
L 122.334582 39.201865 
L 122.742464 39.963192 
L 123.219189 40.398676 
L 123.838785 40.654007 
L 124.822216 40.792095 
L 125.967764 40.830619 
L 126.082134 8.772443 
L 126.085835 8.701826 
L 126.119517 11.458583 
L 126.668417 35.703423 
L 126.967851 38.098242 
L 127.329467 39.351154 
L 127.746232 40.047571 
L 128.238503 40.448164 
L 128.894001 40.682473 
L 129.980328 40.804863 
L 130.903058 40.830624 
L 131.017428 8.81058 
L 131.021129 8.736648 
L 131.055922 11.504079 
L 131.644426 36.182834 
L 131.954224 38.340522 
L 132.324352 39.483965 
L 132.75 40.122847 
L 133.258557 40.49211 
L 133.954028 40.707364 
L 135.161388 40.815093 
L 135.837983 40.830619 
L 135.952352 8.848703 
L 135.956054 8.771563 
L 135.991586 11.527499 
L 136.60711 36.470353 
L 136.9232 38.486598 
L 137.29888 39.564656 
L 137.73082 40.168971 
L 138.251961 40.519442 
L 138.977043 40.722523 
L 140.279896 40.82079 
L 140.772907 40.830619 
L 140.887277 8.886852 
L 140.891348 8.806219 
L 140.927621 11.566973 
L 141.585709 36.870552 
L 141.911422 38.693905 
L 142.295246 39.679231 
L 142.737179 40.234578 
L 143.278307 40.557821 
L 144.054837 40.743507 
L 145.53313 40.827856 
L 145.707831 40.830619 
L 145.822201 8.92503 
L 145.826272 8.840922 
L 145.863655 11.603239 
L 146.566159 37.232037 
L 146.901866 38.885959 
L 147.293832 39.785856 
L 147.746869 40.29602 
L 148.312056 40.594048 
L 149.149287 40.762544 
L 150.642755 40.830619 
L 150.757125 8.963239 
L 150.761197 8.875754 
L 150.79932 11.621211 
L 151.156124 31.093191 
L 151.356363 35.864257 
L 151.659128 38.178733 
L 152.023705 39.395636 
L 152.443431 40.072873 
L 152.940884 40.462959 
L 153.608966 40.690924 
L 154.732676 40.808458 
L 155.57805 40.830624 
L 155.69242 9.001471 
L 155.696861 8.910302 
L 155.735725 11.652921 
L 156.049964 28.2836 
L 156.246502 35.263397 
L 156.535943 37.873732 
L 156.890526 39.229845 
L 157.299888 39.978854 
L 157.779204 40.407808 
L 158.404722 40.65926 
L 159.404809 40.794513 
L 160.512974 40.830619 
L 160.627344 9.039626 
L 160.631785 8.944851 
L 160.671759 11.682238 
L 160.965641 26.612749 
L 161.169582 35.084699 
L 161.454581 37.780345 
L 161.806203 39.17926 
L 162.212975 39.950636 
L 162.68785 40.39146 
L 163.302633 40.649771 
L 164.27311 40.790116 
L 165.447898 40.830619 
L 165.562268 9.077792 
L 165.56708 8.979491 
L 165.607794 11.709415 
L 165.88576 25.239429 
L 166.101175 35.032563 
L 166.385064 37.754177 
L 166.735946 39.165313 
L 167.141607 39.942321 
L 167.615371 40.386739 
L 168.227194 40.647025 
L 169.189528 40.788822 
L 170.382823 40.830619 
L 170.497192 9.115979 
L 170.502004 9.013827 
L 170.543458 11.722215 
L 170.813282 24.544334 
L 171.036099 35.032552 
L 171.319988 37.754175 
L 171.67087 39.165313 
L 172.076531 39.942321 
L 172.550295 40.386739 
L 173.162118 40.647025 
L 174.124452 40.788822 
L 175.317747 40.830619 
L 175.432116 9.154142 
L 175.436928 9.048261 
L 175.479493 11.746435 
L 175.737102 23.512895 
L 175.974355 35.084666 
L 176.259354 37.78034 
L 176.610976 39.179259 
L 177.017747 39.950636 
L 177.492622 40.39146 
L 178.107406 40.649771 
L 179.077883 40.790116 
L 180.253041 40.830624 
L 180.367041 9.208599 
L 180.372593 9.082637 
L 180.418118 11.833598 
L 180.642787 20.954923 
L 180.934818 35.452926 
L 181.2287 37.971196 
L 181.586244 39.282291 
L 181.998938 40.008812 
L 182.483806 40.425485 
L 183.121908 40.669493 
L 184.157527 40.799163 
L 185.187965 40.830619 
L 185.301965 9.246744 
L 185.307517 9.11678 
L 185.354153 11.852149 
L 185.570678 20.40403 
L 185.879366 35.583075 
L 186.176209 38.037587 
L 186.535974 39.318524 
L 186.950888 40.029324 
L 187.439457 40.437409 
L 188.086442 40.676322 
L 189.147971 40.802196 
L 190.12289 40.830619 
L 190.236889 9.284858 
L 190.242441 9.151026 
L 190.289818 11.860371 
L 190.501901 20.123614 
L 190.820212 35.66057 
L 191.118535 38.075693 
L 191.479411 39.338904 
L 191.895435 40.040672 
L 192.386226 40.444063 
L 193.038392 40.680123 
L 194.115096 40.803853 
L 195.057814 40.830619 
L 195.171813 9.322928 
L 195.177736 9.184989 
L 195.225482 11.868367 
L 195.433124 19.849869 
L 195.761428 35.740829 
L 196.061603 38.116806 
L 196.424329 39.362421 
L 196.841834 40.053979 
L 197.335215 40.451817 
L 197.993674 40.684551 
L 199.088884 40.805758 
L 199.992738 40.830619 
L 200.106738 9.360943 
L 200.11266 9.218966 
L 200.161517 11.885294 
L 200.362497 19.451837 
L 200.706346 35.864188 
L 201.009111 38.178723 
L 201.373688 39.395635 
L 201.793414 40.072873 
L 202.290866 40.462959 
L 202.958948 40.690924 
L 204.082659 40.808458 
L 204.928032 40.830624 
L 205.042032 9.398901 
L 205.048324 9.252863 
L 205.097551 11.892806 
L 205.2952 19.27103 
L 205.646822 35.926264 
L 205.950698 38.208996 
L 206.316015 39.411501 
L 206.736851 40.081932 
L 207.236154 40.468213 
L 207.908678 40.693862 
L 209.046083 40.809675 
L 209.862957 40.830619 
L 209.976956 9.436706 
L 209.983249 9.286502 
L 210.033216 11.900209 
L 210.227533 19.093354 
L 210.587298 35.991373 
L 210.893025 38.244023 
L 211.259822 39.431255 
L 211.681769 40.092893 
L 212.183293 40.474531 
L 212.861738 40.697471 
L 214.01654 40.811146 
L 214.797881 40.830619 
L 214.911881 9.474446 
L 214.918543 9.320205 
L 214.96888 11.907543 
L 215.159867 18.918826 
L 215.527404 36.050915 
L 215.834241 38.273297 
L 216.202149 39.447477 
L 216.625206 40.102096 
L 217.128951 40.479992 
L 217.812578 40.700564 
L 218.983295 40.812405 
L 219.732805 40.830619 
L 219.846805 9.512112 
L 219.853467 9.353563 
L 219.904545 11.91482 
L 220.09294 18.795981 
L 220.46677 36.101029 
L 220.774717 38.298768 
L 221.143735 39.461889 
L 221.567903 40.110394 
L 222.073498 40.484817 
L 222.761567 40.703242 
L 223.946349 40.813474 
L 224.667729 40.830619 
L 224.781729 9.549679 
L 224.788391 9.386992 
L 224.840209 11.922071 
L 225.025644 18.650658 
L 225.406506 36.15438 
L 225.715563 38.325581 
L 226.085322 39.476126 
L 226.5106 40.118592 
L 227.018046 40.489575 
L 227.710927 40.705935 
L 228.910513 40.814542 
L 229.603024 40.830624 
L 229.717023 9.587164 
L 229.724056 9.42016 
L 229.776244 11.929324 
L 229.959458 18.554927 
L 230.345132 36.190772 
L 230.654929 38.343806 
L 231.025058 39.485525 
L 231.451076 40.124002 
L 231.960003 40.492831 
L 232.656214 40.707769 
L 233.866165 40.815261 
L 234.537948 40.830619 
L 234.651948 9.624476 
L 234.65898 9.453233 
L 234.711908 11.93659 
L 234.892901 18.460103 
L 235.283387 36.226711 
L 235.594295 38.363488 
L 235.965164 39.496394 
L 236.391922 40.13013 
L 236.902329 40.496411 
L 237.601872 40.709711 
L 238.822927 40.81601 
L 239.472872 40.830619 
L 239.586872 9.661686 
L 239.594274 9.486118 
L 239.647573 11.943898 
L 239.826345 18.366278 
L 240.221642 36.262213 
L 240.533291 38.381347 
L 240.90527 39.507164 
L 241.332768 40.136201 
L 241.845026 40.50013 
L 242.548641 40.71182 
L 243.782279 40.816823 
L 244.407797 40.830619 
L 244.521796 9.69878 
L 244.529199 9.518892 
L 244.583237 11.95126 
L 244.760159 18.296437 
L 245.159158 36.28953 
L 245.471546 38.395829 
L 245.843895 39.514795 
L 246.272134 40.140718 
L 246.785502 40.502761 
L 247.492078 40.713314 
L 248.7346 40.817385 
L 249.342721 40.830619 
L 249.45672 9.735752 
L 249.464493 9.551506 
L 249.518902 11.958691 
L 249.693973 18.22713 
L 250.096673 36.316597 
L 250.409431 38.408609 
L 250.782521 39.522376 
L 251.21113 40.144832 
L 251.725609 40.505198 
L 252.434775 40.714664 
L 253.685809 40.8179 
L 254.278015 40.830624 
L 254.392015 9.772618 
L 254.399787 9.583966 
L 254.454937 11.96622 
L 254.628527 18.181125 
L 255.033818 36.335787 
L 255.346946 38.41814 
L 255.720036 39.526901 
L 256.149015 40.147436 
L 256.664234 40.506755 
L 257.374881 40.715492 
L 258.631097 40.81821 
L 259.212939 40.830619 
L 259.326939 9.809268 
L 259.335082 9.616209 
L 259.390601 11.973848 
L 259.562711 18.135301 
L 259.970593 36.354836 
L 260.284462 38.429194 
L 260.657921 39.532905 
L 261.087271 40.150768 
L 261.60323 40.508647 
L 262.316097 40.716567 
L 263.578976 40.818606 
L 264.147864 40.830619 
L 264.261863 9.84579 
L 264.270006 9.648296 
L 264.326266 11.981598 
L 264.496895 18.089721 
L 264.907367 36.373761 
L 265.221607 38.438619 
L 265.595437 39.538134 
L 266.025156 40.153716 
L 266.541855 40.510358 
L 267.256574 40.717507 
L 268.525744 40.818962 
L 269.082788 40.830619 
L 269.196788 9.882175 
L 269.2053 9.68021 
L 269.26156 11.981399 
L 269.432559 18.134626 
L 269.840441 36.354828 
L 270.15431 38.429192 
L 270.52777 39.532905 
L 270.957119 40.150768 
L 271.473078 40.508647 
L 272.185946 40.716567 
L 273.448825 40.818606 
L 274.017712 40.830619 
L 274.131712 9.918403 
L 274.140225 9.711963 
L 274.197225 11.989423 
L 274.366743 18.089035 
L 274.777216 36.373754 
L 275.091455 38.438618 
L 275.465285 39.538134 
L 275.895004 40.153716 
L 276.411704 40.510358 
L 277.126422 40.717507 
L 278.395593 40.818962 
L 278.953007 40.830624 
L 279.067006 9.954507 
L 279.075889 9.743495 
L 279.133259 11.997617 
L 279.302038 18.088718 
L 279.71251 36.373755 
L 280.02675 38.438619 
L 280.400579 39.538135 
L 280.830299 40.153717 
L 281.346998 40.510358 
L 282.061716 40.717507 
L 283.330887 40.818962 
L 283.887931 40.830619 
L 284.00193 9.990376 
L 284.010813 9.774878 
L 284.068554 11.997867 
L 284.237332 18.110948 
L 284.646694 36.36619 
L 284.960563 38.43391 
L 285.334393 39.535896 
L 285.764112 40.152612 
L 286.280812 40.509846 
L 286.99479 40.717194 
L 288.26174 40.81884 
L 292.708095 40.840929 
L 293.76 40.840971 
L 293.76 40.840971 
" clip-path="url(#p390920e807)" style="fill: none; stroke: #fbafe4; stroke-width: 1.5; stroke-linecap: square"/>
   </g>
   <g id="line2d_14">
    <path d="M 34.66963 40.84199 
L 42.072942 40.842356 
L 42.084416 17.606075 
L 42.18472 32.325842 
L 42.364233 35.90229 
L 42.679582 38.180743 
L 43.054152 39.403465 
L 43.47832 40.07966 
L 43.978363 40.467824 
L 44.650147 40.694338 
L 45.78348 40.810678 
L 47.007866 40.836311 
L 47.01934 17.561698 
L 47.119645 32.290521 
L 47.299157 35.890967 
L 47.614136 38.174488 
L 47.988336 39.399688 
L 48.412134 40.077382 
L 48.911807 40.466553 
L 49.58248 40.69362 
L 50.712483 40.810382 
L 51.94279 40.836303 
L 51.954264 17.527506 
L 52.054569 32.285197 
L 52.233711 35.886608 
L 52.548691 38.172716 
L 52.922891 39.398852 
L 53.346688 40.076969 
L 53.845991 40.466162 
L 54.516294 40.693393 
L 55.645186 40.810286 
L 56.878084 40.836306 
L 56.889558 17.493353 
L 56.989863 32.279859 
L 57.169005 35.886424 
L 57.483985 38.172693 
L 57.858185 39.39885 
L 58.281982 40.076969 
L 58.781286 40.466163 
L 59.451588 40.693393 
L 60.580481 40.810286 
L 61.813009 40.836303 
L 61.824483 17.459271 
L 61.924787 32.274522 
L 62.10393 35.886229 
L 62.418909 38.172665 
L 62.793109 39.398846 
L 63.216906 40.076968 
L 63.71621 40.466162 
L 64.386513 40.693393 
L 65.515405 40.810286 
L 66.747933 40.836303 
L 66.759407 17.425215 
L 66.859712 32.269177 
L 67.038484 35.881877 
L 67.353463 38.170897 
L 67.727663 39.398012 
L 68.15146 40.076556 
L 68.650764 40.465967 
L 69.320697 40.693242 
L 70.448848 40.810221 
L 71.682857 40.836303 
L 71.694331 17.391145 
L 71.794636 32.263866 
L 71.973408 35.881688 
L 72.288387 38.170871 
L 72.662587 39.39801 
L 73.086385 40.076556 
L 73.585688 40.465967 
L 74.255621 40.693242 
L 75.383773 40.810221 
L 76.617781 40.836303 
L 76.629255 17.357108 
L 76.72956 32.258481 
L 76.908332 35.881498 
L 77.223312 38.170846 
L 77.597512 39.398007 
L 78.021309 40.076555 
L 78.520612 40.465967 
L 79.190545 40.693242 
L 80.318697 40.810221 
L 81.553076 40.836306 
L 81.56455 17.323103 
L 81.664855 32.253148 
L 81.843257 35.877145 
L 82.158236 38.169079 
L 82.532436 39.397173 
L 82.956233 40.076144 
L 83.455537 40.465773 
L 84.125469 40.693167 
L 85.253251 40.810189 
L 86.488 40.836303 
L 86.499474 17.289095 
L 86.599779 32.247804 
L 86.778181 35.87695 
L 87.09316 38.169051 
L 87.46736 39.39717 
L 87.891157 40.076143 
L 88.390461 40.465772 
L 89.060394 40.693166 
L 90.188175 40.810189 
L 91.422924 40.836303 
L 91.434398 17.255108 
L 91.534703 32.242419 
L 91.713105 35.87676 
L 92.027714 38.16728 
L 92.401544 39.395502 
L 92.825341 40.075318 
L 93.324275 40.465187 
L 93.993467 40.692788 
L 95.119768 40.810043 
L 96.357848 40.836303 
L 96.369322 17.221137 
L 96.469627 32.237046 
L 96.647659 35.872394 
L 96.962268 38.165507 
L 97.336098 39.394666 
L 97.759896 40.074905 
L 98.258829 40.464991 
L 98.928021 40.692712 
L 100.053952 40.810011 
L 101.292773 40.836303 
L 101.304247 17.187195 
L 101.404552 32.231644 
L 101.582583 35.872203 
L 101.897193 38.165481 
L 102.271023 39.394663 
L 102.69482 40.074905 
L 103.193753 40.464991 
L 103.862946 40.692712 
L 104.988877 40.810011 
L 106.228067 40.836306 
L 106.239541 17.153252 
L 106.339846 32.226316 
L 106.517878 35.872019 
L 106.832487 38.165458 
L 107.206317 39.394661 
L 107.630114 40.074905 
L 108.129047 40.464992 
L 108.79824 40.692712 
L 109.924171 40.810011 
L 111.162991 40.836303 
L 111.174465 17.11937 
L 111.27477 32.220869 
L 111.452432 35.867639 
L 111.767041 38.163681 
L 112.140871 39.393824 
L 112.564298 40.074078 
L 113.063231 40.4646 
L 113.732054 40.692484 
L 114.856874 40.809913 
L 116.097916 40.836303 
L 116.10939 17.085543 
L 116.209694 32.21548 
L 116.387356 35.867449 
L 116.701965 38.163656 
L 117.075795 39.393821 
L 117.499222 40.074078 
L 117.998156 40.4646 
L 118.666978 40.692484 
L 119.791799 40.809913 
L 121.03284 40.836303 
L 121.044314 17.051736 
L 121.144619 32.210105 
L 121.32228 35.867259 
L 121.63689 38.16363 
L 122.01072 39.393818 
L 122.434147 40.074077 
L 122.93308 40.4646 
L 123.601902 40.692484 
L 124.726723 40.809913 
L 125.967764 40.836303 
L 125.979238 17.017934 
L 126.079543 32.204715 
L 126.257205 35.86707 
L 126.571814 38.163604 
L 126.945644 39.393815 
L 127.369071 40.074077 
L 127.868004 40.4646 
L 128.536826 40.692484 
L 129.661647 40.809913 
L 130.903058 40.836306 
L 130.914532 16.98415 
L 131.014837 32.199298 
L 131.192129 35.862694 
L 131.506738 38.16183 
L 131.880568 39.392979 
L 132.303995 40.073664 
L 132.802558 40.464209 
L 133.47101 40.692256 
L 134.594721 40.809816 
L 135.837983 40.836303 
L 135.849457 16.95045 
L 135.949762 32.193879 
L 136.127053 35.862499 
L 136.441292 38.160051 
L 136.815122 39.39214 
L 137.238549 40.073249 
L 137.737112 40.464013 
L 138.405565 40.69218 
L 139.528905 40.809783 
L 140.772907 40.836303 
L 140.784381 16.916767 
L 140.884686 32.188527 
L 141.061977 35.862309 
L 141.376217 38.160025 
L 141.750046 39.392137 
L 142.173473 40.073249 
L 142.672037 40.464013 
L 143.340489 40.69218 
L 144.463829 40.809783 
L 145.707831 40.836303 
L 145.719305 16.88309 
L 145.81961 32.183055 
L 145.996531 35.857921 
L 146.310771 38.158246 
L 146.6846 39.391299 
L 147.108028 40.072835 
L 147.606591 40.463816 
L 148.274673 40.692028 
L 149.397273 40.809718 
L 150.642755 40.836303 
L 150.654229 16.84944 
L 150.754534 32.17762 
L 150.931456 35.85773 
L 151.245695 38.15822 
L 151.619525 39.391296 
L 152.042952 40.072835 
L 152.541515 40.463816 
L 153.209597 40.692028 
L 154.332197 40.809718 
L 155.57805 40.836306 
L 155.589524 16.815818 
L 155.689829 32.172206 
L 155.86675 35.857545 
L 156.180989 38.158197 
L 156.554819 39.391294 
L 156.978246 40.072835 
L 157.476809 40.463817 
L 158.144891 40.692028 
L 159.267491 40.809718 
L 160.512974 40.836303 
L 160.524448 16.782245 
L 160.624753 32.166789 
L 160.801674 35.85735 
L 161.115913 38.158169 
L 161.489743 39.39129 
L 161.91317 40.072834 
L 162.411734 40.463816 
L 163.079816 40.692028 
L 164.202416 40.809718 
L 165.447898 40.836303 
L 165.459372 16.7487 
L 165.559677 32.16131 
L 165.736228 35.852954 
L 166.050468 38.156388 
L 166.423927 39.389615 
L 166.847354 40.072005 
L 167.345918 40.463424 
L 168.01363 40.691799 
L 169.135119 40.809619 
L 170.382823 40.836303 
L 170.393926 16.715154 
L 170.494601 32.155837 
L 170.671153 35.852763 
L 170.985392 38.156362 
L 171.358852 39.389612 
L 171.782279 40.072005 
L 172.280842 40.463424 
L 172.948554 40.691799 
L 174.070043 40.809619 
L 175.317747 40.836303 
L 175.328851 16.681352 
L 175.429526 32.150374 
L 175.605707 35.848361 
L 175.919576 38.152822 
L 176.293036 39.387935 
L 176.716463 40.071175 
L 177.214656 40.462835 
L 177.881998 40.691493 
L 179.002377 40.809504 
L 180.253041 40.836306 
L 180.264145 16.647555 
L 180.36482 32.144945 
L 180.541001 35.848176 
L 180.85487 38.152798 
L 181.22833 39.387933 
L 181.651757 40.071175 
L 182.14995 40.462835 
L 182.817292 40.691493 
L 183.937671 40.809504 
L 185.187965 40.836303 
L 185.199069 16.613788 
L 185.299744 32.139433 
L 185.475925 35.847979 
L 185.789794 38.15277 
L 186.163254 39.387929 
L 186.586681 40.071175 
L 187.084874 40.462835 
L 187.752216 40.691493 
L 188.872595 40.809504 
L 190.12289 40.836303 
L 190.133993 16.580049 
L 190.234668 32.133936 
L 190.41048 35.843569 
L 190.724349 38.150984 
L 191.097808 39.387088 
L 191.520865 40.070344 
L 192.019058 40.462441 
L 192.68603 40.691264 
L 193.805299 40.809405 
L 195.057814 40.836303 
L 195.068918 16.546322 
L 195.169593 32.128511 
L 195.345404 35.843378 
L 195.659273 38.150958 
L 196.032733 39.387085 
L 196.455789 40.070344 
L 196.953983 40.462441 
L 197.620954 40.691264 
L 198.740223 40.809405 
L 199.992738 40.836303 
L 200.003842 16.512608 
L 200.104517 32.122994 
L 200.280328 35.843187 
L 200.594197 38.150932 
L 200.967657 39.387082 
L 201.390714 40.070343 
L 201.888907 40.462441 
L 202.555878 40.691264 
L 203.675147 40.809405 
L 204.928032 40.836306 
L 204.939136 16.47893 
L 205.039811 32.117507 
L 205.215622 35.843001 
L 205.529491 38.150909 
L 205.902951 39.38708 
L 206.326008 40.070344 
L 206.824201 40.462441 
L 207.491173 40.691264 
L 208.610442 40.809405 
L 209.862957 40.836303 
L 209.874061 16.445307 
L 209.974736 32.111988 
L 210.150176 35.838578 
L 210.464046 38.149119 
L 210.837505 39.386238 
L 211.260562 40.069927 
L 211.758385 40.462047 
L 212.424987 40.691034 
L 213.543145 40.809306 
L 214.797881 40.836303 
L 214.808985 16.411704 
L 214.90966 32.106546 
L 215.085101 35.838388 
L 215.39897 38.149094 
L 215.772429 39.386235 
L 216.195486 40.069927 
L 216.693309 40.462047 
L 217.359911 40.691034 
L 218.478069 40.809306 
L 219.732805 40.836303 
L 219.743909 16.378145 
L 219.844584 32.101018 
L 220.020025 35.838196 
L 220.333524 38.147305 
L 220.706984 39.385393 
L 221.130041 40.069511 
L 221.627863 40.46185 
L 222.294465 40.690957 
L 223.412253 40.809273 
L 224.667729 40.836303 
L 224.678833 16.344609 
L 224.779508 32.095504 
L 224.954579 35.833772 
L 225.268078 38.145514 
L 225.641538 39.38455 
L 226.064595 40.069094 
L 226.562418 40.461653 
L 227.228649 40.690803 
L 228.345697 40.809206 
L 229.603024 40.836306 
L 229.614128 16.311097 
L 229.714803 32.090015 
L 229.889873 35.833587 
L 230.203372 38.145491 
L 230.576462 39.383708 
L 230.999519 40.068678 
L 231.497342 40.461456 
L 232.163573 40.690726 
L 233.280251 40.809173 
L 234.537948 40.836303 
L 234.549052 16.277629 
L 234.649727 32.08453 
L 234.824798 35.833391 
L 235.138297 38.145463 
L 235.511386 39.383704 
L 235.934443 40.068678 
L 236.432266 40.461455 
L 237.098498 40.690726 
L 238.215175 40.809173 
L 239.472872 40.836303 
L 239.483976 16.244212 
L 239.584651 32.079006 
L 239.759722 35.833199 
L 240.073221 38.145437 
L 240.44631 39.383701 
L 240.869367 40.068677 
L 241.36719 40.461455 
L 242.033422 40.690726 
L 243.1501 40.809173 
L 244.407797 40.836303 
L 244.4189 16.2108 
L 244.519575 32.073468 
L 244.694276 35.828767 
L 245.007775 38.143645 
L 245.380865 39.382857 
L 245.803922 40.06826 
L 246.301374 40.46106 
L 246.967236 40.690495 
L 248.082803 40.809073 
L 249.342721 40.836303 
L 249.353825 16.177409 
L 249.4545 32.067966 
L 249.6292 35.828577 
L 249.942699 38.143619 
L 250.315789 39.382854 
L 250.738846 40.06826 
L 251.236299 40.46106 
L 251.90216 40.690495 
L 253.017727 40.809073 
L 254.278015 40.836306 
L 254.289119 16.144044 
L 254.389794 32.062471 
L 254.564495 35.828392 
L 254.877994 38.143595 
L 255.251083 39.382852 
L 255.67414 40.06826 
L 256.171593 40.461061 
L 256.837454 40.690496 
L 257.953022 40.809073 
L 259.212939 40.836303 
L 259.224043 16.110752 
L 259.324718 32.05693 
L 259.499419 35.828195 
L 259.812918 38.143567 
L 260.186007 39.382848 
L 260.609064 40.06826 
L 261.106517 40.46106 
L 261.772378 40.690495 
L 262.887946 40.809073 
L 264.147864 40.836303 
L 264.158968 16.077481 
L 264.259642 32.051366 
L 264.433973 35.823755 
L 264.747102 38.140004 
L 265.120191 39.381162 
L 265.542878 40.067008 
L 266.040331 40.460467 
L 266.705452 40.69011 
L 267.819539 40.808922 
L 269.082788 40.836303 
L 269.093892 16.044218 
L 269.194567 32.045865 
L 269.368897 35.823564 
L 269.682026 38.139978 
L 270.055116 39.381159 
L 270.477802 40.067008 
L 270.975255 40.460467 
L 271.640376 40.69011 
L 272.754463 40.808922 
L 274.017712 40.836303 
L 274.028816 16.010986 
L 274.129491 32.040321 
L 274.303822 35.823372 
L 274.61695 38.139952 
L 274.99004 39.381156 
L 275.412727 40.067008 
L 275.91018 40.460467 
L 276.575301 40.69011 
L 277.689388 40.808922 
L 278.953007 40.836306 
L 278.96411 15.977775 
L 279.064785 32.034781 
L 279.239116 35.823187 
L 279.552245 38.139928 
L 279.925334 39.381154 
L 280.348021 40.067008 
L 280.845474 40.460467 
L 281.510595 40.69011 
L 282.624682 40.808922 
L 283.887931 40.836303 
L 283.899035 15.944636 
L 283.99971 32.029196 
L 284.17367 35.818733 
L 284.486799 38.138129 
L 284.859888 39.380307 
L 285.282575 40.06659 
L 285.780028 40.460269 
L 286.445149 40.690033 
L 287.558866 40.808889 
L 290.740121 40.841903 
L 293.76 40.842349 
L 293.76 40.842349 
" clip-path="url(#p390920e807)" style="fill: none; stroke: #ca9161; stroke-width: 1.5; stroke-linecap: square"/>
   </g>
   <g id="line2d_15">
    <path d="M 34.66963 40.842989 
L 42.072942 40.842996 
L 42.084045 20.520584 
L 42.18435 35.827649 
L 42.35535 37.459574 
L 42.715115 39.021175 
L 43.120776 39.866547 
L 43.586027 40.344386 
L 44.173791 40.623304 
L 45.069132 40.778379 
L 47.007866 40.838313 
L 47.01897 20.476765 
L 47.119275 35.814407 
L 47.290274 37.453303 
L 47.650039 39.018377 
L 48.05533 39.864643 
L 48.520581 40.343458 
L 49.107975 40.622794 
L 50.002206 40.778134 
L 51.94279 40.838307 
L 51.953894 20.441174 
L 52.054199 35.812069 
L 52.224828 37.450814 
L 52.584223 39.016181 
L 52.989514 39.863566 
L 53.454395 40.342672 
L 54.041419 40.622344 
L 54.934539 40.777905 
L 56.878084 40.838309 
L 56.889188 20.405591 
L 56.989493 35.809752 
L 57.160122 37.450681 
L 57.519517 39.016167 
L 57.924808 39.863565 
L 58.38969 40.342672 
L 58.976713 40.622344 
L 59.869834 40.777905 
L 61.813009 40.838307 
L 61.824113 20.37005 
L 61.924417 35.807428 
L 62.095047 37.450542 
L 62.454441 39.01615 
L 62.859732 39.863563 
L 63.324614 40.342671 
L 63.911638 40.622344 
L 64.804758 40.777905 
L 66.747933 40.838307 
L 66.759037 20.334512 
L 66.859342 35.805103 
L 67.029601 37.448058 
L 67.388996 39.015044 
L 67.794286 39.863024 
L 68.259168 40.342409 
L 68.846192 40.622231 
L 69.738942 40.777839 
L 71.681747 40.8383 
L 71.682857 40.838307 
L 71.693961 20.298988 
L 71.794266 35.80276 
L 71.964525 37.447921 
L 72.32392 39.015029 
L 72.729211 39.863022 
L 73.194092 40.342409 
L 73.781116 40.622231 
L 74.673866 40.777839 
L 76.616671 40.8383 
L 76.617781 40.838307 
L 76.628885 20.263395 
L 76.72919 35.800416 
L 76.899079 37.445433 
L 77.258474 39.013923 
L 77.663765 39.862483 
L 78.128646 40.342146 
L 78.7153 40.622006 
L 79.60768 40.777741 
L 81.548264 40.838279 
L 81.553076 40.838309 
L 81.56418 20.22779 
L 81.664484 35.798065 
L 81.834373 37.445299 
L 82.193768 39.013908 
L 82.599059 39.862482 
L 83.063941 40.342146 
L 83.650594 40.622006 
L 84.542974 40.777741 
L 86.483558 40.838279 
L 86.488 40.838307 
L 86.499104 20.192244 
L 86.599409 35.795713 
L 86.768928 37.442806 
L 87.127952 39.011708 
L 87.533243 39.861403 
L 87.997754 40.341358 
L 88.584038 40.621554 
L 89.475308 40.777511 
L 91.41108 40.838231 
L 91.422924 40.838307 
L 91.434028 20.156702 
L 91.534333 35.793357 
L 91.703852 37.442668 
L 92.062877 39.011692 
L 92.468167 39.861401 
L 92.932679 40.341358 
L 93.518962 40.621554 
L 94.410232 40.777511 
L 96.346004 40.838231 
L 96.357848 40.838307 
L 96.368952 20.121157 
L 96.469257 35.790991 
L 96.638776 37.442531 
L 96.997801 39.011676 
L 97.403092 39.8614 
L 97.867603 40.341358 
L 98.453887 40.621554 
L 99.345156 40.777511 
L 101.280929 40.838231 
L 101.292773 40.838307 
L 101.303877 20.085608 
L 101.404181 35.788627 
L 101.57333 37.440036 
L 101.932355 39.010567 
L 102.337646 39.860859 
L 102.802157 40.341095 
L 103.388441 40.621441 
L 104.27934 40.777445 
L 106.214002 40.838219 
L 106.228067 40.838309 
L 106.239171 20.050069 
L 106.339476 35.786259 
L 106.508625 37.439901 
L 106.867649 39.010553 
L 107.27294 39.860858 
L 107.737451 40.341095 
L 108.323735 40.621441 
L 109.214635 40.777445 
L 111.149297 40.838219 
L 111.162991 40.838307 
L 111.174095 20.014515 
L 111.2744 35.783885 
L 111.443549 37.43976 
L 111.802574 39.010535 
L 112.207864 39.860856 
L 112.672376 40.341094 
L 113.258659 40.621441 
L 114.149559 40.777445 
L 116.084221 40.838219 
L 116.097916 40.838307 
L 116.109019 19.978962 
L 116.209324 35.781498 
L 116.378103 37.437262 
L 116.737128 39.009426 
L 117.142048 39.859775 
L 117.60656 40.340568 
L 118.192473 40.621101 
L 119.082632 40.77728 
L 121.013963 40.838186 
L 121.03284 40.838307 
L 121.043944 19.943408 
L 121.144249 35.779119 
L 121.313027 37.437124 
L 121.672052 39.00941 
L 122.076973 39.859774 
L 122.541484 40.340568 
L 123.127397 40.621101 
L 124.017557 40.77728 
L 125.948888 40.838186 
L 125.967764 40.838307 
L 125.978868 19.907857 
L 126.079173 35.776723 
L 126.247951 37.436985 
L 126.606606 39.008299 
L 127.011527 39.859232 
L 127.475668 40.34004 
L 128.061211 40.620761 
L 128.95063 40.777114 
L 130.87826 40.83815 
L 130.903058 40.838309 
L 130.914162 19.872318 
L 131.014467 35.774336 
L 131.182876 37.434486 
L 131.54153 39.00719 
L 131.946451 39.858691 
L 132.410592 40.339777 
L 132.996136 40.620648 
L 133.885184 40.777048 
L 135.811704 40.838137 
L 135.837983 40.838307 
L 135.849087 19.836816 
L 135.949391 35.771936 
L 136.1178 37.434344 
L 136.476454 39.007172 
L 136.881375 39.858689 
L 137.345516 40.339777 
L 137.93106 40.620648 
L 138.820109 40.777048 
L 140.746628 40.838137 
L 140.772907 40.838307 
L 140.784011 19.801334 
L 140.884316 35.769532 
L 141.052724 37.434205 
L 141.411379 39.007156 
L 141.816299 39.858687 
L 142.280441 40.339776 
L 142.865984 40.620648 
L 143.755033 40.777048 
L 145.681552 40.838137 
L 145.707831 40.838307 
L 145.718935 19.765849 
L 145.81924 35.767129 
L 145.987278 37.4317 
L 146.345933 39.006044 
L 146.750853 39.858145 
L 147.214995 40.339512 
L 147.800538 40.620534 
L 148.689587 40.777015 
L 150.615366 40.83813 
L 150.642755 40.838307 
L 150.653859 19.730294 
L 150.754164 35.764713 
L 150.922202 37.43156 
L 151.280857 39.006028 
L 151.685778 39.858144 
L 152.149919 40.339512 
L 152.735462 40.620534 
L 153.624511 40.777015 
L 155.55029 40.83813 
L 155.57805 40.838309 
L 155.589154 19.694742 
L 155.689458 35.762306 
L 155.857497 37.431424 
L 156.216151 39.006013 
L 156.621072 39.858143 
L 157.085213 40.339513 
L 157.670757 40.620534 
L 158.559806 40.777015 
L 160.485585 40.83813 
L 160.512974 40.838307 
L 160.524078 19.659256 
L 160.624383 35.759873 
L 160.792051 37.428912 
L 161.150335 39.003801 
L 161.555256 39.857058 
L 162.019397 40.338984 
L 162.604571 40.620193 
L 163.492509 40.776815 
L 165.414217 40.838089 
L 165.447898 40.838307 
L 165.459002 19.62377 
L 165.559307 35.757454 
L 165.726975 37.428772 
L 166.08526 39.003785 
L 166.49018 39.857057 
L 166.954322 40.338984 
L 167.539495 40.620193 
L 168.427433 40.776815 
L 170.349141 40.838089 
L 170.382823 40.838307 
L 170.393926 19.588284 
L 170.494231 35.755019 
L 170.661899 37.428632 
L 171.020184 39.003768 
L 171.425105 39.857055 
L 171.889246 40.338984 
L 172.474419 40.620193 
L 173.362358 40.776815 
L 175.284065 40.838089 
L 175.317747 40.838307 
L 175.328851 19.552798 
L 175.429155 35.752591 
L 175.596454 37.426119 
L 175.954738 39.002654 
L 176.359659 39.856512 
L 176.82343 40.338455 
L 177.408233 40.619852 
L 178.295431 40.776648 
L 180.213808 40.838054 
L 180.253041 40.838309 
L 180.264145 19.517333 
L 180.36445 35.750154 
L 180.531748 37.425982 
L 180.890032 39.002639 
L 181.294953 39.856511 
L 181.758724 40.338455 
L 182.343527 40.619852 
L 183.230725 40.776648 
L 185.149102 40.838054 
L 185.187965 40.838307 
L 185.199069 19.48191 
L 185.299374 35.747706 
L 185.466672 37.425838 
L 185.824957 39.002621 
L 186.229877 39.856508 
L 186.693648 40.338455 
L 187.278452 40.619852 
L 188.16565 40.776648 
L 190.084026 40.838054 
L 190.12289 40.838307 
L 190.133993 19.446497 
L 190.234298 35.745262 
L 190.401226 37.423322 
L 190.759511 39.001505 
L 191.164061 39.855423 
L 191.627832 40.337925 
L 192.212636 40.619624 
L 193.099464 40.776548 
L 195.015619 40.838032 
L 195.057814 40.838307 
L 195.068918 19.411023 
L 195.169223 35.742806 
L 195.336151 37.423181 
L 195.694065 39.000389 
L 196.098615 39.854878 
L 196.562387 40.33766 
L 197.14682 40.619396 
L 198.033277 40.776448 
L 199.947582 40.838012 
L 199.992738 40.838307 
L 200.003842 19.375559 
L 200.104147 35.740351 
L 200.271075 37.42304 
L 200.628989 39.000373 
L 201.03354 39.854877 
L 201.497311 40.33766 
L 202.081744 40.619396 
L 202.968202 40.776448 
L 204.882507 40.838012 
L 204.928032 40.838309 
L 204.939136 19.340092 
L 205.039441 35.737885 
L 205.205999 37.420522 
L 205.563913 38.999257 
L 205.968464 39.854333 
L 206.431865 40.33713 
L 207.016298 40.619167 
L 207.902016 40.776314 
L 209.81373 40.837984 
L 209.862957 40.838307 
L 209.874061 19.30469 
L 209.974365 35.735422 
L 210.140923 37.420378 
L 210.498838 38.999239 
L 210.903388 39.85433 
L 211.366789 40.33713 
L 211.951222 40.619167 
L 212.83694 40.776314 
L 214.748654 40.837984 
L 214.797881 40.838307 
L 214.808985 19.269305 
L 214.90929 35.732946 
L 215.075848 37.420236 
L 215.433762 38.999222 
L 215.838312 39.854329 
L 216.301713 40.337129 
L 216.886146 40.619167 
L 217.771864 40.776314 
L 219.683578 40.837984 
L 219.732805 40.838307 
L 219.743539 19.233708 
L 219.844214 35.730477 
L 220.010402 37.417709 
L 220.367576 38.995898 
L 220.772126 39.852696 
L 221.235527 40.336333 
L 221.81959 40.61871 
L 222.704197 40.776079 
L 224.6111 40.837934 
L 224.667729 40.838307 
L 224.678463 19.198113 
L 224.779138 35.727995 
L 224.945326 37.417567 
L 225.3025 38.995882 
L 225.70705 39.852695 
L 226.170451 40.336333 
L 226.754514 40.61871 
L 227.639122 40.776079 
L 229.546024 40.837934 
L 229.603024 40.838309 
L 229.613758 19.162531 
L 229.714433 35.725512 
L 229.88062 37.417428 
L 230.237794 38.995866 
L 230.642345 39.852694 
L 231.105746 40.336333 
L 231.689809 40.61871 
L 232.574416 40.776079 
L 234.481318 40.837934 
L 234.537948 40.838307 
L 234.548682 19.127006 
L 234.649357 35.723023 
L 234.815174 37.414895 
L 235.172348 38.994744 
L 235.576899 39.852147 
L 236.03993 40.335801 
L 236.623623 40.618366 
L 237.50749 40.77591 
L 239.411061 40.837898 
L 239.472872 40.838307 
L 239.483606 19.091472 
L 239.584281 35.720529 
L 239.750099 37.414753 
L 240.107273 38.994728 
L 240.511823 39.852145 
L 240.974854 40.335801 
L 241.558547 40.618366 
L 242.442414 40.77591 
L 244.345985 40.837898 
L 244.407797 40.838307 
L 244.41853 19.05595 
L 244.519205 35.718038 
L 244.685023 37.41461 
L 245.042197 38.994711 
L 245.446747 39.852144 
L 245.909778 40.335801 
L 246.493471 40.618366 
L 247.377338 40.77591 
L 249.280909 40.837898 
L 249.342721 40.838307 
L 249.353455 19.020372 
L 249.454129 35.715527 
L 249.619947 37.414468 
L 249.977121 38.994695 
L 250.381672 39.852142 
L 250.844703 40.3358 
L 251.428395 40.618366 
L 252.312262 40.77591 
L 254.215834 40.837898 
L 254.278015 40.838309 
L 254.288749 18.984811 
L 254.389424 35.713021 
L 254.554871 37.411936 
L 254.912045 38.993574 
L 255.316226 39.851051 
L 255.779257 40.335268 
L 256.362579 40.618022 
L 257.245706 40.775741 
L 259.145946 40.837863 
L 259.212939 40.838307 
L 259.223673 18.949289 
L 259.324348 35.710503 
L 259.489796 37.41179 
L 259.84697 38.993556 
L 260.25115 39.851049 
L 260.714181 40.335268 
L 261.297504 40.618022 
L 262.18063 40.775741 
L 264.08087 40.837863 
L 264.147864 40.838307 
L 264.158597 18.913803 
L 264.259272 35.707993 
L 264.42472 37.411648 
L 264.781524 38.992434 
L 265.185704 39.850502 
L 265.648735 40.335001 
L 266.232058 40.617907 
L 267.114814 40.775673 
L 269.013574 40.837847 
L 269.082788 40.838307 
L 269.093522 18.87831 
L 269.194197 35.705473 
L 269.359274 37.40911 
L 269.716078 38.99131 
L 270.120258 39.849954 
L 270.582919 40.334468 
L 271.165872 40.617562 
L 272.047888 40.775504 
L 273.943316 40.837811 
L 274.017712 40.838307 
L 274.028446 18.842817 
L 274.129121 35.702937 
L 274.294198 37.408967 
L 274.651002 38.991293 
L 275.055183 39.849953 
L 275.517843 40.334468 
L 276.100796 40.617562 
L 276.982812 40.775504 
L 278.878241 40.837811 
L 278.953007 40.838309 
L 278.96374 18.807337 
L 279.064415 35.700417 
L 279.229493 37.408827 
L 279.586297 38.991278 
L 279.990477 39.849952 
L 280.453138 40.334468 
L 281.03609 40.617562 
L 281.918107 40.775504 
L 283.813535 40.837811 
L 283.887931 40.838307 
L 283.898664 18.771919 
L 283.999339 35.697873 
L 284.164047 37.406282 
L 284.520851 38.990152 
L 284.925031 39.849403 
L 285.387322 40.333934 
L 285.969904 40.617216 
L 286.85118 40.775334 
L 288.743647 40.837777 
L 293.76 40.84299 
L 293.76 40.84299 
" clip-path="url(#p390920e807)" style="fill: none; stroke: #cc78bc; stroke-width: 1.5; stroke-linecap: square"/>
   </g>
   <g id="line2d_16">
    <path d="M 34.66963 40.843636 
L 42.072942 40.843636 
L 42.082935 24.268279 
L 42.18435 37.842557 
L 42.35646 38.690245 
L 42.753608 39.688743 
L 43.200353 40.242779 
L 43.744812 40.56399 
L 44.527264 40.748086 
L 46.025545 40.831107 
L 47.007866 40.840316 
L 47.017859 24.262683 
L 47.119275 37.83751 
L 47.291384 38.686859 
L 47.688532 39.6871 
L 48.134907 40.241651 
L 48.678996 40.563337 
L 49.460338 40.747721 
L 50.954917 40.830997 
L 51.94279 40.840311 
L 51.952784 24.262676 
L 52.054199 37.837504 
L 52.226309 38.686855 
L 52.623456 39.687097 
L 53.069832 40.24165 
L 53.613921 40.563336 
L 54.395262 40.747721 
L 55.889841 40.830997 
L 56.878084 40.840313 
L 56.888078 24.262679 
L 56.989493 37.837506 
L 57.161603 38.686856 
L 57.558751 39.687098 
L 58.005126 40.24165 
L 58.549215 40.563337 
L 59.330556 40.747721 
L 60.825136 40.830997 
L 61.813009 40.840311 
L 61.823002 24.262676 
L 61.924417 37.837504 
L 62.096527 38.686855 
L 62.493675 39.687097 
L 62.94005 40.24165 
L 63.484139 40.563336 
L 64.265481 40.747721 
L 65.76006 40.830997 
L 66.747933 40.840311 
L 66.757926 24.262676 
L 66.859342 37.837504 
L 67.031451 38.686855 
L 67.428599 39.687097 
L 67.874974 40.24165 
L 68.419063 40.563336 
L 69.200405 40.747721 
L 70.694984 40.830997 
L 71.682857 40.840311 
L 71.692851 24.262676 
L 71.794266 37.837504 
L 71.966376 38.686855 
L 72.363524 39.687097 
L 72.809899 40.24165 
L 73.353988 40.563336 
L 74.135329 40.747721 
L 75.629908 40.830997 
L 76.617781 40.840311 
L 76.627775 24.262676 
L 76.72919 37.837504 
L 76.9013 38.686855 
L 77.298448 39.687097 
L 77.744823 40.24165 
L 78.288912 40.563336 
L 79.070253 40.747721 
L 80.564832 40.830997 
L 81.553076 40.840313 
L 81.563069 24.262679 
L 81.664484 37.837506 
L 81.836594 38.686856 
L 82.233742 39.687098 
L 82.680117 40.24165 
L 83.224206 40.563337 
L 84.005548 40.747721 
L 85.500127 40.830997 
L 86.488 40.840311 
L 86.497993 24.262676 
L 86.599409 37.837504 
L 86.771518 38.686855 
L 87.168666 39.687097 
L 87.615042 40.24165 
L 88.159131 40.563336 
L 88.940472 40.747721 
L 90.435051 40.830997 
L 91.422924 40.840311 
L 91.432918 24.262676 
L 91.534333 37.837504 
L 91.706443 38.686855 
L 92.103591 39.687097 
L 92.549966 40.24165 
L 93.094055 40.563336 
L 93.875396 40.747721 
L 95.369975 40.830997 
L 96.357848 40.840311 
L 96.367842 24.262676 
L 96.469257 37.837504 
L 96.641367 38.686855 
L 97.038515 39.687097 
L 97.48489 40.24165 
L 98.028979 40.563336 
L 98.81032 40.747721 
L 100.3049 40.830997 
L 101.292773 40.840311 
L 101.302766 24.262676 
L 101.404181 37.837504 
L 101.576291 38.686855 
L 101.973439 39.687097 
L 102.419814 40.24165 
L 102.963903 40.563336 
L 103.745245 40.747721 
L 105.239824 40.830997 
L 106.228067 40.840313 
L 106.238061 24.262679 
L 106.339476 37.837506 
L 106.511586 38.686856 
L 106.908734 39.687098 
L 107.355109 40.24165 
L 107.899198 40.563337 
L 108.680539 40.747721 
L 110.175118 40.830997 
L 111.162991 40.840311 
L 111.172985 24.262676 
L 111.2744 37.837504 
L 111.44651 38.686855 
L 111.843658 39.687097 
L 112.290033 40.24165 
L 112.834122 40.563336 
L 113.615463 40.747721 
L 115.110042 40.830997 
L 116.097916 40.840311 
L 116.107909 24.262676 
L 116.209324 37.837504 
L 116.381434 38.686855 
L 116.778582 39.687097 
L 117.224957 40.24165 
L 117.769046 40.563336 
L 118.550388 40.747721 
L 120.044967 40.830997 
L 121.03284 40.840311 
L 121.042833 24.262676 
L 121.144249 37.837504 
L 121.316358 38.686855 
L 121.713506 39.687097 
L 122.159881 40.24165 
L 122.70397 40.563336 
L 123.485312 40.747721 
L 124.979891 40.830997 
L 125.967764 40.840311 
L 125.977758 24.262676 
L 126.079173 37.837504 
L 126.251283 38.686855 
L 126.648431 39.687097 
L 127.094806 40.24165 
L 127.638895 40.563336 
L 128.420236 40.747721 
L 129.914815 40.830997 
L 130.903058 40.840313 
L 130.913052 24.262679 
L 131.014467 37.837506 
L 131.186577 38.686856 
L 131.583725 39.687098 
L 132.0301 40.24165 
L 132.574189 40.563337 
L 133.35553 40.747721 
L 134.85011 40.830997 
L 135.837983 40.840311 
L 135.847976 24.262676 
L 135.949391 37.837504 
L 136.121501 38.686855 
L 136.518649 39.687097 
L 136.965024 40.24165 
L 137.509113 40.563336 
L 138.290455 40.747721 
L 139.785034 40.830997 
L 140.772907 40.840311 
L 140.7829 24.262676 
L 140.884316 37.837504 
L 141.056425 38.686855 
L 141.453573 39.687097 
L 141.899948 40.24165 
L 142.444037 40.563336 
L 143.225379 40.747721 
L 144.719958 40.830997 
L 145.707831 40.840311 
L 145.717825 24.262676 
L 145.81924 37.837504 
L 145.99135 38.686855 
L 146.388498 39.687097 
L 146.834873 40.24165 
L 147.378962 40.563336 
L 148.160303 40.747721 
L 149.654882 40.830997 
L 150.642755 40.840311 
L 150.652749 24.262676 
L 150.754164 37.837504 
L 150.926274 38.686855 
L 151.323422 39.687097 
L 151.769797 40.24165 
L 152.313886 40.563336 
L 153.095227 40.747721 
L 154.589807 40.830997 
L 155.57805 40.840313 
L 155.588043 24.262679 
L 155.689458 37.837506 
L 155.861568 38.686856 
L 156.258716 39.687098 
L 156.705091 40.24165 
L 157.24918 40.563337 
L 158.030522 40.747721 
L 159.525101 40.830997 
L 160.512974 40.840311 
L 160.522968 24.262676 
L 160.624383 37.837504 
L 160.796493 38.686855 
L 161.19364 39.687097 
L 161.640016 40.24165 
L 162.184105 40.563336 
L 162.965446 40.747721 
L 164.460025 40.830997 
L 165.447898 40.840311 
L 165.457892 24.262676 
L 165.559307 37.837504 
L 165.731417 38.686855 
L 166.128565 39.687097 
L 166.57494 40.24165 
L 167.119029 40.563336 
L 167.90037 40.747721 
L 169.394949 40.830997 
L 170.382823 40.840311 
L 170.392816 24.262676 
L 170.494231 37.837504 
L 170.666341 38.686855 
L 171.063489 39.687097 
L 171.509864 40.24165 
L 172.053953 40.563336 
L 172.835294 40.747721 
L 174.329874 40.830997 
L 175.317747 40.840311 
L 175.32774 24.262676 
L 175.429155 37.837504 
L 175.601265 38.686855 
L 175.998413 39.687097 
L 176.444788 40.24165 
L 176.988877 40.563336 
L 177.770219 40.747721 
L 179.264798 40.830997 
L 180.253041 40.840313 
L 180.263035 24.262679 
L 180.36445 37.837506 
L 180.53656 38.686856 
L 180.933708 39.687098 
L 181.380083 40.24165 
L 181.924172 40.563337 
L 182.705513 40.747721 
L 184.200092 40.830997 
L 185.187965 40.840311 
L 185.197959 24.262676 
L 185.299374 37.837504 
L 185.471484 38.686855 
L 185.868632 39.687097 
L 186.315007 40.24165 
L 186.859096 40.563336 
L 187.640437 40.747721 
L 189.135016 40.830997 
L 190.12289 40.840311 
L 190.132883 24.262676 
L 190.234298 37.837504 
L 190.406408 38.686855 
L 190.803556 39.687097 
L 191.249931 40.24165 
L 191.79402 40.563336 
L 192.575362 40.747721 
L 194.069941 40.830997 
L 195.057814 40.840311 
L 195.067807 24.262676 
L 195.169223 37.837504 
L 195.341332 38.686855 
L 195.73848 39.687097 
L 196.184855 40.24165 
L 196.728944 40.563336 
L 197.510286 40.747721 
L 199.004865 40.830997 
L 199.992738 40.840311 
L 200.002732 24.262676 
L 200.104147 37.837504 
L 200.276257 38.686855 
L 200.673405 39.687097 
L 201.11978 40.24165 
L 201.663869 40.563336 
L 202.44521 40.747721 
L 203.939789 40.830997 
L 204.928032 40.840313 
L 204.938026 24.262679 
L 205.039441 37.837506 
L 205.211551 38.686856 
L 205.608699 39.687098 
L 206.055074 40.24165 
L 206.599163 40.563337 
L 207.380504 40.747721 
L 208.875084 40.830997 
L 209.862957 40.840311 
L 209.87295 24.262676 
L 209.974365 37.837504 
L 210.146475 38.686855 
L 210.543623 39.687097 
L 210.989998 40.24165 
L 211.534087 40.563336 
L 212.315429 40.747721 
L 213.810008 40.830997 
L 214.797881 40.840311 
L 214.807874 24.262676 
L 214.90929 37.837504 
L 215.081399 38.686855 
L 215.478547 39.687097 
L 215.924922 40.24165 
L 216.469011 40.563336 
L 217.250353 40.747721 
L 218.744932 40.830997 
L 219.732805 40.840311 
L 219.742799 24.262676 
L 219.844214 37.837504 
L 220.016324 38.686855 
L 220.413472 39.687097 
L 220.859847 40.24165 
L 221.403936 40.563336 
L 222.185277 40.747721 
L 223.679856 40.830997 
L 224.667729 40.840311 
L 224.677723 24.262676 
L 224.779138 37.837504 
L 224.951248 38.686855 
L 225.348396 39.687097 
L 225.794771 40.24165 
L 226.33886 40.563336 
L 227.120201 40.747721 
L 228.614781 40.830997 
L 229.603024 40.840313 
L 229.613017 24.262679 
L 229.714433 37.837506 
L 229.886542 38.686856 
L 230.28369 39.687098 
L 230.730065 40.24165 
L 231.274154 40.563337 
L 232.055496 40.747721 
L 233.550075 40.830997 
L 234.537948 40.840311 
L 234.547942 24.262676 
L 234.649357 37.837504 
L 234.821467 38.686855 
L 235.218615 39.687097 
L 235.66499 40.24165 
L 236.209079 40.563336 
L 236.99042 40.747721 
L 238.484999 40.830997 
L 239.472872 40.840311 
L 239.482866 24.262676 
L 239.584281 37.837504 
L 239.756391 38.686855 
L 240.153539 39.687097 
L 240.599914 40.24165 
L 241.144003 40.563336 
L 241.925344 40.747721 
L 243.419923 40.830997 
L 244.407797 40.840311 
L 244.41779 24.262676 
L 244.519205 37.837504 
L 244.691315 38.686855 
L 245.088463 39.687097 
L 245.534838 40.24165 
L 246.078927 40.563336 
L 246.860268 40.747721 
L 248.354848 40.830997 
L 249.342721 40.840311 
L 249.352714 24.262676 
L 249.454129 37.837504 
L 249.626239 38.686855 
L 250.023387 39.687097 
L 250.469762 40.24165 
L 251.013851 40.563336 
L 251.795193 40.747721 
L 253.289772 40.830997 
L 254.278015 40.840313 
L 254.288009 24.262679 
L 254.389424 37.837506 
L 254.561534 38.686856 
L 254.958682 39.687098 
L 255.405057 40.24165 
L 255.949146 40.563337 
L 256.730487 40.747721 
L 258.225066 40.830997 
L 259.212939 40.840311 
L 259.222933 24.262676 
L 259.324348 37.837504 
L 259.496458 38.686855 
L 259.893606 39.687097 
L 260.339981 40.24165 
L 260.88407 40.563336 
L 261.665411 40.747721 
L 263.159991 40.830997 
L 264.147864 40.840311 
L 264.157857 24.262676 
L 264.259272 37.837504 
L 264.431382 38.686855 
L 264.82853 39.687097 
L 265.274905 40.24165 
L 265.818994 40.563336 
L 266.600336 40.747721 
L 268.094915 40.830997 
L 269.082788 40.840311 
L 269.092781 24.262676 
L 269.194197 37.837504 
L 269.366306 38.686855 
L 269.763454 39.687097 
L 270.209829 40.24165 
L 270.753918 40.563336 
L 271.53526 40.747721 
L 273.029839 40.830997 
L 274.017712 40.840311 
L 274.027706 24.262676 
L 274.129121 37.837504 
L 274.301231 38.686855 
L 274.698379 39.687097 
L 275.144754 40.24165 
L 275.688843 40.563336 
L 276.470184 40.747721 
L 277.964763 40.830997 
L 278.953007 40.840313 
L 278.963 24.262679 
L 279.064415 37.837506 
L 279.236525 38.686856 
L 279.633673 39.687098 
L 280.080048 40.24165 
L 280.624137 40.563337 
L 281.405478 40.747721 
L 282.900058 40.830997 
L 283.887931 40.840311 
L 283.897924 24.262676 
L 283.999339 37.837504 
L 284.171449 38.686855 
L 284.568597 39.687097 
L 285.014972 40.24165 
L 285.559061 40.563336 
L 286.340403 40.747721 
L 287.834982 40.830997 
L 293.76 40.843632 
L 293.76 40.843632 
" clip-path="url(#p390920e807)" style="fill: none; stroke: #d55e00; stroke-width: 1.5; stroke-linecap: square"/>
   </g>
   <g id="LineCollection_1">
    <path d="M 34.67 21.595518 
L 293.76 21.595518 
" clip-path="url(#p390920e807)" style="fill: none; stroke-dasharray: 1.5,2.475; stroke-dashoffset: 0; stroke: #000000; stroke-width: 1.5"/>
   </g>
   <g id="patch_3">
    <path d="M 34.67 42.48 
L 34.67 6.48 
" style="fill: none; stroke: #000000; stroke-width: 0.5; stroke-linejoin: miter; stroke-linecap: square"/>
   </g>
   <g id="patch_4">
    <path d="M 34.67 42.48 
L 293.76 42.48 
" style="fill: none; stroke: #000000; stroke-width: 0.5; stroke-linejoin: miter; stroke-linecap: square"/>
   </g>
  </g>
  <g id="axes_2">
   <g id="patch_5">
    <path d="M 34.67 97.48 
L 293.76 97.48 
L 293.76 61.48 
L 34.67 61.48 
z
" style="fill: #ffffff"/>
   </g>
   <g id="matplotlib.axis_3">
    <g id="xtick_10">
     <g id="line2d_17">
      <g>
       <use xlink:href="#m5eb870fdc1" x="42.072571" y="97.48" style="stroke: #000000; stroke-width: 0.8"/>
      </g>
     </g>
     <g id="text_14">
      <!-- 12000 -->
      <g transform="translate(33.731165 108.774687)scale(0.06 -0.06)">
       <use xlink:href="#ArialMT-31"/>
       <use xlink:href="#ArialMT-32" x="55.615234"/>
       <use xlink:href="#ArialMT-30" x="111.230469"/>
       <use xlink:href="#ArialMT-30" x="166.845703"/>
       <use xlink:href="#ArialMT-30" x="222.460938"/>
      </g>
     </g>
    </g>
    <g id="xtick_11">
     <g id="line2d_18">
      <g>
       <use xlink:href="#m5eb870fdc1" x="71.682857" y="97.48" style="stroke: #000000; stroke-width: 0.8"/>
      </g>
     </g>
     <g id="text_15">
      <!-- 14000 -->
      <g transform="translate(63.341451 108.774687)scale(0.06 -0.06)">
       <use xlink:href="#ArialMT-31"/>
       <use xlink:href="#ArialMT-34" x="55.615234"/>
       <use xlink:href="#ArialMT-30" x="111.230469"/>
       <use xlink:href="#ArialMT-30" x="166.845703"/>
       <use xlink:href="#ArialMT-30" x="222.460938"/>
      </g>
     </g>
    </g>
    <g id="xtick_12">
     <g id="line2d_19">
      <g>
       <use xlink:href="#m5eb870fdc1" x="101.293143" y="97.48" style="stroke: #000000; stroke-width: 0.8"/>
      </g>
     </g>
     <g id="text_16">
      <!-- 16000 -->
      <g transform="translate(92.951737 108.774687)scale(0.06 -0.06)">
       <use xlink:href="#ArialMT-31"/>
       <use xlink:href="#ArialMT-36" x="55.615234"/>
       <use xlink:href="#ArialMT-30" x="111.230469"/>
       <use xlink:href="#ArialMT-30" x="166.845703"/>
       <use xlink:href="#ArialMT-30" x="222.460938"/>
      </g>
     </g>
    </g>
    <g id="xtick_13">
     <g id="line2d_20">
      <g>
       <use xlink:href="#m5eb870fdc1" x="130.903429" y="97.48" style="stroke: #000000; stroke-width: 0.8"/>
      </g>
     </g>
     <g id="text_17">
      <!-- 18000 -->
      <g transform="translate(122.562022 108.774687)scale(0.06 -0.06)">
       <use xlink:href="#ArialMT-31"/>
       <use xlink:href="#ArialMT-38" x="55.615234"/>
       <use xlink:href="#ArialMT-30" x="111.230469"/>
       <use xlink:href="#ArialMT-30" x="166.845703"/>
       <use xlink:href="#ArialMT-30" x="222.460938"/>
      </g>
     </g>
    </g>
    <g id="xtick_14">
     <g id="line2d_21">
      <g>
       <use xlink:href="#m5eb870fdc1" x="160.513714" y="97.48" style="stroke: #000000; stroke-width: 0.8"/>
      </g>
     </g>
     <g id="text_18">
      <!-- 20000 -->
      <g transform="translate(152.172308 108.774687)scale(0.06 -0.06)">
       <use xlink:href="#ArialMT-32"/>
       <use xlink:href="#ArialMT-30" x="55.615234"/>
       <use xlink:href="#ArialMT-30" x="111.230469"/>
       <use xlink:href="#ArialMT-30" x="166.845703"/>
       <use xlink:href="#ArialMT-30" x="222.460938"/>
      </g>
     </g>
    </g>
    <g id="xtick_15">
     <g id="line2d_22">
      <g>
       <use xlink:href="#m5eb870fdc1" x="190.124" y="97.48" style="stroke: #000000; stroke-width: 0.8"/>
      </g>
     </g>
     <g id="text_19">
      <!-- 22000 -->
      <g transform="translate(181.782594 108.774687)scale(0.06 -0.06)">
       <use xlink:href="#ArialMT-32"/>
       <use xlink:href="#ArialMT-32" x="55.615234"/>
       <use xlink:href="#ArialMT-30" x="111.230469"/>
       <use xlink:href="#ArialMT-30" x="166.845703"/>
       <use xlink:href="#ArialMT-30" x="222.460938"/>
      </g>
     </g>
    </g>
    <g id="xtick_16">
     <g id="line2d_23">
      <g>
       <use xlink:href="#m5eb870fdc1" x="219.734286" y="97.48" style="stroke: #000000; stroke-width: 0.8"/>
      </g>
     </g>
     <g id="text_20">
      <!-- 24000 -->
      <g transform="translate(211.392879 108.774687)scale(0.06 -0.06)">
       <use xlink:href="#ArialMT-32"/>
       <use xlink:href="#ArialMT-34" x="55.615234"/>
       <use xlink:href="#ArialMT-30" x="111.230469"/>
       <use xlink:href="#ArialMT-30" x="166.845703"/>
       <use xlink:href="#ArialMT-30" x="222.460938"/>
      </g>
     </g>
    </g>
    <g id="xtick_17">
     <g id="line2d_24">
      <g>
       <use xlink:href="#m5eb870fdc1" x="249.344571" y="97.48" style="stroke: #000000; stroke-width: 0.8"/>
      </g>
     </g>
     <g id="text_21">
      <!-- 26000 -->
      <g transform="translate(241.003165 108.774687)scale(0.06 -0.06)">
       <use xlink:href="#ArialMT-32"/>
       <use xlink:href="#ArialMT-36" x="55.615234"/>
       <use xlink:href="#ArialMT-30" x="111.230469"/>
       <use xlink:href="#ArialMT-30" x="166.845703"/>
       <use xlink:href="#ArialMT-30" x="222.460938"/>
      </g>
     </g>
    </g>
    <g id="xtick_18">
     <g id="line2d_25">
      <g>
       <use xlink:href="#m5eb870fdc1" x="278.954857" y="97.48" style="stroke: #000000; stroke-width: 0.8"/>
      </g>
     </g>
     <g id="text_22">
      <!-- 28000 -->
      <g transform="translate(270.613451 108.774687)scale(0.06 -0.06)">
       <use xlink:href="#ArialMT-32"/>
       <use xlink:href="#ArialMT-38" x="55.615234"/>
       <use xlink:href="#ArialMT-30" x="111.230469"/>
       <use xlink:href="#ArialMT-30" x="166.845703"/>
       <use xlink:href="#ArialMT-30" x="222.460938"/>
      </g>
     </g>
    </g>
    <g id="text_23">
     <!-- Time (ms) -->
     <g transform="translate(150.83125 118.335)scale(0.06 -0.06)">
      <defs>
       <path id="ArialMT-54" d="M 1659 0 
L 1659 4041 
L 150 4041 
L 150 4581 
L 3781 4581 
L 3781 4041 
L 2266 4041 
L 2266 0 
L 1659 0 
z
" transform="scale(0.015625)"/>
       <path id="ArialMT-69" d="M 425 3934 
L 425 4581 
L 988 4581 
L 988 3934 
L 425 3934 
z
M 425 0 
L 425 3319 
L 988 3319 
L 988 0 
L 425 0 
z
" transform="scale(0.015625)"/>
       <path id="ArialMT-73" d="M 197 991 
L 753 1078 
Q 800 744 1014 566 
Q 1228 388 1613 388 
Q 2000 388 2187 545 
Q 2375 703 2375 916 
Q 2375 1106 2209 1216 
Q 2094 1291 1634 1406 
Q 1016 1563 777 1677 
Q 538 1791 414 1992 
Q 291 2194 291 2438 
Q 291 2659 392 2848 
Q 494 3038 669 3163 
Q 800 3259 1026 3326 
Q 1253 3394 1513 3394 
Q 1903 3394 2198 3281 
Q 2494 3169 2634 2976 
Q 2775 2784 2828 2463 
L 2278 2388 
Q 2241 2644 2061 2787 
Q 1881 2931 1553 2931 
Q 1166 2931 1000 2803 
Q 834 2675 834 2503 
Q 834 2394 903 2306 
Q 972 2216 1119 2156 
Q 1203 2125 1616 2013 
Q 2213 1853 2448 1751 
Q 2684 1650 2818 1456 
Q 2953 1263 2953 975 
Q 2953 694 2789 445 
Q 2625 197 2315 61 
Q 2006 -75 1616 -75 
Q 969 -75 630 194 
Q 291 463 197 991 
z
" transform="scale(0.015625)"/>
      </defs>
      <use xlink:href="#ArialMT-54"/>
      <use xlink:href="#ArialMT-69" x="57.333984"/>
      <use xlink:href="#ArialMT-6d" x="79.550781"/>
      <use xlink:href="#ArialMT-65" x="162.851562"/>
      <use xlink:href="#ArialMT-20" x="218.466797"/>
      <use xlink:href="#ArialMT-28" x="246.25"/>
      <use xlink:href="#ArialMT-6d" x="279.550781"/>
      <use xlink:href="#ArialMT-73" x="362.851562"/>
      <use xlink:href="#ArialMT-29" x="412.851562"/>
     </g>
    </g>
   </g>
   <g id="matplotlib.axis_4">
    <g id="ytick_4">
     <g id="line2d_26">
      <g>
       <use xlink:href="#m43f5a67091" x="34.67" y="95.843636" style="stroke: #000000; stroke-width: 0.8"/>
      </g>
     </g>
     <g id="text_24">
      <!-- 0.60 -->
      <g transform="translate(15.993438 97.99098)scale(0.06 -0.06)">
       <defs>
        <path id="ArialMT-2e" d="M 581 0 
L 581 641 
L 1222 641 
L 1222 0 
L 581 0 
z
" transform="scale(0.015625)"/>
       </defs>
       <use xlink:href="#ArialMT-30"/>
       <use xlink:href="#ArialMT-2e" x="55.615234"/>
       <use xlink:href="#ArialMT-36" x="83.398438"/>
       <use xlink:href="#ArialMT-30" x="139.013672"/>
      </g>
     </g>
    </g>
    <g id="ytick_5">
     <g id="line2d_27">
      <g>
       <use xlink:href="#m43f5a67091" x="34.67" y="81.342535" style="stroke: #000000; stroke-width: 0.8"/>
      </g>
     </g>
     <g id="text_25">
      <!-- 0.65 -->
      <g transform="translate(15.993438 83.489878)scale(0.06 -0.06)">
       <defs>
        <path id="ArialMT-35" d="M 266 1200 
L 856 1250 
Q 922 819 1161 601 
Q 1400 384 1738 384 
Q 2144 384 2425 690 
Q 2706 997 2706 1503 
Q 2706 1984 2436 2262 
Q 2166 2541 1728 2541 
Q 1456 2541 1237 2417 
Q 1019 2294 894 2097 
L 366 2166 
L 809 4519 
L 3088 4519 
L 3088 3981 
L 1259 3981 
L 1013 2750 
Q 1425 3038 1878 3038 
Q 2478 3038 2890 2622 
Q 3303 2206 3303 1553 
Q 3303 931 2941 478 
Q 2500 -78 1738 -78 
Q 1113 -78 717 272 
Q 322 622 266 1200 
z
" transform="scale(0.015625)"/>
       </defs>
       <use xlink:href="#ArialMT-30"/>
       <use xlink:href="#ArialMT-2e" x="55.615234"/>
       <use xlink:href="#ArialMT-36" x="83.398438"/>
       <use xlink:href="#ArialMT-35" x="139.013672"/>
      </g>
     </g>
    </g>
    <g id="ytick_6">
     <g id="line2d_28">
      <g>
       <use xlink:href="#m43f5a67091" x="34.67" y="66.841433" style="stroke: #000000; stroke-width: 0.8"/>
      </g>
     </g>
     <g id="text_26">
      <!-- 0.70 -->
      <g transform="translate(15.993438 68.988776)scale(0.06 -0.06)">
       <defs>
        <path id="ArialMT-37" d="M 303 3981 
L 303 4522 
L 3269 4522 
L 3269 4084 
Q 2831 3619 2401 2847 
Q 1972 2075 1738 1259 
Q 1569 684 1522 0 
L 944 0 
Q 953 541 1156 1306 
Q 1359 2072 1739 2783 
Q 2119 3494 2547 3981 
L 303 3981 
z
" transform="scale(0.015625)"/>
       </defs>
       <use xlink:href="#ArialMT-30"/>
       <use xlink:href="#ArialMT-2e" x="55.615234"/>
       <use xlink:href="#ArialMT-37" x="83.398438"/>
       <use xlink:href="#ArialMT-30" x="139.013672"/>
      </g>
     </g>
    </g>
    <g id="text_27">
     <!-- Synaptic weight (nS) -->
     <g transform="translate(10.730625 106.991406)rotate(-90)scale(0.06 -0.06)">
      <defs>
       <path id="ArialMT-53" d="M 288 1472 
L 859 1522 
Q 900 1178 1048 958 
Q 1197 738 1509 602 
Q 1822 466 2213 466 
Q 2559 466 2825 569 
Q 3091 672 3220 851 
Q 3350 1031 3350 1244 
Q 3350 1459 3225 1620 
Q 3100 1781 2813 1891 
Q 2628 1963 1997 2114 
Q 1366 2266 1113 2400 
Q 784 2572 623 2826 
Q 463 3081 463 3397 
Q 463 3744 659 4045 
Q 856 4347 1234 4503 
Q 1613 4659 2075 4659 
Q 2584 4659 2973 4495 
Q 3363 4331 3572 4012 
Q 3781 3694 3797 3291 
L 3216 3247 
Q 3169 3681 2898 3903 
Q 2628 4125 2100 4125 
Q 1550 4125 1298 3923 
Q 1047 3722 1047 3438 
Q 1047 3191 1225 3031 
Q 1400 2872 2139 2705 
Q 2878 2538 3153 2413 
Q 3553 2228 3743 1945 
Q 3934 1663 3934 1294 
Q 3934 928 3725 604 
Q 3516 281 3123 101 
Q 2731 -78 2241 -78 
Q 1619 -78 1198 103 
Q 778 284 539 648 
Q 300 1013 288 1472 
z
" transform="scale(0.015625)"/>
       <path id="ArialMT-79" d="M 397 -1278 
L 334 -750 
Q 519 -800 656 -800 
Q 844 -800 956 -737 
Q 1069 -675 1141 -563 
Q 1194 -478 1313 -144 
Q 1328 -97 1363 -6 
L 103 3319 
L 709 3319 
L 1400 1397 
Q 1534 1031 1641 628 
Q 1738 1016 1872 1384 
L 2581 3319 
L 3144 3319 
L 1881 -56 
Q 1678 -603 1566 -809 
Q 1416 -1088 1222 -1217 
Q 1028 -1347 759 -1347 
Q 597 -1347 397 -1278 
z
" transform="scale(0.015625)"/>
       <path id="ArialMT-6e" d="M 422 0 
L 422 3319 
L 928 3319 
L 928 2847 
Q 1294 3394 1984 3394 
Q 2284 3394 2536 3286 
Q 2788 3178 2913 3003 
Q 3038 2828 3088 2588 
Q 3119 2431 3119 2041 
L 3119 0 
L 2556 0 
L 2556 2019 
Q 2556 2363 2490 2533 
Q 2425 2703 2258 2804 
Q 2091 2906 1866 2906 
Q 1506 2906 1245 2678 
Q 984 2450 984 1813 
L 984 0 
L 422 0 
z
" transform="scale(0.015625)"/>
       <path id="ArialMT-70" d="M 422 -1272 
L 422 3319 
L 934 3319 
L 934 2888 
Q 1116 3141 1344 3267 
Q 1572 3394 1897 3394 
Q 2322 3394 2647 3175 
Q 2972 2956 3137 2557 
Q 3303 2159 3303 1684 
Q 3303 1175 3120 767 
Q 2938 359 2589 142 
Q 2241 -75 1856 -75 
Q 1575 -75 1351 44 
Q 1128 163 984 344 
L 984 -1272 
L 422 -1272 
z
M 931 1641 
Q 931 1000 1190 694 
Q 1450 388 1819 388 
Q 2194 388 2461 705 
Q 2728 1022 2728 1688 
Q 2728 2322 2467 2637 
Q 2206 2953 1844 2953 
Q 1484 2953 1207 2617 
Q 931 2281 931 1641 
z
" transform="scale(0.015625)"/>
       <path id="ArialMT-63" d="M 2588 1216 
L 3141 1144 
Q 3050 572 2676 248 
Q 2303 -75 1759 -75 
Q 1078 -75 664 370 
Q 250 816 250 1647 
Q 250 2184 428 2587 
Q 606 2991 970 3192 
Q 1334 3394 1763 3394 
Q 2303 3394 2647 3120 
Q 2991 2847 3088 2344 
L 2541 2259 
Q 2463 2594 2264 2762 
Q 2066 2931 1784 2931 
Q 1359 2931 1093 2626 
Q 828 2322 828 1663 
Q 828 994 1084 691 
Q 1341 388 1753 388 
Q 2084 388 2306 591 
Q 2528 794 2588 1216 
z
" transform="scale(0.015625)"/>
       <path id="ArialMT-77" d="M 1034 0 
L 19 3319 
L 600 3319 
L 1128 1403 
L 1325 691 
Q 1338 744 1497 1375 
L 2025 3319 
L 2603 3319 
L 3100 1394 
L 3266 759 
L 3456 1400 
L 4025 3319 
L 4572 3319 
L 3534 0 
L 2950 0 
L 2422 1988 
L 2294 2553 
L 1622 0 
L 1034 0 
z
" transform="scale(0.015625)"/>
       <path id="ArialMT-68" d="M 422 0 
L 422 4581 
L 984 4581 
L 984 2938 
Q 1378 3394 1978 3394 
Q 2347 3394 2619 3248 
Q 2891 3103 3008 2847 
Q 3125 2591 3125 2103 
L 3125 0 
L 2563 0 
L 2563 2103 
Q 2563 2525 2380 2717 
Q 2197 2909 1863 2909 
Q 1613 2909 1392 2779 
Q 1172 2650 1078 2428 
Q 984 2206 984 1816 
L 984 0 
L 422 0 
z
" transform="scale(0.015625)"/>
      </defs>
      <use xlink:href="#ArialMT-53"/>
      <use xlink:href="#ArialMT-79" x="66.699219"/>
      <use xlink:href="#ArialMT-6e" x="116.699219"/>
      <use xlink:href="#ArialMT-61" x="172.314453"/>
      <use xlink:href="#ArialMT-70" x="227.929688"/>
      <use xlink:href="#ArialMT-74" x="283.544922"/>
      <use xlink:href="#ArialMT-69" x="311.328125"/>
      <use xlink:href="#ArialMT-63" x="333.544922"/>
      <use xlink:href="#ArialMT-20" x="383.544922"/>
      <use xlink:href="#ArialMT-77" x="411.328125"/>
      <use xlink:href="#ArialMT-65" x="483.544922"/>
      <use xlink:href="#ArialMT-69" x="539.160156"/>
      <use xlink:href="#ArialMT-67" x="561.376953"/>
      <use xlink:href="#ArialMT-68" x="616.992188"/>
      <use xlink:href="#ArialMT-74" x="672.607422"/>
      <use xlink:href="#ArialMT-20" x="700.390625"/>
      <use xlink:href="#ArialMT-28" x="728.173828"/>
      <use xlink:href="#ArialMT-6e" x="761.474609"/>
      <use xlink:href="#ArialMT-53" x="817.089844"/>
      <use xlink:href="#ArialMT-29" x="883.789062"/>
     </g>
    </g>
   </g>
   <g id="line2d_29">
    <path d="M 34.655195 95.843636 
L 42.072571 95.843636 
L 42.191013 95.243658 
L 47.002684 95.243658 
L 47.121125 94.641409 
L 51.932797 94.641409 
L 52.051238 94.036883 
L 56.877714 94.036883 
L 56.996155 93.431078 
L 61.807827 93.431078 
L 61.926268 92.822984 
L 66.737939 92.822984 
L 66.856381 92.212591 
L 71.682857 92.212591 
L 71.801298 91.599888 
L 76.61297 91.599888 
L 76.731411 90.984868 
L 81.543082 90.984868 
L 81.661523 90.368547 
L 86.488 90.368547 
L 86.606441 89.748865 
L 91.418113 89.748865 
L 91.536554 89.126837 
L 96.348225 89.126837 
L 96.466666 88.502452 
L 101.293143 88.502452 
L 101.411584 87.875701 
L 106.223255 87.875701 
L 106.341697 87.247621 
L 111.153368 87.247621 
L 111.271809 86.617165 
L 116.098286 86.617165 
L 116.216727 85.98432 
L 121.028398 85.98432 
L 121.146839 85.349078 
L 125.958511 85.349078 
L 126.076952 84.711429 
L 130.903429 84.711429 
L 131.02187 84.072429 
L 135.833541 84.072429 
L 135.951982 83.43101 
L 140.763654 83.43101 
L 140.882095 82.787162 
L 145.708571 82.787162 
L 145.827013 82.140874 
L 150.638684 82.140874 
L 150.757125 81.492138 
L 155.568797 81.492138 
L 155.687238 80.842027 
L 160.513714 80.842027 
L 160.632155 80.189455 
L 165.443827 80.189455 
L 165.562268 79.534411 
L 170.373939 79.534411 
L 170.492381 78.876887 
L 175.318857 78.876887 
L 175.437298 78.21687 
L 180.24897 78.21687 
L 180.367411 77.555455 
L 185.179082 77.555455 
L 185.297523 76.891536 
L 190.124 76.891536 
L 190.242441 76.225103 
L 195.054113 76.225103 
L 195.172554 75.556145 
L 199.984225 75.556145 
L 200.102666 74.884652 
L 204.929143 74.884652 
L 205.047584 74.211736 
L 209.859255 74.211736 
L 209.977697 73.536273 
L 214.789368 73.536273 
L 214.907809 72.858252 
L 219.734286 72.858252 
L 219.852727 72.177662 
L 224.664398 72.177662 
L 224.782839 71.494494 
L 229.594511 71.494494 
L 229.712952 70.809877 
L 234.539429 70.809877 
L 234.65787 70.122669 
L 239.469541 70.122669 
L 239.587982 69.432859 
L 244.399654 69.432859 
L 244.518095 68.740435 
L 249.344571 68.740435 
L 249.463013 68.045388 
L 254.274684 68.045388 
L 254.393125 67.348867 
L 259.204797 67.348867 
L 259.323238 66.64971 
L 264.149714 66.64971 
L 264.268155 65.947905 
L 269.079827 65.947905 
L 269.198268 65.243442 
L 274.009939 65.243442 
L 274.128381 64.536309 
L 278.954857 64.536309 
L 279.073298 63.827678 
L 283.88497 63.827678 
L 284.003411 63.116364 
L 293.774805 63.116364 
L 293.774805 63.116364 
" clip-path="url(#pd72360f46d)" style="fill: none; stroke: #fbafe4; stroke-width: 1.5; stroke-linecap: square"/>
   </g>
   <g id="line2d_30">
    <path d="M 34.655195 95.843636 
L 42.072571 95.843636 
L 42.191013 95.24665 
L 47.002684 95.24665 
L 47.121125 94.647416 
L 51.932797 94.647416 
L 52.051238 94.045925 
L 56.877714 94.045925 
L 56.996155 93.443173 
L 61.807827 93.443173 
L 61.926268 92.838153 
L 66.737939 92.838153 
L 66.856381 92.230856 
L 71.682857 92.230856 
L 71.801298 91.621272 
L 76.61297 91.621272 
L 76.731411 91.009392 
L 81.543082 91.009392 
L 81.661523 90.395207 
L 86.488 90.395207 
L 86.606441 89.778708 
L 91.418113 89.778708 
L 91.536554 89.159884 
L 96.348225 89.159884 
L 96.466666 88.538726 
L 101.293143 88.538726 
L 101.411584 87.915226 
L 106.223255 87.915226 
L 106.341697 87.290415 
L 111.153368 87.290415 
L 111.271809 86.66325 
L 116.098286 86.66325 
L 116.216727 86.03372 
L 121.028398 86.03372 
L 121.146839 85.401816 
L 125.958511 85.401816 
L 126.076952 84.767529 
L 130.903429 84.767529 
L 131.02187 84.131909 
L 135.833541 84.131909 
L 135.951982 83.493893 
L 140.763654 83.493893 
L 140.882095 82.853472 
L 145.708571 82.853472 
L 145.827013 82.210636 
L 150.638684 82.210636 
L 150.757125 81.565375 
L 155.568797 81.565375 
L 155.687238 80.918758 
L 160.513714 80.918758 
L 160.632155 80.269704 
L 165.443827 80.269704 
L 165.562268 79.618203 
L 170.373939 79.618203 
L 170.492381 78.964246 
L 175.318857 78.964246 
L 175.437298 78.307822 
L 180.24897 78.307822 
L 180.367411 77.648921 
L 185.179082 77.648921 
L 185.297523 76.987533 
L 190.124 76.987533 
L 190.242441 76.323647 
L 195.054113 76.323647 
L 195.172554 75.657255 
L 199.984225 75.657255 
L 200.102666 74.988345 
L 204.929143 74.988345 
L 205.047584 74.318025 
L 209.859255 74.318025 
L 209.977697 73.645176 
L 214.789368 73.645176 
L 214.907809 72.969786 
L 219.734286 72.969786 
L 219.852727 72.291845 
L 224.664398 72.291845 
L 224.782839 71.611343 
L 229.594511 71.611343 
L 229.712952 70.929407 
L 234.539429 70.929407 
L 234.65787 70.244897 
L 239.469541 70.244897 
L 239.587982 69.557803 
L 244.399654 69.557803 
L 244.518095 68.868114 
L 249.344571 68.868114 
L 249.463013 68.175819 
L 254.274684 68.175819 
L 254.393125 67.482065 
L 259.204797 67.482065 
L 259.323238 66.785693 
L 264.149714 66.785693 
L 264.268155 66.086692 
L 269.079827 66.086692 
L 269.198268 65.38505 
L 274.009939 65.38505 
L 274.128381 64.680758 
L 278.954857 64.680758 
L 279.073298 63.974982 
L 283.88497 63.974982 
L 284.003411 63.266542 
L 293.774805 63.266542 
L 293.774805 63.266542 
" clip-path="url(#pd72360f46d)" style="fill: none; stroke: #ca9161; stroke-width: 1.5; stroke-linecap: square"/>
   </g>
   <g id="line2d_31">
    <path d="M 34.655195 95.843636 
L 42.072571 95.843636 
L 42.191013 95.25259 
L 47.002684 95.25259 
L 47.121125 94.659339 
L 51.947602 94.659339 
L 52.066043 94.063873 
L 56.877714 94.063873 
L 56.996155 93.46718 
L 61.807827 93.46718 
L 61.926268 92.868261 
L 66.752745 92.868261 
L 66.871186 92.267109 
L 71.682857 92.267109 
L 71.801298 91.662707 
L 76.61297 91.662707 
L 76.731411 91.056046 
L 81.557887 91.056046 
L 81.676329 90.448131 
L 86.488 90.448131 
L 86.606441 89.837946 
L 91.418113 89.837946 
L 91.536554 89.225481 
L 96.36303 89.225481 
L 96.481471 88.610728 
L 101.293143 88.610728 
L 101.411584 87.993676 
L 106.223255 87.993676 
L 106.341697 87.374318 
L 111.168173 87.374318 
L 111.286614 86.752643 
L 116.098286 86.752643 
L 116.216727 86.128642 
L 121.028398 86.128642 
L 121.146839 85.502306 
L 125.973316 85.502306 
L 126.091757 84.873625 
L 130.903429 84.873625 
L 131.02187 84.243641 
L 135.833541 84.243641 
L 135.951982 83.6113 
L 140.778459 83.6113 
L 140.8969 82.976594 
L 145.708571 82.976594 
L 145.827013 82.33845 
L 150.638684 82.33845 
L 150.757125 81.697913 
L 155.568797 81.697913 
L 155.687238 81.056044 
L 160.513714 81.056044 
L 160.632155 80.411772 
L 165.443827 80.411772 
L 165.562268 79.765085 
L 170.373939 79.765085 
L 170.492381 79.115974 
L 175.318857 79.115974 
L 175.437298 78.46443 
L 180.24897 78.46443 
L 180.367411 77.811531 
L 185.179082 77.811531 
L 185.297523 77.156187 
L 190.124 77.156187 
L 190.242441 76.497289 
L 195.054113 76.497289 
L 195.172554 75.835919 
L 199.984225 75.835919 
L 200.102666 75.172065 
L 204.929143 75.172065 
L 205.047584 74.506827 
L 209.859255 74.506827 
L 209.977697 73.839093 
L 214.789368 73.839093 
L 214.907809 73.168854 
L 219.734286 73.168854 
L 219.852727 72.496098 
L 224.664398 72.496098 
L 224.782839 71.820817 
L 229.594511 71.820817 
L 229.712952 71.144128 
L 234.539429 71.144128 
L 234.65787 70.4649 
L 239.469541 70.4649 
L 239.587982 69.783124 
L 244.399654 69.783124 
L 244.518095 69.097646 
L 249.344571 69.097646 
L 249.463013 68.409591 
L 254.274684 68.409591 
L 254.393125 67.720097 
L 259.204797 67.720097 
L 259.323238 67.028013 
L 264.149714 67.028013 
L 264.268155 66.333328 
L 269.079827 66.333328 
L 269.198268 65.636031 
L 274.009939 65.636031 
L 274.128381 64.936112 
L 278.954857 64.936112 
L 279.073298 64.23473 
L 283.88497 64.23473 
L 284.003411 63.530713 
L 293.774805 63.530713 
L 293.774805 63.530713 
" clip-path="url(#pd72360f46d)" style="fill: none; stroke: #cc78bc; stroke-width: 1.5; stroke-linecap: square"/>
   </g>
   <g id="line2d_32">
    <path d="M 34.655195 95.843636 
L 293.774805 95.843636 
L 293.774805 95.843636 
" clip-path="url(#pd72360f46d)" style="fill: none; stroke: #d55e00; stroke-width: 1.5; stroke-linecap: square"/>
   </g>
   <g id="patch_6">
    <path d="M 34.67 97.48 
L 34.67 61.48 
" style="fill: none; stroke: #000000; stroke-width: 0.5; stroke-linejoin: miter; stroke-linecap: square"/>
   </g>
   <g id="patch_7">
    <path d="M 34.67 97.48 
L 293.76 97.48 
" style="fill: none; stroke: #000000; stroke-width: 0.5; stroke-linejoin: miter; stroke-linecap: square"/>
   </g>
  </g>
 </g>
 <defs>
  <clipPath id="p390920e807">
   <rect x="34.67" y="6.48" width="259.09" height="36"/>
  </clipPath>
  <clipPath id="pd72360f46d">
   <rect x="34.67" y="61.48" width="259.09" height="36"/>
  </clipPath>
 </defs>
</svg>
